<svg id="svg" version="1.1" xmlns="http://www.w3.org/2000/svg" xmlns:xlink="http://www.w3.org/1999/xlink" width="400" height="111.76470588235294" viewBox="0, 0, 400,111.76470588235294"><g id="svgg"><path id="path0" d="M6.268 3.137 C 6.224 3.209,5.883 3.260,5.510 3.250 C 5.138 3.241,4.833 3.302,4.833 3.387 C 4.833 3.471,4.728 3.453,4.598 3.346 C 4.418 3.196,4.334 3.197,4.239 3.351 C 4.155 3.487,4.186 3.508,4.333 3.417 C 4.479 3.326,4.511 3.347,4.430 3.479 C 4.363 3.587,4.220 3.662,4.112 3.645 C 3.720 3.583,3.286 3.867,3.528 4.026 C 3.705 4.143,3.684 4.223,3.426 4.420 C 3.229 4.571,3.188 4.667,3.322 4.667 C 3.465 4.667,3.489 4.739,3.393 4.875 C 3.312 4.990,3.247 5.346,3.248 5.667 C 3.249 5.987,3.175 6.312,3.083 6.388 C 2.975 6.477,2.986 6.554,3.117 6.607 C 3.261 6.666,3.271 6.809,3.152 7.123 C 3.061 7.362,3.025 7.658,3.072 7.781 C 3.119 7.903,3.113 8.228,3.058 8.502 L 2.958 9.000 1.479 9.000 L 0.000 9.000 0.000 55.833 L 0.000 102.667 1.479 102.667 L 2.958 102.667 3.058 103.165 C 3.113 103.439,3.119 103.763,3.072 103.886 C 3.025 104.009,3.061 104.305,3.152 104.543 C 3.271 104.858,3.261 105.000,3.117 105.060 C 2.986 105.113,2.975 105.189,3.083 105.279 C 3.175 105.355,3.249 105.679,3.248 106.000 C 3.247 106.321,3.312 106.677,3.393 106.792 C 3.489 106.927,3.465 107.000,3.322 107.000 C 3.188 107.000,3.229 107.096,3.426 107.247 C 3.684 107.443,3.705 107.524,3.528 107.640 C 3.286 107.800,3.720 108.083,4.112 108.022 C 4.220 108.005,4.363 108.080,4.430 108.188 C 4.511 108.320,4.479 108.340,4.333 108.250 C 4.186 108.159,4.155 108.180,4.239 108.316 C 4.334 108.469,4.418 108.470,4.598 108.321 C 4.728 108.214,4.833 108.195,4.833 108.280 C 4.833 108.365,5.138 108.426,5.510 108.416 C 5.883 108.407,6.224 108.458,6.268 108.530 C 6.313 108.602,25.992 108.661,50.000 108.661 C 74.008 108.661,93.687 108.602,93.732 108.530 C 93.776 108.458,94.117 108.407,94.490 108.416 C 94.862 108.426,95.167 108.365,95.167 108.280 C 95.167 108.195,95.272 108.214,95.402 108.321 C 95.582 108.470,95.666 108.469,95.761 108.316 C 95.845 108.180,95.814 108.159,95.667 108.250 C 95.521 108.340,95.489 108.320,95.570 108.188 C 95.637 108.080,95.780 108.005,95.888 108.022 C 96.280 108.083,96.714 107.800,96.472 107.640 C 96.295 107.524,96.316 107.443,96.574 107.247 C 96.771 107.096,96.812 107.000,96.678 107.000 C 96.535 107.000,96.511 106.927,96.607 106.792 C 96.688 106.677,96.753 106.321,96.752 106.000 C 96.751 105.679,96.825 105.355,96.917 105.279 C 97.025 105.189,97.014 105.113,96.883 105.060 C 96.739 105.000,96.729 104.858,96.848 104.543 C 96.939 104.305,96.975 104.009,96.928 103.886 C 96.881 103.763,96.885 103.448,96.938 103.184 L 97.034 102.706 98.475 102.760 C 99.268 102.790,99.729 102.777,99.500 102.731 C 98.508 102.534,97.987 102.299,98.120 102.110 C 98.287 101.871,98.283 101.484,98.111 101.208 C 98.038 101.092,98.056 101.000,98.153 101.000 C 98.272 101.000,98.326 86.923,98.326 55.833 C 98.326 23.072,98.276 10.667,98.143 10.667 C 98.028 10.667,98.015 10.588,98.107 10.458 C 98.283 10.211,98.288 9.825,98.119 9.555 C 98.000 9.365,98.523 9.130,99.500 8.936 C 99.729 8.890,99.268 8.877,98.475 8.907 L 97.034 8.961 96.938 8.482 C 96.885 8.219,96.881 7.903,96.928 7.781 C 96.975 7.658,96.939 7.362,96.848 7.123 C 96.729 6.809,96.739 6.666,96.883 6.607 C 97.014 6.554,97.025 6.477,96.917 6.388 C 96.825 6.312,96.751 5.987,96.752 5.667 C 96.753 5.346,96.688 4.990,96.607 4.875 C 96.511 4.739,96.535 4.667,96.678 4.667 C 96.812 4.667,96.771 4.571,96.574 4.420 C 96.316 4.223,96.295 4.143,96.472 4.026 C 96.714 3.867,96.280 3.583,95.888 3.645 C 95.780 3.662,95.637 3.587,95.570 3.479 C 95.489 3.347,95.521 3.326,95.667 3.417 C 95.814 3.508,95.845 3.487,95.761 3.351 C 95.666 3.197,95.582 3.196,95.402 3.346 C 95.272 3.453,95.167 3.471,95.167 3.387 C 95.167 3.302,94.862 3.241,94.490 3.250 C 94.117 3.260,93.776 3.209,93.732 3.137 C 93.626 2.965,6.374 2.965,6.268 3.137 M206.268 3.137 C 206.224 3.209,205.883 3.260,205.510 3.250 C 205.138 3.241,204.833 3.302,204.833 3.387 C 204.833 3.471,204.728 3.453,204.598 3.346 C 204.418 3.196,204.334 3.197,204.239 3.351 C 204.155 3.487,204.186 3.508,204.333 3.417 C 204.479 3.326,204.511 3.347,204.430 3.479 C 204.363 3.587,204.220 3.662,204.112 3.645 C 203.720 3.583,203.286 3.867,203.528 4.026 C 203.705 4.143,203.684 4.223,203.426 4.420 C 203.229 4.571,203.188 4.667,203.322 4.667 C 203.465 4.667,203.489 4.739,203.393 4.875 C 203.312 4.990,203.247 5.346,203.248 5.667 C 203.249 5.987,203.175 6.312,203.083 6.388 C 202.975 6.477,202.986 6.554,203.117 6.607 C 203.261 6.666,203.271 6.809,203.152 7.123 C 203.061 7.362,203.025 7.658,203.072 7.781 C 203.119 7.903,203.115 8.219,203.062 8.482 L 202.966 8.961 201.525 8.907 C 200.732 8.877,200.271 8.890,200.500 8.936 C 201.492 9.133,202.013 9.368,201.880 9.557 C 201.713 9.796,201.717 10.183,201.889 10.458 C 201.962 10.575,201.944 10.667,201.847 10.667 C 201.728 10.667,201.674 24.744,201.674 55.833 C 201.674 88.595,201.724 101.000,201.857 101.000 C 201.972 101.000,201.985 101.078,201.893 101.208 C 201.717 101.456,201.712 101.841,201.881 102.112 C 202.000 102.302,201.477 102.536,200.500 102.731 C 200.271 102.777,200.732 102.790,201.525 102.760 L 202.966 102.706 203.062 103.184 C 203.115 103.448,203.119 103.763,203.072 103.886 C 203.025 104.009,203.061 104.305,203.152 104.543 C 203.271 104.858,203.261 105.000,203.117 105.060 C 202.986 105.113,202.975 105.189,203.083 105.279 C 203.175 105.355,203.249 105.679,203.248 106.000 C 203.247 106.321,203.312 106.677,203.393 106.792 C 203.489 106.927,203.465 107.000,203.322 107.000 C 203.188 107.000,203.229 107.096,203.426 107.247 C 203.684 107.443,203.705 107.524,203.528 107.640 C 203.286 107.800,203.720 108.083,204.112 108.022 C 204.220 108.005,204.363 108.080,204.430 108.188 C 204.511 108.320,204.479 108.340,204.333 108.250 C 204.186 108.159,204.155 108.180,204.239 108.316 C 204.334 108.469,204.418 108.470,204.598 108.321 C 204.728 108.214,204.833 108.195,204.833 108.280 C 204.833 108.365,205.138 108.426,205.510 108.416 C 205.883 108.407,206.224 108.458,206.268 108.530 C 206.374 108.701,293.626 108.701,293.732 108.530 C 293.776 108.458,294.117 108.407,294.490 108.416 C 294.862 108.426,295.167 108.365,295.167 108.280 C 295.167 108.195,295.272 108.214,295.402 108.321 C 295.582 108.470,295.666 108.469,295.761 108.316 C 295.845 108.180,295.814 108.159,295.667 108.250 C 295.521 108.340,295.489 108.320,295.570 108.188 C 295.637 108.080,295.780 108.005,295.888 108.022 C 296.280 108.083,296.714 107.800,296.472 107.640 C 296.295 107.524,296.316 107.443,296.574 107.247 C 296.771 107.096,296.812 107.000,296.678 107.000 C 296.535 107.000,296.511 106.927,296.607 106.792 C 296.688 106.677,296.753 106.321,296.752 106.000 C 296.751 105.679,296.825 105.355,296.917 105.279 C 297.025 105.189,297.014 105.113,296.883 105.060 C 296.739 105.000,296.729 104.858,296.848 104.543 C 296.939 104.305,296.975 104.009,296.928 103.886 C 296.881 103.763,296.885 103.448,296.938 103.184 L 297.034 102.706 298.475 102.760 C 299.268 102.790,299.729 102.777,299.500 102.731 C 298.508 102.534,297.987 102.299,298.120 102.110 C 298.287 101.871,298.283 101.484,298.111 101.208 C 298.038 101.092,298.056 101.000,298.153 101.000 C 298.272 101.000,298.326 86.923,298.326 55.833 C 298.326 23.072,298.276 10.667,298.143 10.667 C 298.028 10.667,298.015 10.588,298.107 10.458 C 298.283 10.211,298.288 9.825,298.119 9.555 C 298.000 9.365,298.523 9.130,299.500 8.936 C 299.729 8.890,299.268 8.877,298.475 8.907 L 297.034 8.961 296.938 8.482 C 296.885 8.219,296.881 7.903,296.928 7.781 C 296.975 7.658,296.939 7.362,296.848 7.123 C 296.729 6.809,296.739 6.666,296.883 6.607 C 297.014 6.554,297.025 6.477,296.917 6.388 C 296.825 6.312,296.751 5.987,296.752 5.667 C 296.753 5.346,296.688 4.990,296.607 4.875 C 296.511 4.739,296.535 4.667,296.678 4.667 C 296.812 4.667,296.771 4.571,296.574 4.420 C 296.316 4.223,296.295 4.143,296.472 4.026 C 296.714 3.867,296.280 3.583,295.888 3.645 C 295.780 3.662,295.637 3.587,295.570 3.479 C 295.489 3.347,295.521 3.326,295.667 3.417 C 295.814 3.508,295.845 3.487,295.761 3.351 C 295.666 3.197,295.582 3.196,295.402 3.346 C 295.272 3.453,295.167 3.471,295.167 3.387 C 295.167 3.302,294.862 3.241,294.490 3.250 C 294.117 3.260,293.776 3.209,293.732 3.137 C 293.626 2.965,206.374 2.965,206.268 3.137 M86.279 12.270 C 87.259 13.005,87.496 13.282,88.325 14.667 C 89.080 15.928,90.077 16.922,91.250 17.585 C 92.538 18.312,93.112 18.799,93.661 19.628 L 94.167 20.390 94.167 55.833 L 94.167 91.276 93.661 92.039 C 93.112 92.868,92.538 93.354,91.250 94.082 C 90.077 94.745,89.080 95.739,88.325 97.000 C 87.496 98.384,87.259 98.662,86.279 99.397 L 85.474 100.000 53.112 100.000 C 31.417 99.999,19.745 100.060,17.700 100.183 L 14.651 100.368 13.985 99.907 C 13.063 99.268,12.419 98.494,11.819 97.305 C 11.164 96.007,10.052 94.822,8.858 94.149 C 7.473 93.368,6.903 92.891,6.339 92.039 L 5.833 91.276 5.833 55.833 L 5.833 20.390 6.339 19.628 C 6.888 18.799,7.462 18.312,8.750 17.585 C 9.923 16.922,10.920 15.928,11.675 14.667 C 12.504 13.282,12.741 13.005,13.721 12.270 L 14.526 11.667 50.000 11.667 L 85.474 11.667 86.279 12.270 M286.279 12.270 C 287.259 13.005,287.496 13.282,288.325 14.667 C 289.080 15.928,290.077 16.922,291.250 17.585 C 292.538 18.312,293.112 18.799,293.661 19.628 L 294.167 20.390 294.167 55.833 L 294.167 91.276 293.661 92.039 C 293.112 92.868,292.538 93.354,291.250 94.082 C 290.077 94.745,289.080 95.739,288.325 97.000 C 287.496 98.384,287.259 98.662,286.279 99.397 L 285.474 100.000 250.000 100.000 L 214.526 100.000 213.721 99.397 C 212.741 98.662,212.504 98.384,211.675 97.000 C 210.920 95.739,209.923 94.745,208.750 94.082 C 207.462 93.354,206.888 92.868,206.339 92.039 L 205.833 91.276 205.833 55.833 L 205.833 20.390 206.339 19.628 C 206.888 18.799,207.462 18.312,208.750 17.585 C 209.923 16.922,210.920 15.928,211.675 14.667 C 212.504 13.282,212.741 13.005,213.721 12.270 L 214.526 11.667 250.000 11.667 L 285.474 11.667 286.279 12.270 M119.981 19.958 C 119.621 20.342,119.284 20.949,119.109 21.530 C 118.526 23.464,117.162 24.751,115.341 25.084 C 114.990 25.148,114.497 25.437,114.125 25.796 L 113.500 26.401 113.500 55.833 L 113.500 85.266 114.125 85.870 C 114.497 86.230,114.990 86.519,115.341 86.583 C 117.162 86.916,118.526 88.202,119.109 90.137 C 119.284 90.718,119.621 91.325,119.981 91.708 L 120.568 92.333 150.000 92.333 L 179.432 92.333 180.019 91.708 C 180.379 91.325,180.716 90.718,180.891 90.137 C 181.474 88.202,182.838 86.916,184.659 86.583 C 185.010 86.519,185.503 86.230,185.875 85.870 L 186.500 85.266 186.500 55.833 L 186.500 26.401 185.875 25.796 C 185.503 25.437,185.010 25.148,184.659 25.084 C 182.838 24.751,181.474 23.464,180.891 21.530 C 180.716 20.949,180.379 20.342,180.019 19.958 L 179.432 19.333 150.000 19.333 L 120.568 19.333 119.981 19.958 M319.981 19.958 C 319.621 20.342,319.284 20.949,319.109 21.530 C 318.526 23.464,317.162 24.751,315.341 25.084 C 314.990 25.148,314.497 25.437,314.125 25.796 L 313.500 26.401 313.500 55.833 L 313.500 85.266 314.125 85.870 C 314.497 86.230,314.990 86.519,315.341 86.583 C 317.162 86.916,318.526 88.202,319.109 90.137 C 319.284 90.718,319.621 91.325,319.981 91.708 L 320.568 92.333 350.000 92.333 L 379.432 92.333 380.019 91.708 C 380.379 91.325,380.716 90.718,380.891 90.137 C 381.474 88.202,382.838 86.916,384.659 86.583 C 385.010 86.519,385.503 86.230,385.875 85.870 L 386.500 85.266 386.500 55.833 L 386.500 26.401 385.875 25.796 C 385.503 25.437,385.010 25.148,384.659 25.084 C 382.838 24.751,381.474 23.464,380.891 21.530 C 380.716 20.949,380.379 20.342,380.019 19.958 L 379.432 19.333 350.000 19.333 L 320.568 19.333 319.981 19.958 M54.583 21.190 C 51.991 21.517,51.025 22.473,50.649 25.083 C 50.429 26.613,50.177 27.000,49.399 27.000 C 46.399 27.000,45.022 28.262,44.722 31.287 C 44.594 32.584,44.428 32.727,42.772 32.973 C 39.974 33.389,38.833 34.657,38.833 37.350 C 38.833 38.285,38.440 38.615,37.083 38.820 C 33.986 39.289,33.276 40.035,32.906 43.213 C 32.777 44.322,32.443 44.667,31.498 44.667 C 28.774 44.667,27.362 46.016,27.066 48.903 C 26.927 50.264,26.778 50.390,25.026 50.633 C 22.128 51.034,21.124 52.372,21.124 55.833 C 21.124 59.295,22.128 60.633,25.026 61.034 C 26.778 61.276,26.927 61.403,27.066 62.764 C 27.362 65.650,28.774 67.000,31.498 67.000 C 32.443 67.000,32.777 67.344,32.906 68.454 C 33.276 71.631,33.986 72.378,37.083 72.846 C 38.440 73.051,38.833 73.382,38.833 74.317 C 38.833 77.009,39.974 78.277,42.772 78.693 C 44.290 78.919,44.667 79.166,44.667 79.934 C 44.667 82.935,45.929 84.312,48.954 84.611 C 50.260 84.741,50.409 84.914,50.649 86.583 C 51.140 89.997,52.483 90.667,58.833 90.667 C 65.177 90.667,66.488 90.013,67.006 86.593 C 67.263 84.899,67.403 84.739,68.748 84.614 C 71.951 84.315,73.212 82.561,72.951 78.768 C 72.723 75.442,71.779 74.404,68.667 74.058 C 67.480 73.926,67.228 73.687,67.087 72.556 C 66.690 69.379,65.419 68.167,62.484 68.167 C 61.661 68.167,61.238 67.586,61.117 66.290 C 60.869 63.633,59.920 62.697,57.112 62.339 C 55.644 62.153,55.406 61.928,55.270 60.601 C 54.974 57.709,54.000 56.760,50.963 56.407 C 50.439 56.346,49.924 56.192,49.818 56.065 C 49.497 55.678,49.919 55.381,50.963 55.260 C 54.000 54.906,54.974 53.958,55.270 51.066 C 55.406 49.739,55.644 49.514,57.112 49.327 C 59.920 48.970,60.869 48.034,61.117 45.377 C 61.238 44.081,61.661 43.500,62.484 43.500 C 65.419 43.500,66.690 42.287,67.087 39.110 C 67.228 37.980,67.480 37.741,68.667 37.609 C 71.779 37.262,72.723 36.225,72.951 32.899 C 73.212 29.106,71.951 27.352,68.748 27.053 C 67.403 26.927,67.263 26.768,67.006 25.074 C 66.596 22.368,65.690 21.520,62.838 21.172 C 61.171 20.969,56.246 20.979,54.583 21.190 M236.917 21.190 C 234.336 21.516,233.391 22.451,232.994 25.074 C 232.737 26.768,232.597 26.927,231.252 27.053 C 228.049 27.352,226.788 29.106,227.049 32.899 C 227.277 36.225,228.221 37.262,231.333 37.609 C 232.520 37.741,232.772 37.980,232.913 39.110 C 233.310 42.287,234.581 43.500,237.516 43.500 C 238.339 43.500,238.762 44.081,238.883 45.377 C 239.131 48.034,240.080 48.970,242.888 49.327 C 244.356 49.514,244.594 49.739,244.730 51.066 C 245.026 53.958,246.000 54.906,249.037 55.260 C 249.561 55.321,250.076 55.475,250.182 55.602 C 250.503 55.989,250.081 56.286,249.037 56.407 C 246.000 56.760,245.026 57.709,244.730 60.601 C 244.594 61.928,244.356 62.153,242.888 62.339 C 240.080 62.697,239.131 63.633,238.883 66.290 C 238.762 67.586,238.339 68.167,237.516 68.167 C 234.581 68.167,233.310 69.379,232.913 72.556 C 232.772 73.687,232.520 73.926,231.333 74.058 C 228.221 74.404,227.277 75.442,227.049 78.768 C 226.788 82.561,228.049 84.315,231.252 84.614 C 232.597 84.739,232.737 84.899,232.994 86.593 C 233.512 90.013,234.823 90.667,241.167 90.667 C 247.517 90.667,248.860 89.997,249.351 86.583 C 249.591 84.914,249.740 84.741,251.046 84.611 C 254.071 84.312,255.333 82.935,255.333 79.934 C 255.333 79.166,255.710 78.919,257.228 78.693 C 260.026 78.277,261.167 77.009,261.167 74.317 C 261.167 73.382,261.560 73.051,262.917 72.846 C 266.014 72.378,266.724 71.631,267.094 68.454 C 267.223 67.344,267.557 67.000,268.502 67.000 C 271.226 67.000,272.638 65.650,272.934 62.764 C 273.073 61.403,273.222 61.276,274.974 61.034 C 277.872 60.633,278.876 59.295,278.876 55.833 C 278.876 52.372,277.872 51.034,274.974 50.633 C 273.222 50.390,273.073 50.264,272.934 48.903 C 272.638 46.016,271.226 44.667,268.502 44.667 C 267.557 44.667,267.223 44.322,267.094 43.213 C 266.724 40.035,266.014 39.289,262.917 38.820 C 261.560 38.615,261.167 38.285,261.167 37.350 C 261.167 34.657,260.026 33.389,257.228 32.973 C 255.572 32.727,255.406 32.584,255.278 31.287 C 254.978 28.262,253.601 27.000,250.601 27.000 C 249.823 27.000,249.571 26.613,249.351 25.083 C 248.963 22.390,248.035 21.521,245.171 21.172 C 243.505 20.969,238.579 20.979,236.917 21.190 M163.091 21.669 C 165.282 22.229,166.105 23.075,166.592 25.266 C 166.938 26.822,167.300 27.199,168.715 27.481 C 171.583 28.051,173.092 30.394,172.506 33.371 C 172.047 35.702,171.074 36.666,168.653 37.185 C 167.463 37.440,167.036 37.744,166.840 38.477 C 166.750 38.810,166.559 39.518,166.415 40.049 C 165.967 41.700,164.660 42.761,162.670 43.087 C 161.321 43.308,161.132 43.544,160.586 45.696 C 160.123 47.516,158.915 48.601,157.000 48.916 C 155.518 49.160,155.188 49.501,154.823 51.167 C 154.401 53.088,153.493 54.141,151.874 54.590 C 149.415 55.270,149.046 55.502,149.433 56.125 C 149.611 56.411,149.956 56.546,151.874 57.077 C 153.493 57.525,154.401 58.579,154.823 60.500 C 155.188 62.166,155.518 62.507,157.000 62.751 C 158.915 63.066,160.123 64.151,160.586 65.971 C 161.132 68.123,161.321 68.359,162.670 68.580 C 164.660 68.906,165.967 69.966,166.415 71.618 C 166.559 72.149,166.750 72.856,166.840 73.190 C 167.036 73.922,167.463 74.226,168.653 74.482 C 171.074 75.001,172.047 75.964,172.506 78.296 C 173.092 81.273,171.583 83.616,168.715 84.186 C 167.300 84.467,166.938 84.844,166.592 86.400 C 165.899 89.518,164.290 90.334,158.848 90.332 C 153.258 90.330,151.636 89.468,150.984 86.153 C 150.735 84.887,150.276 84.477,148.709 84.116 C 146.518 83.612,145.720 82.810,145.212 80.603 C 144.857 79.059,144.441 78.597,143.180 78.349 C 140.850 77.891,139.847 76.947,139.315 74.715 C 138.924 73.074,138.585 72.725,137.075 72.409 C 134.864 71.946,133.925 71.009,133.411 68.750 C 133.120 67.471,132.537 66.667,131.900 66.667 C 129.687 66.667,128.010 65.177,127.494 62.750 C 127.227 61.496,126.720 60.910,125.779 60.765 C 123.536 60.419,122.400 59.546,121.843 57.742 C 120.742 54.179,122.321 51.435,125.779 50.902 C 126.720 50.757,127.227 50.170,127.494 48.917 C 128.010 46.490,129.687 45.000,131.900 45.000 C 132.537 45.000,133.120 44.196,133.411 42.917 C 133.925 40.658,134.864 39.720,137.075 39.258 C 138.585 38.942,138.924 38.593,139.315 36.952 C 139.847 34.719,140.850 33.776,143.180 33.317 C 144.441 33.069,144.857 32.608,145.212 31.064 C 145.720 28.857,146.518 28.055,148.709 27.551 C 150.276 27.190,150.735 26.779,150.984 25.513 C 151.636 22.197,153.184 21.368,158.765 21.346 C 161.268 21.335,162.002 21.390,163.091 21.669 M345.373 21.645 C 347.615 22.181,348.557 23.181,349.016 25.513 C 349.264 26.774,349.725 27.190,351.269 27.545 C 353.476 28.053,354.278 28.851,354.783 31.042 C 355.143 32.610,355.554 33.068,356.820 33.317 C 359.150 33.776,360.153 34.719,360.685 36.952 C 361.076 38.593,361.415 38.942,362.925 39.258 C 365.136 39.720,366.075 40.658,366.589 42.917 C 366.880 44.196,367.463 45.000,368.100 45.000 C 370.313 45.000,371.990 46.490,372.506 48.917 C 372.773 50.170,373.280 50.757,374.221 50.902 C 376.464 51.248,377.600 52.121,378.157 53.925 C 379.258 57.488,377.679 60.231,374.221 60.765 C 373.280 60.910,372.773 61.496,372.506 62.750 C 371.990 65.177,370.313 66.667,368.100 66.667 C 367.463 66.667,366.880 67.471,366.589 68.750 C 366.075 71.009,365.136 71.946,362.925 72.409 C 361.415 72.725,361.076 73.074,360.685 74.715 C 360.153 76.947,359.150 77.891,356.820 78.349 C 355.559 78.597,355.143 79.059,354.788 80.603 C 354.280 82.810,353.482 83.612,351.291 84.116 C 349.724 84.477,349.265 84.887,349.016 86.153 C 348.364 89.468,346.742 90.330,341.152 90.332 C 335.710 90.334,334.101 89.518,333.408 86.400 C 333.062 84.844,332.700 84.467,331.285 84.186 C 328.417 83.616,326.908 81.273,327.494 78.296 C 327.953 75.964,328.926 75.001,331.347 74.482 C 332.537 74.226,332.964 73.922,333.160 73.190 C 333.250 72.856,333.441 72.149,333.585 71.618 C 334.033 69.966,335.340 68.906,337.330 68.580 C 338.679 68.359,338.868 68.123,339.414 65.971 C 339.877 64.151,341.085 63.066,343.000 62.751 C 344.482 62.507,344.812 62.166,345.177 60.500 C 345.599 58.579,346.507 57.525,348.126 57.077 C 350.585 56.396,350.954 56.164,350.567 55.542 C 350.389 55.255,350.044 55.121,348.126 54.590 C 346.507 54.141,345.599 53.088,345.177 51.167 C 344.812 49.501,344.482 49.160,343.000 48.916 C 341.085 48.601,339.877 47.516,339.414 45.696 C 338.868 43.544,338.679 43.308,337.330 43.087 C 335.340 42.761,334.033 41.700,333.585 40.049 C 333.441 39.518,333.250 38.810,333.160 38.477 C 332.964 37.744,332.537 37.440,331.347 37.185 C 328.926 36.666,327.953 35.702,327.494 33.371 C 326.908 30.394,328.417 28.051,331.285 27.481 C 332.700 27.199,333.062 26.822,333.408 25.266 C 334.102 22.146,335.644 21.358,341.083 21.344 C 343.449 21.338,344.356 21.401,345.373 21.645 M62.964 22.902 C 64.051 23.459,64.896 24.389,65.476 25.667 C 66.119 27.085,66.914 27.875,68.412 28.587 C 69.833 29.261,70.947 30.377,71.411 31.590 L 71.709 32.373 71.244 33.346 C 70.590 34.714,68.676 36.333,67.712 36.333 C 67.307 36.333,65.949 37.965,65.440 39.063 C 64.782 40.483,63.907 41.332,62.407 42.004 C 61.105 42.589,60.023 43.675,59.627 44.795 C 59.192 46.028,58.182 47.067,56.745 47.758 C 55.618 48.300,54.000 49.648,54.000 50.045 C 54.000 51.088,52.415 52.890,50.855 53.620 C 49.749 54.138,48.167 55.441,48.167 55.833 C 48.167 56.226,49.749 57.529,50.855 58.047 C 52.415 58.777,54.000 60.579,54.000 61.622 C 54.000 62.018,55.618 63.367,56.745 63.909 C 58.182 64.600,59.192 65.638,59.627 66.872 C 60.023 67.992,61.105 69.078,62.407 69.662 C 63.907 70.335,64.782 71.184,65.440 72.604 C 65.949 73.701,67.307 75.333,67.712 75.333 C 68.676 75.333,70.590 76.952,71.244 78.321 L 71.709 79.294 71.411 80.076 C 70.947 81.290,69.833 82.406,68.412 83.080 C 66.914 83.791,66.119 84.582,65.476 86.000 C 64.261 88.678,63.237 89.167,58.833 89.167 C 54.379 89.167,53.021 88.494,52.080 85.822 C 51.708 84.768,50.630 83.731,49.239 83.090 C 47.769 82.412,46.939 81.580,46.244 80.083 C 45.583 78.661,44.774 77.863,43.285 77.166 C 41.857 76.498,41.097 75.728,40.404 74.250 C 39.763 72.883,38.735 71.814,37.667 71.400 C 36.106 70.797,34.956 69.622,34.337 68.000 C 33.976 67.051,32.870 66.021,31.569 65.422 C 30.076 64.733,29.266 63.924,28.579 62.431 C 27.920 61.000,27.127 60.218,25.619 59.509 C 21.654 57.645,21.654 54.021,25.619 52.158 C 27.127 51.449,27.920 50.667,28.579 49.236 C 29.266 47.743,30.076 46.933,31.569 46.245 C 32.870 45.646,33.976 44.616,34.337 43.667 C 34.956 42.044,36.106 40.870,37.667 40.266 C 38.735 39.853,39.763 38.783,40.404 37.417 C 41.097 35.939,41.857 35.169,43.285 34.501 C 44.774 33.804,45.583 33.006,46.244 31.583 C 46.939 30.087,47.769 29.255,49.239 28.577 C 50.635 27.934,51.709 26.898,52.083 25.833 C 52.523 24.582,53.398 23.610,54.739 22.883 C 55.822 22.295,61.806 22.310,62.964 22.902 M245.297 22.902 C 246.559 23.547,247.472 24.571,247.920 25.845 C 248.292 26.899,249.370 27.936,250.761 28.577 C 252.231 29.255,253.061 30.087,253.756 31.583 C 254.417 33.006,255.226 33.804,256.715 34.501 C 258.143 35.169,258.903 35.939,259.596 37.417 C 260.237 38.783,261.265 39.853,262.333 40.266 C 263.894 40.870,265.044 42.044,265.663 43.667 C 266.024 44.616,267.130 45.646,268.431 46.245 C 269.924 46.933,270.734 47.743,271.421 49.236 C 272.080 50.667,272.873 51.449,274.381 52.158 C 278.346 54.021,278.346 57.645,274.381 59.509 C 272.873 60.218,272.080 61.000,271.421 62.431 C 270.734 63.924,269.924 64.733,268.431 65.422 C 267.130 66.021,266.024 67.051,265.663 68.000 C 265.044 69.622,263.894 70.797,262.333 71.400 C 261.265 71.814,260.237 72.883,259.596 74.250 C 258.903 75.728,258.143 76.498,256.715 77.166 C 255.226 77.863,254.417 78.661,253.756 80.083 C 253.061 81.580,252.231 82.412,250.761 83.090 C 249.370 83.731,248.292 84.768,247.920 85.822 C 246.979 88.494,245.621 89.167,241.167 89.167 C 236.763 89.167,235.739 88.678,234.524 86.000 C 233.881 84.582,233.086 83.791,231.588 83.080 C 230.167 82.406,229.053 81.290,228.589 80.076 L 228.291 79.294 228.756 78.321 C 229.410 76.952,231.324 75.333,232.288 75.333 C 232.693 75.333,234.051 73.701,234.560 72.604 C 235.218 71.184,236.093 70.335,237.593 69.662 C 238.895 69.078,239.977 67.992,240.373 66.872 C 240.808 65.638,241.818 64.600,243.255 63.909 C 244.382 63.367,246.000 62.018,246.000 61.622 C 246.000 60.579,247.585 58.777,249.145 58.047 C 250.251 57.529,251.833 56.226,251.833 55.833 C 251.833 55.441,250.251 54.138,249.145 53.620 C 247.585 52.890,246.000 51.088,246.000 50.045 C 246.000 49.648,244.382 48.300,243.255 47.758 C 241.818 47.067,240.808 46.028,240.373 44.795 C 239.977 43.675,238.895 42.589,237.593 42.004 C 236.093 41.332,235.218 40.483,234.560 39.063 C 234.051 37.965,232.693 36.333,232.288 36.333 C 231.324 36.333,229.410 34.714,228.756 33.346 L 228.291 32.373 228.589 31.590 C 229.053 30.377,230.167 29.261,231.588 28.587 C 233.098 27.870,233.864 27.100,234.574 25.586 C 235.162 24.333,236.008 23.414,237.083 22.859 C 238.176 22.295,244.171 22.326,245.297 22.902 " stroke="none" fill="#e4ecfc" fill-rule="evenodd"></path><path id="path1" d="M103.200 3.200 C 103.061 3.339,103.000 4.226,103.000 6.117 L 103.000 8.833 102.000 8.833 C 101.444 8.833,101.000 8.907,101.000 9.000 C 101.000 9.092,100.869 9.168,100.708 9.169 C 100.544 9.171,100.489 9.225,100.583 9.294 C 100.694 9.375,100.750 25.082,100.750 55.833 C 100.750 86.585,100.694 102.291,100.583 102.372 C 100.489 102.442,100.544 102.496,100.708 102.497 C 100.869 102.499,101.000 102.575,101.000 102.667 C 101.000 102.759,101.444 102.833,102.000 102.833 L 103.000 102.833 103.000 105.550 C 103.000 107.441,103.061 108.327,103.200 108.467 C 103.491 108.758,196.509 108.758,196.800 108.467 C 196.939 108.327,197.000 107.441,197.000 105.550 L 197.000 102.833 198.000 102.833 C 198.556 102.833,199.000 102.759,199.000 102.667 C 199.000 102.575,199.131 102.499,199.292 102.497 C 199.456 102.496,199.511 102.442,199.417 102.372 C 199.306 102.291,199.250 86.585,199.250 55.833 C 199.250 25.082,199.306 9.375,199.417 9.294 C 199.511 9.225,199.456 9.171,199.292 9.169 C 199.131 9.168,199.000 9.092,199.000 9.000 C 199.000 8.907,198.556 8.833,198.000 8.833 L 197.000 8.833 197.000 6.117 C 197.000 4.226,196.939 3.339,196.800 3.200 C 196.509 2.909,103.491 2.909,103.200 3.200 M303.200 3.200 C 303.061 3.339,303.000 4.226,303.000 6.117 L 303.000 8.833 302.000 8.833 C 301.444 8.833,301.000 8.907,301.000 9.000 C 301.000 9.092,300.869 9.168,300.708 9.169 C 300.544 9.171,300.489 9.225,300.583 9.294 C 300.694 9.375,300.750 25.082,300.750 55.833 C 300.750 86.585,300.694 102.291,300.583 102.372 C 300.489 102.442,300.544 102.496,300.708 102.497 C 300.869 102.499,301.000 102.575,301.000 102.667 C 301.000 102.759,301.444 102.833,302.000 102.833 L 303.000 102.833 303.000 105.550 C 303.000 107.441,303.061 108.327,303.200 108.467 C 303.491 108.758,396.509 108.758,396.800 108.467 C 396.939 108.327,397.000 107.441,397.000 105.550 L 397.000 102.833 398.500 102.833 L 400.000 102.833 400.000 55.833 L 400.000 8.833 398.500 8.833 L 397.000 8.833 397.000 6.117 C 397.000 4.226,396.939 3.339,396.800 3.200 C 396.509 2.909,303.491 2.909,303.200 3.200 M180.048 17.187 C 181.311 17.823,182.120 18.614,182.689 19.771 C 183.423 21.260,184.447 22.357,185.621 22.912 C 187.011 23.567,187.865 24.334,188.469 25.468 L 189.000 26.463 189.000 55.833 L 189.000 85.203 188.469 86.199 C 187.865 87.333,187.011 88.099,185.621 88.755 C 184.447 89.310,183.423 90.407,182.689 91.896 C 182.120 93.052,181.311 93.844,180.048 94.480 L 179.347 94.833 150.000 94.833 L 120.653 94.833 119.952 94.480 C 118.689 93.844,117.880 93.052,117.311 91.896 C 116.577 90.407,115.553 89.310,114.379 88.755 C 112.989 88.099,112.135 87.333,111.531 86.199 L 111.000 85.203 111.000 55.833 L 111.000 26.463 111.531 25.468 C 112.135 24.334,112.989 23.567,114.379 22.912 C 115.553 22.357,116.577 21.260,117.311 19.771 C 117.872 18.631,118.669 17.843,119.917 17.195 L 120.583 16.848 149.965 16.841 L 179.347 16.833 180.048 17.187 M380.048 17.187 C 381.311 17.823,382.120 18.614,382.689 19.771 C 383.423 21.260,384.447 22.357,385.621 22.912 C 387.011 23.567,387.865 24.334,388.469 25.468 L 389.000 26.463 389.000 55.833 L 389.000 85.203 388.469 86.199 C 387.865 87.333,387.011 88.099,385.621 88.755 C 384.447 89.310,383.423 90.407,382.689 91.896 C 382.120 93.052,381.311 93.844,380.048 94.480 L 379.347 94.833 350.000 94.833 L 320.653 94.833 319.952 94.480 C 318.689 93.844,317.880 93.052,317.311 91.896 C 316.577 90.407,315.553 89.310,314.379 88.755 C 312.989 88.099,312.135 87.333,311.531 86.199 L 311.000 85.203 311.000 55.833 L 311.000 26.463 311.531 25.468 C 312.135 24.334,312.989 23.567,314.379 22.912 C 315.553 22.357,316.577 21.260,317.311 19.771 C 317.872 18.631,318.669 17.843,319.917 17.195 L 320.583 16.848 349.965 16.841 L 379.347 16.833 380.048 17.187 M154.724 23.329 C 153.743 23.892,152.834 24.922,152.361 26.005 C 151.849 27.181,150.988 28.033,149.509 28.828 C 147.924 29.681,147.276 30.342,146.413 31.986 C 145.691 33.359,144.866 34.140,143.396 34.843 C 142.167 35.430,141.420 36.220,140.579 37.819 C 139.863 39.183,139.048 39.958,137.564 40.689 C 136.287 41.317,135.501 42.119,134.830 43.476 C 134.157 44.837,133.192 45.794,131.696 46.579 C 130.311 47.307,129.546 48.088,128.833 49.500 C 128.186 50.782,127.282 51.686,126.000 52.333 C 124.663 53.008,123.810 53.804,123.228 54.918 L 122.750 55.833 123.228 56.748 C 123.810 57.863,124.663 58.658,126.000 59.333 C 127.282 59.980,128.186 60.885,128.833 62.167 C 129.546 63.579,130.311 64.360,131.696 65.087 C 133.192 65.873,134.157 66.829,134.830 68.190 C 135.501 69.548,136.287 70.349,137.564 70.978 C 139.048 71.709,139.863 72.484,140.579 73.848 C 141.420 75.447,142.167 76.237,143.396 76.824 C 144.866 77.527,145.691 78.307,146.413 79.681 C 147.276 81.324,147.924 81.985,149.509 82.838 C 150.988 83.634,151.849 84.486,152.361 85.661 C 152.834 86.745,153.743 87.775,154.724 88.337 L 155.583 88.830 158.833 88.830 L 162.083 88.830 162.941 88.338 C 163.968 87.749,164.601 87.015,165.325 85.575 C 165.966 84.300,166.973 83.356,168.437 82.657 C 169.584 82.110,170.519 81.168,171.025 80.049 C 171.580 78.824,170.305 76.896,168.320 75.957 C 166.979 75.323,165.950 74.335,165.317 73.075 C 164.526 71.502,163.843 70.788,162.460 70.089 C 160.966 69.334,159.980 68.394,159.406 67.179 C 158.726 65.737,157.991 64.957,156.645 64.250 C 155.057 63.416,154.148 62.553,153.515 61.280 C 152.741 59.724,152.158 59.119,150.701 58.361 C 149.467 57.719,147.833 56.279,147.833 55.833 C 147.833 55.387,149.467 53.947,150.701 53.305 C 152.158 52.547,152.741 51.942,153.515 50.386 C 154.148 49.113,155.057 48.251,156.645 47.416 C 157.991 46.709,158.726 45.929,159.406 44.487 C 159.980 43.273,160.966 42.333,162.460 41.578 C 163.843 40.879,164.526 40.165,165.317 38.591 C 165.950 37.332,166.979 36.344,168.320 35.710 C 170.305 34.771,171.580 32.842,171.025 31.617 C 170.519 30.499,169.584 29.557,168.437 29.010 C 166.973 28.311,165.966 27.367,165.325 26.092 C 164.601 24.651,163.968 23.917,162.941 23.328 L 162.083 22.836 158.833 22.836 L 155.583 22.836 154.724 23.329 M337.059 23.328 C 336.032 23.917,335.399 24.651,334.675 26.092 C 334.034 27.367,333.027 28.311,331.563 29.010 C 330.416 29.557,329.481 30.499,328.975 31.617 C 328.420 32.842,329.695 34.771,331.680 35.710 C 333.021 36.344,334.050 37.332,334.683 38.591 C 335.474 40.165,336.157 40.879,337.540 41.578 C 339.034 42.333,340.020 43.273,340.594 44.487 C 341.274 45.929,342.009 46.709,343.355 47.416 C 344.943 48.251,345.852 49.113,346.485 50.386 C 347.259 51.942,347.842 52.547,349.299 53.305 C 350.533 53.947,352.167 55.387,352.167 55.833 C 352.167 56.279,350.533 57.719,349.299 58.361 C 347.842 59.119,347.259 59.724,346.485 61.280 C 345.852 62.553,344.943 63.416,343.355 64.250 C 342.009 64.957,341.274 65.737,340.594 67.179 C 340.020 68.394,339.034 69.334,337.540 70.089 C 336.157 70.788,335.474 71.502,334.683 73.075 C 334.050 74.335,333.021 75.323,331.680 75.957 C 329.695 76.896,328.420 78.824,328.975 80.049 C 329.481 81.168,330.416 82.110,331.563 82.657 C 333.027 83.356,334.034 84.300,334.675 85.575 C 335.399 87.015,336.032 87.749,337.059 88.338 L 337.917 88.830 341.167 88.830 L 344.417 88.830 345.276 88.337 C 346.257 87.775,347.166 86.745,347.639 85.661 C 348.151 84.486,349.012 83.634,350.491 82.838 C 352.076 81.985,352.724 81.324,353.587 79.681 C 354.309 78.307,355.134 77.527,356.604 76.824 C 357.833 76.237,358.580 75.447,359.421 73.848 C 360.137 72.484,360.952 71.709,362.436 70.978 C 363.713 70.349,364.499 69.548,365.170 68.190 C 365.843 66.829,366.808 65.873,368.304 65.087 C 369.689 64.360,370.454 63.579,371.167 62.167 C 371.814 60.885,372.718 59.980,374.000 59.333 C 375.337 58.658,376.190 57.863,376.772 56.748 L 377.250 55.833 376.772 54.918 C 376.190 53.804,375.337 53.008,374.000 52.333 C 372.688 51.671,371.851 50.817,371.083 49.354 C 370.358 47.976,369.577 47.212,368.158 46.496 C 366.844 45.832,365.826 44.804,365.170 43.476 C 364.499 42.119,363.713 41.317,362.436 40.689 C 360.952 39.958,360.137 39.183,359.421 37.819 C 358.580 36.220,357.833 35.430,356.604 34.843 C 355.102 34.125,354.333 33.380,353.505 31.843 C 352.652 30.258,351.991 29.610,350.348 28.746 C 349.029 28.053,348.139 27.153,347.639 26.005 C 347.166 24.922,346.257 23.892,345.276 23.329 L 344.417 22.836 341.167 22.836 L 337.917 22.836 337.059 23.328 M54.823 25.511 C 54.370 25.976,54.000 26.430,54.000 26.522 C 54.000 27.640,52.380 29.413,50.576 30.269 C 49.200 30.923,48.453 31.691,47.849 33.074 C 47.173 34.625,46.048 35.692,44.585 36.169 C 43.637 36.478,42.329 37.879,41.940 39.002 C 41.527 40.197,40.207 41.502,38.974 41.935 C 37.955 42.293,36.450 43.679,36.261 44.432 C 35.914 45.817,34.712 47.103,33.083 47.833 C 31.594 48.502,30.952 49.144,30.199 50.721 C 29.428 52.336,28.794 52.954,27.066 53.774 C 25.993 54.284,24.667 55.422,24.667 55.833 C 24.667 56.245,25.993 57.383,27.066 57.893 C 28.794 58.713,29.428 59.331,30.199 60.945 C 30.952 62.523,31.594 63.165,33.083 63.833 C 34.712 64.564,35.914 65.850,36.261 67.234 C 36.450 67.988,37.955 69.373,38.974 69.731 C 40.207 70.165,41.527 71.470,41.940 72.664 C 42.329 73.788,43.637 75.189,44.585 75.498 C 46.048 75.975,47.173 77.042,47.849 78.593 C 48.453 79.976,49.200 80.744,50.576 81.397 C 52.380 82.253,54.000 84.027,54.000 85.145 C 54.000 85.236,54.370 85.691,54.823 86.156 L 55.645 87.000 58.833 87.000 L 62.022 87.000 62.802 86.194 C 63.281 85.699,63.695 85.065,63.873 84.553 C 64.308 83.296,65.308 82.272,66.798 81.555 C 67.913 81.019,69.500 79.723,69.500 79.349 C 69.500 78.983,67.781 77.578,66.748 77.100 C 65.374 76.463,64.338 75.396,63.866 74.130 C 63.443 72.997,62.345 71.928,60.918 71.258 C 59.487 70.587,58.671 69.759,58.017 68.315 C 57.417 66.990,56.323 65.886,55.194 65.464 C 53.785 64.939,52.495 63.593,52.024 62.159 C 51.751 61.328,50.447 60.132,49.152 59.524 C 45.220 57.679,45.220 53.988,49.152 52.143 C 50.447 51.535,51.751 50.339,52.024 49.508 C 52.495 48.073,53.785 46.728,55.194 46.202 C 56.336 45.776,57.400 44.691,58.065 43.273 C 58.743 41.827,59.568 41.007,61.000 40.358 C 62.338 39.751,63.447 38.659,63.866 37.536 C 64.338 36.271,65.374 35.203,66.748 34.567 C 67.781 34.089,69.500 32.684,69.500 32.318 C 69.500 31.944,67.913 30.648,66.798 30.112 C 65.308 29.395,64.308 28.371,63.873 27.113 C 63.695 26.602,63.281 25.967,62.802 25.473 L 62.022 24.667 58.833 24.667 L 55.645 24.667 54.823 25.511 M237.198 25.473 C 236.719 25.967,236.305 26.602,236.127 27.113 C 235.692 28.371,234.692 29.395,233.202 30.112 C 232.087 30.648,230.500 31.944,230.500 32.318 C 230.500 32.684,232.219 34.089,233.252 34.567 C 234.626 35.203,235.662 36.271,236.134 37.536 C 236.553 38.659,237.662 39.751,239.000 40.358 C 240.432 41.007,241.257 41.827,241.935 43.273 C 242.600 44.691,243.664 45.776,244.806 46.202 C 246.215 46.728,247.505 48.073,247.976 49.508 C 248.249 50.339,249.553 51.535,250.848 52.143 C 252.156 52.757,253.313 53.916,253.745 55.046 C 254.310 56.526,253.034 58.498,250.848 59.524 C 249.553 60.132,248.249 61.328,247.976 62.159 C 247.505 63.593,246.215 64.939,244.806 65.464 C 243.677 65.886,242.583 66.990,241.983 68.315 C 241.329 69.759,240.513 70.587,239.082 71.258 C 237.655 71.928,236.557 72.997,236.134 74.130 C 235.662 75.396,234.626 76.463,233.252 77.100 C 232.219 77.578,230.500 78.983,230.500 79.349 C 230.500 79.723,232.087 81.019,233.202 81.555 C 234.692 82.272,235.692 83.296,236.127 84.553 C 236.305 85.065,236.719 85.699,237.198 86.194 L 237.978 87.000 241.167 87.000 L 244.355 87.000 245.177 86.156 C 245.630 85.691,246.000 85.236,246.000 85.145 C 246.000 84.027,247.620 82.253,249.424 81.397 C 250.800 80.744,251.547 79.976,252.151 78.593 C 252.827 77.042,253.952 75.975,255.415 75.498 C 256.363 75.189,257.671 73.788,258.060 72.664 C 258.473 71.470,259.793 70.165,261.026 69.731 C 262.045 69.373,263.550 67.988,263.739 67.234 C 264.086 65.850,265.288 64.564,266.917 63.833 C 268.406 63.165,269.048 62.523,269.801 60.945 C 270.572 59.331,271.206 58.713,272.934 57.893 C 274.007 57.383,275.333 56.245,275.333 55.833 C 275.333 55.422,274.007 54.284,272.934 53.774 C 271.206 52.954,270.572 52.336,269.801 50.721 C 269.048 49.144,268.406 48.502,266.917 47.833 C 265.288 47.103,264.086 45.817,263.739 44.432 C 263.550 43.679,262.045 42.293,261.026 41.935 C 259.793 41.502,258.473 40.197,258.060 39.002 C 257.671 37.879,256.363 36.478,255.415 36.169 C 253.952 35.692,252.827 34.625,252.151 33.074 C 251.547 31.691,250.800 30.923,249.424 30.269 C 247.620 29.413,246.000 27.640,246.000 26.522 C 246.000 26.430,245.630 25.976,245.177 25.511 L 244.355 24.667 241.167 24.667 L 237.978 24.667 237.198 25.473 " stroke="none" fill="#4168df" fill-rule="evenodd"></path><path id="path2" d="M3.582 3.165 C 3.639 3.257,3.577 3.288,3.440 3.236 C 3.026 3.077,2.796 5.188,3.201 5.438 C 3.322 5.513,3.355 5.463,3.291 5.298 C 3.237 5.156,3.277 4.956,3.380 4.854 C 3.518 4.715,3.504 4.665,3.325 4.662 C 3.145 4.658,3.158 4.613,3.375 4.487 C 3.697 4.299,3.767 4.000,3.490 4.000 C 3.393 4.000,3.367 4.087,3.433 4.192 C 3.509 4.315,3.478 4.339,3.348 4.259 C 3.070 4.087,3.641 3.455,3.963 3.578 C 4.289 3.703,4.503 3.536,4.392 3.245 C 4.340 3.110,4.114 3.000,3.889 3.000 C 3.662 3.000,3.526 3.073,3.582 3.165 M4.619 3.283 C 4.681 3.445,4.755 3.485,4.791 3.376 C 4.826 3.271,4.963 3.227,5.094 3.277 C 5.226 3.328,5.333 3.286,5.333 3.184 C 5.333 3.083,5.148 3.000,4.922 3.000 C 4.603 3.000,4.535 3.064,4.619 3.283 M5.601 3.138 C 5.500 3.302,6.108 3.281,6.274 3.115 C 6.337 3.052,6.231 3.000,6.038 3.000 C 5.844 3.000,5.648 3.062,5.601 3.138 M93.726 3.115 C 93.892 3.281,94.500 3.302,94.399 3.138 C 94.352 3.062,94.156 3.000,93.962 3.000 C 93.769 3.000,93.663 3.052,93.726 3.115 M94.667 3.184 C 94.667 3.286,94.774 3.328,94.906 3.277 C 95.037 3.227,95.174 3.271,95.209 3.376 C 95.245 3.485,95.319 3.445,95.381 3.283 C 95.465 3.064,95.397 3.000,95.078 3.000 C 94.852 3.000,94.667 3.083,94.667 3.184 M95.608 3.245 C 95.497 3.536,95.711 3.703,96.037 3.578 C 96.359 3.455,96.930 4.087,96.652 4.259 C 96.522 4.339,96.491 4.315,96.567 4.192 C 96.633 4.087,96.607 4.000,96.510 4.000 C 96.233 4.000,96.303 4.299,96.625 4.487 C 96.842 4.613,96.855 4.658,96.675 4.662 C 96.496 4.665,96.482 4.715,96.620 4.854 C 96.723 4.956,96.763 5.156,96.709 5.298 C 96.645 5.463,96.678 5.513,96.799 5.438 C 97.204 5.188,96.974 3.077,96.560 3.236 C 96.423 3.288,96.361 3.257,96.418 3.165 C 96.474 3.073,96.338 3.000,96.111 3.000 C 95.886 3.000,95.660 3.110,95.608 3.245 M203.582 3.165 C 203.639 3.257,203.577 3.288,203.440 3.236 C 203.026 3.077,202.796 5.188,203.201 5.438 C 203.322 5.513,203.355 5.463,203.291 5.298 C 203.237 5.156,203.277 4.956,203.380 4.854 C 203.518 4.715,203.504 4.665,203.325 4.662 C 203.145 4.658,203.158 4.613,203.375 4.487 C 203.697 4.299,203.767 4.000,203.490 4.000 C 203.393 4.000,203.367 4.087,203.433 4.192 C 203.509 4.315,203.478 4.339,203.348 4.259 C 203.070 4.087,203.641 3.455,203.963 3.578 C 204.289 3.703,204.503 3.536,204.392 3.245 C 204.340 3.110,204.114 3.000,203.889 3.000 C 203.662 3.000,203.526 3.073,203.582 3.165 M204.619 3.283 C 204.681 3.445,204.755 3.485,204.791 3.376 C 204.826 3.271,204.963 3.227,205.094 3.277 C 205.226 3.328,205.333 3.286,205.333 3.184 C 205.333 3.083,205.148 3.000,204.922 3.000 C 204.603 3.000,204.535 3.064,204.619 3.283 M205.601 3.138 C 205.500 3.302,206.108 3.281,206.274 3.115 C 206.337 3.052,206.231 3.000,206.038 3.000 C 205.844 3.000,205.648 3.062,205.601 3.138 M293.726 3.115 C 293.892 3.281,294.500 3.302,294.399 3.138 C 294.352 3.062,294.156 3.000,293.962 3.000 C 293.769 3.000,293.663 3.052,293.726 3.115 M294.667 3.184 C 294.667 3.286,294.774 3.328,294.906 3.277 C 295.037 3.227,295.174 3.271,295.209 3.376 C 295.245 3.485,295.319 3.445,295.381 3.283 C 295.465 3.064,295.397 3.000,295.078 3.000 C 294.852 3.000,294.667 3.083,294.667 3.184 M295.608 3.245 C 295.497 3.536,295.711 3.703,296.037 3.578 C 296.359 3.455,296.930 4.087,296.652 4.259 C 296.522 4.339,296.491 4.315,296.567 4.192 C 296.633 4.087,296.607 4.000,296.510 4.000 C 296.233 4.000,296.303 4.299,296.625 4.487 C 296.842 4.613,296.855 4.658,296.675 4.662 C 296.496 4.665,296.482 4.715,296.620 4.854 C 296.723 4.956,296.763 5.156,296.709 5.298 C 296.645 5.463,296.678 5.513,296.799 5.438 C 297.204 5.188,296.974 3.077,296.560 3.236 C 296.423 3.288,296.361 3.257,296.418 3.165 C 296.474 3.073,296.338 3.000,296.111 3.000 C 295.886 3.000,295.660 3.110,295.608 3.245 M3.000 6.000 C 3.000 6.183,3.059 6.333,3.131 6.333 C 3.203 6.333,3.262 6.183,3.262 6.000 C 3.262 5.817,3.203 5.667,3.131 5.667 C 3.059 5.667,3.000 5.817,3.000 6.000 M96.738 6.000 C 96.738 6.183,96.797 6.333,96.869 6.333 C 96.941 6.333,97.000 6.183,97.000 6.000 C 97.000 5.817,96.941 5.667,96.869 5.667 C 96.797 5.667,96.738 5.817,96.738 6.000 M203.000 6.000 C 203.000 6.183,203.059 6.333,203.131 6.333 C 203.203 6.333,203.262 6.183,203.262 6.000 C 203.262 5.817,203.203 5.667,203.131 5.667 C 203.059 5.667,203.000 5.817,203.000 6.000 M296.738 6.000 C 296.738 6.183,296.797 6.333,296.869 6.333 C 296.941 6.333,297.000 6.183,297.000 6.000 C 297.000 5.817,296.941 5.667,296.869 5.667 C 296.797 5.667,296.738 5.817,296.738 6.000 M0.708 8.956 C 1.144 8.990,1.856 8.990,2.292 8.956 C 2.727 8.922,2.371 8.893,1.500 8.893 C 0.629 8.893,0.273 8.922,0.708 8.956 M13.721 12.270 C 12.741 13.005,12.504 13.282,11.675 14.667 C 10.920 15.928,9.923 16.922,8.750 17.585 C 7.462 18.312,6.888 18.799,6.339 19.628 L 5.833 20.390 5.833 55.833 L 5.833 91.276 6.339 92.039 C 6.903 92.891,7.473 93.368,8.858 94.149 C 10.052 94.822,11.164 96.007,11.819 97.305 C 12.419 98.494,13.063 99.268,13.985 99.907 L 14.651 100.368 17.700 100.183 C 19.745 100.060,31.417 99.999,53.112 100.000 L 85.474 100.000 86.279 99.397 C 87.259 98.662,87.496 98.384,88.325 97.000 C 89.080 95.739,90.077 94.745,91.250 94.082 C 92.538 93.354,93.112 92.868,93.661 92.039 L 94.167 91.276 94.167 55.833 L 94.167 20.390 93.661 19.628 C 93.112 18.799,92.538 18.312,91.250 17.585 C 90.077 16.922,89.080 15.928,88.325 14.667 C 87.496 13.282,87.259 13.005,86.279 12.270 L 85.474 11.667 50.000 11.667 L 14.526 11.667 13.721 12.270 M213.721 12.270 C 212.741 13.005,212.504 13.282,211.675 14.667 C 210.920 15.928,209.923 16.922,208.750 17.585 C 207.462 18.312,206.888 18.799,206.339 19.628 L 205.833 20.390 205.833 55.833 L 205.833 91.276 206.339 92.039 C 206.888 92.868,207.462 93.354,208.750 94.082 C 209.923 94.745,210.920 95.739,211.675 97.000 C 212.504 98.384,212.741 98.662,213.721 99.397 L 214.526 100.000 250.000 100.000 L 285.474 100.000 286.279 99.397 C 287.259 98.662,287.496 98.384,288.325 97.000 C 289.080 95.739,290.077 94.745,291.250 94.082 C 292.538 93.354,293.112 92.868,293.661 92.039 L 294.167 91.276 294.167 55.833 L 294.167 20.390 293.661 19.628 C 293.112 18.799,292.538 18.312,291.250 17.585 C 290.077 16.922,289.080 15.928,288.325 14.667 C 287.496 13.282,287.259 13.005,286.279 12.270 L 285.474 11.667 250.000 11.667 L 214.526 11.667 213.721 12.270 M62.838 21.172 C 65.690 21.520,66.596 22.368,67.006 25.074 C 67.263 26.768,67.403 26.927,68.748 27.053 C 71.951 27.352,73.212 29.106,72.951 32.899 C 72.723 36.225,71.779 37.262,68.667 37.609 C 67.480 37.741,67.228 37.980,67.087 39.110 C 66.690 42.287,65.419 43.500,62.484 43.500 C 61.661 43.500,61.238 44.081,61.117 45.377 C 60.869 48.034,59.920 48.970,57.112 49.327 C 55.644 49.514,55.406 49.739,55.270 51.066 C 54.974 53.958,54.000 54.906,50.963 55.260 C 50.439 55.321,49.924 55.475,49.818 55.602 C 49.497 55.989,49.919 56.286,50.963 56.407 C 54.000 56.760,54.974 57.709,55.270 60.601 C 55.406 61.928,55.644 62.153,57.112 62.339 C 59.920 62.697,60.869 63.633,61.117 66.290 C 61.238 67.586,61.661 68.167,62.484 68.167 C 65.419 68.167,66.690 69.379,67.087 72.556 C 67.228 73.687,67.480 73.926,68.667 74.058 C 71.779 74.404,72.723 75.442,72.951 78.768 C 73.212 82.561,71.951 84.315,68.748 84.614 C 67.403 84.739,67.263 84.899,67.006 86.593 C 66.488 90.013,65.177 90.667,58.833 90.667 C 52.483 90.667,51.140 89.997,50.649 86.583 C 50.409 84.914,50.260 84.741,48.954 84.611 C 45.929 84.312,44.667 82.935,44.667 79.934 C 44.667 79.166,44.290 78.919,42.772 78.693 C 39.974 78.277,38.833 77.009,38.833 74.317 C 38.833 73.382,38.440 73.051,37.083 72.846 C 33.986 72.378,33.276 71.631,32.906 68.454 C 32.777 67.344,32.443 67.000,31.498 67.000 C 28.774 67.000,27.362 65.650,27.066 62.764 C 26.927 61.403,26.778 61.276,25.026 61.034 C 22.128 60.633,21.124 59.295,21.124 55.833 C 21.124 52.372,22.128 51.034,25.026 50.633 C 26.778 50.390,26.927 50.264,27.066 48.903 C 27.362 46.016,28.774 44.667,31.498 44.667 C 32.443 44.667,32.777 44.322,32.906 43.213 C 33.276 40.035,33.986 39.289,37.083 38.820 C 38.440 38.615,38.833 38.285,38.833 37.350 C 38.833 34.657,39.974 33.389,42.772 32.973 C 44.428 32.727,44.594 32.584,44.722 31.287 C 45.022 28.262,46.399 27.000,49.399 27.000 C 50.177 27.000,50.429 26.613,50.649 25.083 C 51.141 21.666,52.310 21.068,58.588 21.021 C 60.148 21.009,62.061 21.077,62.838 21.172 M245.171 21.172 C 248.035 21.521,248.963 22.390,249.351 25.083 C 249.571 26.613,249.823 27.000,250.601 27.000 C 253.601 27.000,254.978 28.262,255.278 31.287 C 255.406 32.584,255.572 32.727,257.228 32.973 C 260.026 33.389,261.167 34.657,261.167 37.350 C 261.167 38.285,261.560 38.615,262.917 38.820 C 266.014 39.289,266.724 40.035,267.094 43.213 C 267.223 44.322,267.557 44.667,268.502 44.667 C 271.226 44.667,272.638 46.016,272.934 48.903 C 273.073 50.264,273.222 50.390,274.974 50.633 C 277.872 51.034,278.876 52.372,278.876 55.833 C 278.876 59.295,277.872 60.633,274.974 61.034 C 273.222 61.276,273.073 61.403,272.934 62.764 C 272.638 65.650,271.226 67.000,268.502 67.000 C 267.557 67.000,267.223 67.344,267.094 68.454 C 266.724 71.631,266.014 72.378,262.917 72.846 C 261.560 73.051,261.167 73.382,261.167 74.317 C 261.167 77.009,260.026 78.277,257.228 78.693 C 255.710 78.919,255.333 79.166,255.333 79.934 C 255.333 82.935,254.071 84.312,251.046 84.611 C 249.740 84.741,249.591 84.914,249.351 86.583 C 248.860 89.997,247.517 90.667,241.167 90.667 C 234.823 90.667,233.512 90.013,232.994 86.593 C 232.737 84.899,232.597 84.739,231.252 84.614 C 228.049 84.315,226.788 82.561,227.049 78.768 C 227.277 75.442,228.221 74.404,231.333 74.058 C 232.520 73.926,232.772 73.687,232.913 72.556 C 233.310 69.379,234.581 68.167,237.516 68.167 C 238.339 68.167,238.762 67.586,238.883 66.290 C 239.131 63.633,240.080 62.697,242.888 62.339 C 244.356 62.153,244.594 61.928,244.730 60.601 C 245.026 57.709,246.000 56.760,249.037 56.407 C 250.081 56.286,250.503 55.989,250.182 55.602 C 250.076 55.475,249.561 55.321,249.037 55.260 C 246.000 54.906,245.026 53.958,244.730 51.066 C 244.594 49.739,244.356 49.514,242.888 49.327 C 240.080 48.970,239.131 48.034,238.883 45.377 C 238.762 44.081,238.339 43.500,237.516 43.500 C 234.581 43.500,233.310 42.287,232.913 39.110 C 232.772 37.980,232.520 37.741,231.333 37.609 C 228.221 37.262,227.277 36.225,227.049 32.899 C 226.788 29.106,228.049 27.352,231.252 27.053 C 232.597 26.927,232.737 26.768,232.994 25.074 C 233.513 21.649,234.650 21.068,240.921 21.021 C 242.482 21.009,244.394 21.077,245.171 21.172 M0.708 102.789 C 1.144 102.824,1.856 102.824,2.292 102.789 C 2.727 102.755,2.371 102.727,1.500 102.727 C 0.629 102.727,0.273 102.755,0.708 102.789 M3.000 105.667 C 3.000 105.850,3.059 106.000,3.131 106.000 C 3.203 106.000,3.262 105.850,3.262 105.667 C 3.262 105.483,3.203 105.333,3.131 105.333 C 3.059 105.333,3.000 105.483,3.000 105.667 M96.738 105.667 C 96.738 105.850,96.797 106.000,96.869 106.000 C 96.941 106.000,97.000 105.850,97.000 105.667 C 97.000 105.483,96.941 105.333,96.869 105.333 C 96.797 105.333,96.738 105.483,96.738 105.667 M203.000 105.667 C 203.000 105.850,203.059 106.000,203.131 106.000 C 203.203 106.000,203.262 105.850,203.262 105.667 C 203.262 105.483,203.203 105.333,203.131 105.333 C 203.059 105.333,203.000 105.483,203.000 105.667 M296.738 105.667 C 296.738 105.850,296.797 106.000,296.869 106.000 C 296.941 106.000,297.000 105.850,297.000 105.667 C 297.000 105.483,296.941 105.333,296.869 105.333 C 296.797 105.333,296.738 105.483,296.738 105.667 M3.103 106.301 C 2.805 106.783,3.088 108.566,3.440 108.431 C 3.577 108.378,3.639 108.410,3.582 108.502 C 3.526 108.593,3.662 108.667,3.889 108.667 C 4.114 108.667,4.340 108.557,4.392 108.422 C 4.503 108.130,4.289 107.964,3.963 108.089 C 3.641 108.212,3.070 107.579,3.348 107.407 C 3.478 107.327,3.509 107.351,3.433 107.474 C 3.367 107.580,3.393 107.667,3.490 107.667 C 3.767 107.667,3.697 107.367,3.375 107.180 C 3.158 107.053,3.145 107.009,3.325 107.005 C 3.504 107.001,3.518 106.951,3.380 106.813 C 3.277 106.710,3.232 106.523,3.281 106.396 C 3.375 106.150,3.241 106.078,3.103 106.301 M96.709 106.369 C 96.763 106.510,96.723 106.710,96.620 106.813 C 96.482 106.951,96.496 107.001,96.675 107.005 C 96.855 107.009,96.842 107.053,96.625 107.180 C 96.303 107.367,96.233 107.667,96.510 107.667 C 96.607 107.667,96.633 107.580,96.567 107.474 C 96.491 107.351,96.522 107.327,96.652 107.407 C 96.930 107.579,96.359 108.212,96.037 108.089 C 95.711 107.964,95.497 108.130,95.608 108.422 C 95.660 108.557,95.886 108.667,96.111 108.667 C 96.338 108.667,96.474 108.593,96.418 108.502 C 96.361 108.410,96.423 108.378,96.560 108.431 C 96.974 108.590,97.204 106.479,96.799 106.229 C 96.678 106.154,96.645 106.204,96.709 106.369 M203.103 106.301 C 202.805 106.783,203.088 108.566,203.440 108.431 C 203.577 108.378,203.639 108.410,203.582 108.502 C 203.526 108.593,203.662 108.667,203.889 108.667 C 204.114 108.667,204.340 108.557,204.392 108.422 C 204.503 108.130,204.289 107.964,203.963 108.089 C 203.641 108.212,203.070 107.579,203.348 107.407 C 203.478 107.327,203.509 107.351,203.433 107.474 C 203.367 107.580,203.393 107.667,203.490 107.667 C 203.767 107.667,203.697 107.367,203.375 107.180 C 203.158 107.053,203.145 107.009,203.325 107.005 C 203.504 107.001,203.518 106.951,203.380 106.813 C 203.277 106.710,203.232 106.523,203.281 106.396 C 203.375 106.150,203.241 106.078,203.103 106.301 M296.709 106.369 C 296.763 106.510,296.723 106.710,296.620 106.813 C 296.482 106.951,296.496 107.001,296.675 107.005 C 296.855 107.009,296.842 107.053,296.625 107.180 C 296.303 107.367,296.233 107.667,296.510 107.667 C 296.607 107.667,296.633 107.580,296.567 107.474 C 296.491 107.351,296.522 107.327,296.652 107.407 C 296.930 107.579,296.359 108.212,296.037 108.089 C 295.711 107.964,295.497 108.130,295.608 108.422 C 295.660 108.557,295.886 108.667,296.111 108.667 C 296.338 108.667,296.474 108.593,296.418 108.502 C 296.361 108.410,296.423 108.378,296.560 108.431 C 296.974 108.590,297.204 106.479,296.799 106.229 C 296.678 106.154,296.645 106.204,296.709 106.369 M4.619 108.383 C 4.535 108.603,4.603 108.667,4.922 108.667 C 5.148 108.667,5.333 108.584,5.333 108.482 C 5.333 108.381,5.226 108.339,5.094 108.389 C 4.963 108.440,4.826 108.396,4.791 108.291 C 4.755 108.182,4.681 108.221,4.619 108.383 M95.167 108.328 C 95.167 108.417,95.054 108.446,94.917 108.394 C 94.779 108.341,94.667 108.381,94.667 108.482 C 94.667 108.584,94.852 108.667,95.078 108.667 C 95.375 108.667,95.463 108.597,95.394 108.417 C 95.285 108.133,95.167 108.087,95.167 108.328 M204.619 108.383 C 204.535 108.603,204.603 108.667,204.922 108.667 C 205.148 108.667,205.333 108.584,205.333 108.482 C 205.333 108.381,205.226 108.339,205.094 108.389 C 204.963 108.440,204.826 108.396,204.791 108.291 C 204.755 108.182,204.681 108.221,204.619 108.383 M295.167 108.328 C 295.167 108.417,295.054 108.446,294.917 108.394 C 294.779 108.341,294.667 108.381,294.667 108.482 C 294.667 108.584,294.852 108.667,295.078 108.667 C 295.375 108.667,295.463 108.597,295.394 108.417 C 295.285 108.133,295.167 108.087,295.167 108.328 M5.601 108.528 C 5.648 108.604,5.844 108.667,6.038 108.667 C 6.231 108.667,6.337 108.615,6.274 108.552 C 6.108 108.386,5.500 108.365,5.601 108.528 M93.728 108.536 C 93.683 108.608,93.797 108.667,93.980 108.667 C 94.164 108.667,94.350 108.608,94.395 108.536 C 94.439 108.464,94.326 108.405,94.142 108.405 C 93.959 108.405,93.772 108.464,93.728 108.536 M205.601 108.528 C 205.648 108.604,205.844 108.667,206.038 108.667 C 206.231 108.667,206.337 108.615,206.274 108.552 C 206.108 108.386,205.500 108.365,205.601 108.528 M293.728 108.536 C 293.683 108.608,293.797 108.667,293.980 108.667 C 294.164 108.667,294.350 108.608,294.395 108.536 C 294.439 108.464,294.326 108.405,294.142 108.405 C 293.959 108.405,293.772 108.464,293.728 108.536 " stroke="none" fill="#fcfcfc" fill-rule="evenodd"></path><path id="path3" d="M99.500 8.949 C 98.590 9.101,97.998 9.362,98.119 9.555 C 98.288 9.825,98.283 10.211,98.107 10.458 C 98.015 10.588,98.028 10.667,98.143 10.667 C 98.276 10.667,98.326 23.072,98.326 55.833 C 98.326 88.595,98.276 101.000,98.143 101.000 C 98.028 101.000,98.015 101.078,98.107 101.208 C 98.283 101.455,98.288 101.841,98.121 102.109 C 97.964 102.358,98.709 102.617,100.002 102.763 C 100.699 102.842,101.000 102.820,101.000 102.688 C 101.000 102.585,100.869 102.499,100.708 102.497 C 100.544 102.496,100.489 102.442,100.583 102.372 C 100.694 102.291,100.750 86.585,100.750 55.833 C 100.750 25.082,100.694 9.375,100.583 9.294 C 100.489 9.225,100.544 9.171,100.708 9.169 C 100.869 9.168,101.000 9.092,101.000 9.000 C 101.000 8.836,100.313 8.812,99.500 8.949 M199.000 8.978 C 199.000 9.082,199.131 9.168,199.292 9.169 C 199.456 9.171,199.511 9.225,199.417 9.294 C 199.306 9.375,199.250 25.082,199.250 55.833 C 199.250 86.585,199.306 102.291,199.417 102.372 C 199.511 102.442,199.456 102.496,199.292 102.497 C 199.131 102.499,199.000 102.585,199.000 102.688 C 199.000 102.820,199.301 102.842,199.998 102.763 C 201.301 102.616,202.051 102.354,201.878 102.107 C 201.712 101.871,201.717 101.483,201.889 101.208 C 201.962 101.092,201.944 101.000,201.847 101.000 C 201.728 101.000,201.674 86.923,201.674 55.833 C 201.674 23.072,201.724 10.667,201.857 10.667 C 201.972 10.667,201.985 10.588,201.893 10.458 C 201.717 10.212,201.712 9.825,201.879 9.558 C 202.036 9.309,201.291 9.050,199.998 8.903 C 199.301 8.824,199.000 8.847,199.000 8.978 M299.500 8.949 C 298.590 9.101,297.998 9.362,298.119 9.555 C 298.288 9.825,298.283 10.211,298.107 10.458 C 298.015 10.588,298.028 10.667,298.143 10.667 C 298.276 10.667,298.326 23.072,298.326 55.833 C 298.326 88.595,298.276 101.000,298.143 101.000 C 298.028 101.000,298.015 101.078,298.107 101.208 C 298.283 101.455,298.288 101.841,298.121 102.109 C 297.964 102.358,298.709 102.617,300.002 102.763 C 300.699 102.842,301.000 102.820,301.000 102.688 C 301.000 102.585,300.869 102.499,300.708 102.497 C 300.544 102.496,300.489 102.442,300.583 102.372 C 300.694 102.291,300.750 86.585,300.750 55.833 C 300.750 25.082,300.694 9.375,300.583 9.294 C 300.489 9.225,300.544 9.171,300.708 9.169 C 300.869 9.168,301.000 9.092,301.000 9.000 C 301.000 8.836,300.313 8.812,299.500 8.949 M119.917 17.195 C 118.669 17.843,117.872 18.631,117.311 19.771 C 116.577 21.260,115.553 22.357,114.379 22.912 C 112.989 23.567,112.135 24.334,111.531 25.468 L 111.000 26.463 111.000 55.833 L 111.000 85.203 111.531 86.199 C 112.135 87.333,112.989 88.099,114.379 88.755 C 115.553 89.310,116.577 90.407,117.311 91.896 C 117.880 93.052,118.689 93.844,119.952 94.480 L 120.653 94.833 150.000 94.833 L 179.347 94.833 180.048 94.480 C 181.311 93.844,182.120 93.052,182.689 91.896 C 183.423 90.407,184.447 89.310,185.621 88.755 C 187.011 88.099,187.865 87.333,188.469 86.199 L 189.000 85.203 189.000 55.833 L 189.000 26.463 188.469 25.468 C 187.865 24.334,187.011 23.567,185.621 22.912 C 184.447 22.357,183.423 21.260,182.689 19.771 C 182.120 18.614,181.311 17.823,180.048 17.187 L 179.347 16.833 149.965 16.841 L 120.583 16.848 119.917 17.195 M319.917 17.195 C 318.669 17.843,317.872 18.631,317.311 19.771 C 316.577 21.260,315.553 22.357,314.379 22.912 C 312.989 23.567,312.135 24.334,311.531 25.468 L 311.000 26.463 311.000 55.833 L 311.000 85.203 311.531 86.199 C 312.135 87.333,312.989 88.099,314.379 88.755 C 315.553 89.310,316.577 90.407,317.311 91.896 C 317.880 93.052,318.689 93.844,319.952 94.480 L 320.653 94.833 350.000 94.833 L 379.347 94.833 380.048 94.480 C 381.311 93.844,382.120 93.052,382.689 91.896 C 383.423 90.407,384.447 89.310,385.621 88.755 C 387.011 88.099,387.865 87.333,388.469 86.199 L 389.000 85.203 389.000 55.833 L 389.000 26.463 388.469 25.468 C 387.865 24.334,387.011 23.567,385.621 22.912 C 384.447 22.357,383.423 21.260,382.689 19.771 C 382.120 18.614,381.311 17.823,380.048 17.187 L 379.347 16.833 349.965 16.841 L 320.583 16.848 319.917 17.195 M180.019 19.958 C 180.379 20.342,180.716 20.949,180.891 21.530 C 181.474 23.464,182.838 24.751,184.659 25.084 C 185.010 25.148,185.503 25.437,185.875 25.796 L 186.500 26.401 186.500 55.833 L 186.500 85.266 185.875 85.870 C 185.503 86.230,185.010 86.519,184.659 86.583 C 182.838 86.916,181.474 88.202,180.891 90.137 C 180.716 90.718,180.379 91.325,180.019 91.708 L 179.432 92.333 150.000 92.333 L 120.568 92.333 119.981 91.708 C 119.621 91.325,119.284 90.718,119.109 90.137 C 118.526 88.202,117.162 86.916,115.341 86.583 C 114.990 86.519,114.497 86.230,114.125 85.870 L 113.500 85.266 113.500 55.833 L 113.500 26.401 114.125 25.796 C 114.497 25.437,114.990 25.148,115.341 25.084 C 117.162 24.751,118.526 23.464,119.109 21.530 C 119.284 20.949,119.621 20.342,119.981 19.958 L 120.568 19.333 150.000 19.333 L 179.432 19.333 180.019 19.958 M380.019 19.958 C 380.379 20.342,380.716 20.949,380.891 21.530 C 381.474 23.464,382.838 24.751,384.659 25.084 C 385.010 25.148,385.503 25.437,385.875 25.796 L 386.500 26.401 386.500 55.833 L 386.500 85.266 385.875 85.870 C 385.503 86.230,385.010 86.519,384.659 86.583 C 382.838 86.916,381.474 88.202,380.891 90.137 C 380.716 90.718,380.379 91.325,380.019 91.708 L 379.432 92.333 350.000 92.333 L 320.568 92.333 319.981 91.708 C 319.621 91.325,319.284 90.718,319.109 90.137 C 318.526 88.202,317.162 86.916,315.341 86.583 C 314.990 86.519,314.497 86.230,314.125 85.870 L 313.500 85.266 313.500 55.833 L 313.500 26.401 314.125 25.796 C 314.497 25.437,314.990 25.148,315.341 25.084 C 317.162 24.751,318.526 23.464,319.109 21.530 C 319.284 20.949,319.621 20.342,319.981 19.958 L 320.568 19.333 350.000 19.333 L 379.432 19.333 380.019 19.958 M154.546 21.654 C 152.386 22.185,151.437 23.213,150.984 25.513 C 150.735 26.779,150.276 27.190,148.709 27.551 C 146.518 28.055,145.720 28.857,145.212 31.064 C 144.857 32.608,144.441 33.069,143.180 33.317 C 140.850 33.776,139.847 34.719,139.315 36.952 C 138.924 38.593,138.585 38.942,137.075 39.258 C 134.864 39.720,133.925 40.658,133.411 42.917 C 133.120 44.196,132.537 45.000,131.900 45.000 C 129.687 45.000,128.010 46.490,127.494 48.917 C 127.227 50.170,126.720 50.757,125.779 50.902 C 122.321 51.435,120.742 54.179,121.843 57.742 C 122.400 59.546,123.536 60.419,125.779 60.765 C 126.720 60.910,127.227 61.496,127.494 62.750 C 128.010 65.177,129.687 66.667,131.900 66.667 C 132.537 66.667,133.120 67.471,133.411 68.750 C 133.925 71.009,134.864 71.946,137.075 72.409 C 138.585 72.725,138.924 73.074,139.315 74.715 C 139.847 76.947,140.850 77.891,143.180 78.349 C 144.441 78.597,144.857 79.059,145.212 80.603 C 145.720 82.810,146.518 83.612,148.709 84.116 C 150.276 84.477,150.735 84.887,150.984 86.153 C 151.636 89.468,153.258 90.330,158.848 90.332 C 164.290 90.334,165.899 89.518,166.592 86.400 C 166.938 84.844,167.300 84.467,168.715 84.186 C 171.583 83.616,173.092 81.273,172.506 78.296 C 172.047 75.964,171.074 75.001,168.653 74.482 C 167.463 74.226,167.036 73.922,166.840 73.190 C 166.750 72.856,166.559 72.149,166.415 71.618 C 165.967 69.966,164.660 68.906,162.670 68.580 C 161.321 68.359,161.132 68.123,160.586 65.971 C 160.123 64.151,158.915 63.066,157.000 62.751 C 155.518 62.507,155.188 62.166,154.823 60.500 C 154.401 58.579,153.493 57.525,151.874 57.077 C 149.956 56.546,149.611 56.411,149.433 56.125 C 149.046 55.502,149.415 55.270,151.874 54.590 C 153.493 54.141,154.401 53.088,154.823 51.167 C 155.188 49.501,155.518 49.160,157.000 48.916 C 158.915 48.601,160.123 47.516,160.586 45.696 C 161.132 43.544,161.321 43.308,162.670 43.087 C 164.660 42.761,165.967 41.700,166.415 40.049 C 166.559 39.518,166.750 38.810,166.840 38.477 C 167.036 37.744,167.463 37.440,168.653 37.185 C 171.074 36.666,172.047 35.702,172.506 33.371 C 173.092 30.394,171.583 28.051,168.715 27.481 C 167.300 27.199,166.938 26.822,166.592 25.266 C 165.894 22.128,164.287 21.323,158.765 21.346 C 156.474 21.355,155.461 21.429,154.546 21.654 M336.843 21.677 C 334.719 22.233,333.890 23.099,333.408 25.266 C 333.062 26.822,332.700 27.199,331.285 27.481 C 328.417 28.051,326.908 30.394,327.494 33.371 C 327.953 35.702,328.926 36.666,331.347 37.185 C 332.537 37.440,332.964 37.744,333.160 38.477 C 333.250 38.810,333.441 39.518,333.585 40.049 C 334.033 41.700,335.340 42.761,337.330 43.087 C 338.679 43.308,338.868 43.544,339.414 45.696 C 339.877 47.516,341.085 48.601,343.000 48.916 C 344.482 49.160,344.812 49.501,345.177 51.167 C 345.599 53.088,346.507 54.141,348.126 54.590 C 350.585 55.270,350.954 55.502,350.567 56.125 C 350.389 56.411,350.044 56.546,348.126 57.077 C 346.507 57.525,345.599 58.579,345.177 60.500 C 344.812 62.166,344.482 62.507,343.000 62.751 C 341.085 63.066,339.877 64.151,339.414 65.971 C 338.868 68.123,338.679 68.359,337.330 68.580 C 335.340 68.906,334.033 69.966,333.585 71.618 C 333.441 72.149,333.250 72.856,333.160 73.190 C 332.964 73.922,332.537 74.226,331.347 74.482 C 328.926 75.001,327.953 75.964,327.494 78.296 C 326.908 81.273,328.417 83.616,331.285 84.186 C 332.700 84.467,333.062 84.844,333.408 86.400 C 334.101 89.518,335.710 90.334,341.152 90.332 C 346.742 90.330,348.364 89.468,349.016 86.153 C 349.265 84.887,349.724 84.477,351.291 84.116 C 353.482 83.612,354.280 82.810,354.788 80.603 C 355.143 79.059,355.559 78.597,356.820 78.349 C 359.150 77.891,360.153 76.947,360.685 74.715 C 361.076 73.074,361.415 72.725,362.925 72.409 C 365.136 71.946,366.075 71.009,366.589 68.750 C 366.880 67.471,367.463 66.667,368.100 66.667 C 370.313 66.667,371.990 65.177,372.506 62.750 C 372.773 61.496,373.280 60.910,374.221 60.765 C 376.464 60.419,377.600 59.546,378.157 57.742 C 379.258 54.179,377.679 51.435,374.221 50.902 C 373.280 50.757,372.773 50.170,372.506 48.917 C 371.990 46.490,370.313 45.000,368.100 45.000 C 367.463 45.000,366.880 44.196,366.589 42.917 C 366.075 40.658,365.136 39.720,362.925 39.258 C 361.415 38.942,361.076 38.593,360.685 36.952 C 360.153 34.719,359.150 33.776,356.820 33.317 C 355.554 33.068,355.143 32.610,354.783 31.042 C 354.278 28.851,353.476 28.053,351.269 27.545 C 349.725 27.190,349.264 26.774,349.016 25.513 C 348.360 22.181,346.739 21.329,341.083 21.344 C 338.663 21.350,337.843 21.415,336.843 21.677 M54.739 22.883 C 53.398 23.610,52.523 24.582,52.083 25.833 C 51.709 26.898,50.635 27.934,49.239 28.577 C 47.769 29.255,46.939 30.087,46.244 31.583 C 45.583 33.006,44.774 33.804,43.285 34.501 C 41.857 35.169,41.097 35.939,40.404 37.417 C 39.763 38.783,38.735 39.853,37.667 40.266 C 36.106 40.870,34.956 42.044,34.337 43.667 C 33.976 44.616,32.870 45.646,31.569 46.245 C 30.076 46.933,29.266 47.743,28.579 49.236 C 27.920 50.667,27.127 51.449,25.619 52.158 C 21.654 54.021,21.654 57.645,25.619 59.509 C 27.127 60.218,27.920 61.000,28.579 62.431 C 29.266 63.924,30.076 64.733,31.569 65.422 C 32.870 66.021,33.976 67.051,34.337 68.000 C 34.956 69.622,36.106 70.797,37.667 71.400 C 38.735 71.814,39.763 72.883,40.404 74.250 C 41.097 75.728,41.857 76.498,43.285 77.166 C 44.774 77.863,45.583 78.661,46.244 80.083 C 46.939 81.580,47.769 82.412,49.239 83.090 C 50.630 83.731,51.708 84.768,52.080 85.822 C 53.021 88.494,54.379 89.167,58.833 89.167 C 63.237 89.167,64.261 88.678,65.476 86.000 C 66.119 84.582,66.914 83.791,68.412 83.080 C 69.833 82.406,70.947 81.290,71.411 80.076 L 71.709 79.294 71.244 78.321 C 70.590 76.952,68.676 75.333,67.712 75.333 C 67.307 75.333,65.949 73.701,65.440 72.604 C 64.782 71.184,63.907 70.335,62.407 69.662 C 61.105 69.078,60.023 67.992,59.627 66.872 C 59.192 65.638,58.182 64.600,56.745 63.909 C 55.618 63.367,54.000 62.018,54.000 61.622 C 54.000 60.579,52.415 58.777,50.855 58.047 C 49.749 57.529,48.167 56.226,48.167 55.833 C 48.167 55.441,49.749 54.138,50.855 53.620 C 52.415 52.890,54.000 51.088,54.000 50.045 C 54.000 49.648,55.618 48.300,56.745 47.758 C 58.182 47.067,59.192 46.028,59.627 44.795 C 60.023 43.675,61.105 42.589,62.407 42.004 C 63.907 41.332,64.782 40.483,65.440 39.063 C 65.949 37.965,67.307 36.333,67.712 36.333 C 68.676 36.333,70.590 34.714,71.244 33.346 L 71.709 32.373 71.411 31.590 C 70.947 30.377,69.833 29.261,68.412 28.587 C 66.914 27.875,66.119 27.085,65.476 25.667 C 64.896 24.389,64.051 23.459,62.964 22.902 C 61.806 22.310,55.822 22.295,54.739 22.883 M237.083 22.859 C 236.008 23.414,235.162 24.333,234.574 25.586 C 233.864 27.100,233.098 27.870,231.588 28.587 C 230.167 29.261,229.053 30.377,228.589 31.590 L 228.291 32.373 228.756 33.346 C 229.410 34.714,231.324 36.333,232.288 36.333 C 232.693 36.333,234.051 37.965,234.560 39.063 C 235.218 40.483,236.093 41.332,237.593 42.004 C 238.895 42.589,239.977 43.675,240.373 44.795 C 240.808 46.028,241.818 47.067,243.255 47.758 C 244.382 48.300,246.000 49.648,246.000 50.045 C 246.000 51.088,247.585 52.890,249.145 53.620 C 250.251 54.138,251.833 55.441,251.833 55.833 C 251.833 56.226,250.251 57.529,249.145 58.047 C 247.585 58.777,246.000 60.579,246.000 61.622 C 246.000 62.018,244.382 63.367,243.255 63.909 C 241.818 64.600,240.808 65.638,240.373 66.872 C 239.977 67.992,238.895 69.078,237.593 69.662 C 236.093 70.335,235.218 71.184,234.560 72.604 C 234.051 73.701,232.693 75.333,232.288 75.333 C 231.324 75.333,229.410 76.952,228.756 78.321 L 228.291 79.294 228.589 80.076 C 229.053 81.290,230.167 82.406,231.588 83.080 C 233.086 83.791,233.881 84.582,234.524 86.000 C 235.739 88.678,236.763 89.167,241.167 89.167 C 245.621 89.167,246.979 88.494,247.920 85.822 C 248.292 84.768,249.370 83.731,250.761 83.090 C 252.231 82.412,253.061 81.580,253.756 80.083 C 254.417 78.661,255.226 77.863,256.715 77.166 C 258.143 76.498,258.903 75.728,259.596 74.250 C 260.237 72.883,261.265 71.814,262.333 71.400 C 263.894 70.797,265.044 69.622,265.663 68.000 C 266.024 67.051,267.130 66.021,268.431 65.422 C 269.924 64.733,270.734 63.924,271.421 62.431 C 272.080 61.000,272.873 60.218,274.381 59.509 C 278.346 57.645,278.346 54.021,274.381 52.158 C 272.873 51.449,272.080 50.667,271.421 49.236 C 270.734 47.743,269.924 46.933,268.431 46.245 C 267.130 45.646,266.024 44.616,265.663 43.667 C 265.044 42.044,263.894 40.870,262.333 40.266 C 261.265 39.853,260.237 38.783,259.596 37.417 C 258.903 35.939,258.143 35.169,256.715 34.501 C 255.226 33.804,254.417 33.006,253.756 31.583 C 253.061 30.087,252.231 29.255,250.761 28.577 C 249.370 27.936,248.292 26.899,247.920 25.845 C 247.472 24.571,246.559 23.547,245.297 22.902 C 244.171 22.326,238.176 22.295,237.083 22.859 M162.941 23.328 C 163.968 23.917,164.601 24.651,165.325 26.092 C 165.966 27.367,166.973 28.311,168.437 29.010 C 169.584 29.557,170.519 30.499,171.025 31.617 C 171.580 32.842,170.305 34.771,168.320 35.710 C 166.979 36.344,165.950 37.332,165.317 38.591 C 164.526 40.165,163.843 40.879,162.460 41.578 C 160.966 42.333,159.980 43.273,159.406 44.487 C 158.726 45.929,157.991 46.709,156.645 47.416 C 155.057 48.251,154.148 49.113,153.515 50.386 C 152.741 51.942,152.158 52.547,150.701 53.305 C 149.467 53.947,147.833 55.387,147.833 55.833 C 147.833 56.279,149.467 57.719,150.701 58.361 C 152.158 59.119,152.741 59.724,153.515 61.280 C 154.148 62.553,155.057 63.416,156.645 64.250 C 157.991 64.957,158.726 65.737,159.406 67.179 C 159.980 68.394,160.966 69.334,162.460 70.089 C 163.843 70.788,164.526 71.502,165.317 73.075 C 165.950 74.335,166.979 75.323,168.320 75.957 C 170.305 76.896,171.580 78.824,171.025 80.049 C 170.519 81.168,169.584 82.110,168.437 82.657 C 166.973 83.356,165.966 84.300,165.325 85.575 C 164.601 87.015,163.968 87.749,162.941 88.338 L 162.083 88.830 158.833 88.830 L 155.583 88.830 154.724 88.337 C 153.743 87.775,152.834 86.745,152.361 85.661 C 151.849 84.486,150.988 83.634,149.509 82.838 C 147.924 81.985,147.276 81.324,146.413 79.681 C 145.691 78.307,144.866 77.527,143.396 76.824 C 142.167 76.237,141.420 75.447,140.579 73.848 C 139.863 72.484,139.048 71.709,137.564 70.978 C 136.287 70.349,135.501 69.548,134.830 68.190 C 134.157 66.829,133.192 65.873,131.696 65.087 C 130.311 64.360,129.546 63.579,128.833 62.167 C 128.186 60.885,127.282 59.980,126.000 59.333 C 124.663 58.658,123.810 57.863,123.228 56.748 L 122.750 55.833 123.228 54.918 C 123.810 53.804,124.663 53.008,126.000 52.333 C 127.282 51.686,128.186 50.782,128.833 49.500 C 129.546 48.088,130.311 47.307,131.696 46.579 C 133.192 45.794,134.157 44.837,134.830 43.476 C 135.501 42.119,136.287 41.317,137.564 40.689 C 139.048 39.958,139.863 39.183,140.579 37.819 C 141.420 36.220,142.167 35.430,143.396 34.843 C 144.866 34.140,145.691 33.359,146.413 31.986 C 147.276 30.342,147.924 29.681,149.509 28.828 C 150.988 28.033,151.849 27.181,152.361 26.005 C 152.834 24.922,153.743 23.892,154.724 23.329 L 155.583 22.836 158.833 22.836 L 162.083 22.836 162.941 23.328 M345.276 23.329 C 346.257 23.892,347.166 24.922,347.639 26.005 C 348.139 27.153,349.029 28.053,350.348 28.746 C 351.991 29.610,352.652 30.258,353.505 31.843 C 354.333 33.380,355.102 34.125,356.604 34.843 C 357.833 35.430,358.580 36.220,359.421 37.819 C 360.137 39.183,360.952 39.958,362.436 40.689 C 363.713 41.317,364.499 42.119,365.170 43.476 C 365.826 44.804,366.844 45.832,368.158 46.496 C 369.577 47.212,370.358 47.976,371.083 49.354 C 371.851 50.817,372.688 51.671,374.000 52.333 C 375.337 53.008,376.190 53.804,376.772 54.918 L 377.250 55.833 376.772 56.748 C 376.190 57.863,375.337 58.658,374.000 59.333 C 372.718 59.980,371.814 60.885,371.167 62.167 C 370.454 63.579,369.689 64.360,368.304 65.087 C 366.808 65.873,365.843 66.829,365.170 68.190 C 364.499 69.548,363.713 70.349,362.436 70.978 C 360.952 71.709,360.137 72.484,359.421 73.848 C 358.580 75.447,357.833 76.237,356.604 76.824 C 355.134 77.527,354.309 78.307,353.587 79.681 C 352.724 81.324,352.076 81.985,350.491 82.838 C 349.012 83.634,348.151 84.486,347.639 85.661 C 347.166 86.745,346.257 87.775,345.276 88.337 L 344.417 88.830 341.167 88.830 L 337.917 88.830 337.059 88.338 C 336.032 87.749,335.399 87.015,334.675 85.575 C 334.034 84.300,333.027 83.356,331.563 82.657 C 330.416 82.110,329.481 81.168,328.975 80.049 C 328.420 78.824,329.695 76.896,331.680 75.957 C 333.021 75.323,334.050 74.335,334.683 73.075 C 335.474 71.502,336.157 70.788,337.540 70.089 C 339.034 69.334,340.020 68.394,340.594 67.179 C 341.274 65.737,342.009 64.957,343.355 64.250 C 344.943 63.416,345.852 62.553,346.485 61.280 C 347.259 59.724,347.842 59.119,349.299 58.361 C 350.533 57.719,352.167 56.279,352.167 55.833 C 352.167 55.387,350.533 53.947,349.299 53.305 C 347.842 52.547,347.259 51.942,346.485 50.386 C 345.852 49.113,344.943 48.251,343.355 47.416 C 342.009 46.709,341.274 45.929,340.594 44.487 C 340.020 43.273,339.034 42.333,337.540 41.578 C 336.157 40.879,335.474 40.165,334.683 38.591 C 334.050 37.332,333.021 36.344,331.680 35.710 C 329.695 34.771,328.420 32.842,328.975 31.617 C 329.481 30.499,330.416 29.557,331.563 29.010 C 333.027 28.311,334.034 27.367,334.675 26.092 C 335.399 24.651,336.032 23.917,337.059 23.328 L 337.917 22.836 341.167 22.836 L 344.417 22.836 345.276 23.329 M62.802 25.473 C 63.281 25.967,63.695 26.602,63.873 27.113 C 64.308 28.371,65.308 29.395,66.798 30.112 C 67.913 30.648,69.500 31.944,69.500 32.318 C 69.500 32.684,67.781 34.089,66.748 34.567 C 65.374 35.203,64.338 36.271,63.866 37.536 C 63.447 38.659,62.338 39.751,61.000 40.358 C 59.568 41.007,58.743 41.827,58.065 43.273 C 57.400 44.691,56.336 45.776,55.194 46.202 C 53.785 46.728,52.495 48.073,52.024 49.508 C 51.751 50.339,50.447 51.535,49.152 52.143 C 45.220 53.988,45.220 57.679,49.152 59.524 C 50.447 60.132,51.751 61.328,52.024 62.159 C 52.495 63.593,53.785 64.939,55.194 65.464 C 56.323 65.886,57.417 66.990,58.017 68.315 C 58.671 69.759,59.487 70.587,60.918 71.258 C 62.345 71.928,63.443 72.997,63.866 74.130 C 64.338 75.396,65.374 76.463,66.748 77.100 C 67.781 77.578,69.500 78.983,69.500 79.349 C 69.500 79.723,67.913 81.019,66.798 81.555 C 65.308 82.272,64.308 83.296,63.873 84.553 C 63.695 85.065,63.281 85.699,62.802 86.194 L 62.022 87.000 58.833 87.000 L 55.645 87.000 54.823 86.156 C 54.370 85.691,54.000 85.236,54.000 85.145 C 54.000 84.027,52.380 82.253,50.576 81.397 C 49.200 80.744,48.453 79.976,47.849 78.593 C 47.173 77.042,46.048 75.975,44.585 75.498 C 43.637 75.189,42.329 73.788,41.940 72.664 C 41.527 71.470,40.207 70.165,38.974 69.731 C 37.955 69.373,36.450 67.988,36.261 67.234 C 35.914 65.850,34.712 64.564,33.083 63.833 C 31.594 63.165,30.952 62.523,30.199 60.945 C 29.428 59.331,28.794 58.713,27.066 57.893 C 25.993 57.383,24.667 56.245,24.667 55.833 C 24.667 55.422,25.993 54.284,27.066 53.774 C 28.794 52.954,29.428 52.336,30.199 50.721 C 30.952 49.144,31.594 48.502,33.083 47.833 C 34.712 47.103,35.914 45.817,36.261 44.432 C 36.450 43.679,37.955 42.293,38.974 41.935 C 40.207 41.502,41.527 40.197,41.940 39.002 C 42.329 37.879,43.637 36.478,44.585 36.169 C 46.048 35.692,47.173 34.625,47.849 33.074 C 48.453 31.691,49.200 30.923,50.576 30.269 C 52.380 29.413,54.000 27.640,54.000 26.522 C 54.000 26.430,54.370 25.976,54.823 25.511 L 55.645 24.667 58.833 24.667 L 62.022 24.667 62.802 25.473 M245.177 25.511 C 245.630 25.976,246.000 26.430,246.000 26.522 C 246.000 27.640,247.620 29.413,249.424 30.269 C 250.800 30.923,251.547 31.691,252.151 33.074 C 252.827 34.625,253.952 35.692,255.415 36.169 C 256.363 36.478,257.671 37.879,258.060 39.002 C 258.473 40.197,259.793 41.502,261.026 41.935 C 262.045 42.293,263.550 43.679,263.739 44.432 C 264.086 45.817,265.288 47.103,266.917 47.833 C 268.406 48.502,269.048 49.144,269.801 50.721 C 270.572 52.336,271.206 52.954,272.934 53.774 C 274.007 54.284,275.333 55.422,275.333 55.833 C 275.333 56.245,274.007 57.383,272.934 57.893 C 271.206 58.713,270.572 59.331,269.801 60.945 C 269.048 62.523,268.406 63.165,266.917 63.833 C 265.288 64.564,264.086 65.850,263.739 67.234 C 263.550 67.988,262.045 69.373,261.026 69.731 C 259.793 70.165,258.473 71.470,258.060 72.664 C 257.671 73.788,256.363 75.189,255.415 75.498 C 253.952 75.975,252.827 77.042,252.151 78.593 C 251.547 79.976,250.800 80.744,249.424 81.397 C 247.620 82.253,246.000 84.027,246.000 85.145 C 246.000 85.236,245.630 85.691,245.177 86.156 L 244.355 87.000 241.167 87.000 L 237.978 87.000 237.198 86.194 C 236.719 85.699,236.305 85.065,236.127 84.553 C 235.692 83.296,234.692 82.272,233.202 81.555 C 232.087 81.019,230.500 79.723,230.500 79.349 C 230.500 78.983,232.219 77.578,233.252 77.100 C 234.626 76.463,235.662 75.396,236.134 74.130 C 236.557 72.997,237.655 71.928,239.082 71.258 C 240.513 70.587,241.329 69.759,241.983 68.315 C 242.583 66.990,243.677 65.886,244.806 65.464 C 246.215 64.939,247.505 63.593,247.976 62.159 C 248.249 61.328,249.553 60.132,250.848 59.524 C 252.156 58.910,253.313 57.750,253.745 56.620 C 254.310 55.141,253.034 53.168,250.848 52.143 C 249.553 51.535,248.249 50.339,247.976 49.508 C 247.505 48.073,246.215 46.728,244.806 46.202 C 243.664 45.776,242.600 44.691,241.935 43.273 C 241.257 41.827,240.432 41.007,239.000 40.358 C 237.662 39.751,236.553 38.659,236.134 37.536 C 235.662 36.271,234.626 35.203,233.252 34.567 C 232.219 34.089,230.500 32.684,230.500 32.318 C 230.500 31.944,232.087 30.648,233.202 30.112 C 234.692 29.395,235.692 28.371,236.127 27.113 C 236.305 26.602,236.719 25.967,237.198 25.473 L 237.978 24.667 241.167 24.667 L 244.355 24.667 245.177 25.511 " stroke="none" fill="#bcf0e4" fill-rule="evenodd"></path><path id="path4" d="M99.500 8.949 C 98.590 9.101,97.998 9.362,98.119 9.555 C 98.288 9.825,98.283 10.211,98.107 10.458 C 98.015 10.588,98.028 10.667,98.143 10.667 C 98.276 10.667,98.326 23.072,98.326 55.833 C 98.326 88.595,98.276 101.000,98.143 101.000 C 98.028 101.000,98.015 101.078,98.107 101.208 C 98.283 101.455,98.288 101.841,98.121 102.109 C 97.964 102.358,98.709 102.617,100.002 102.763 C 100.699 102.842,101.000 102.820,101.000 102.688 C 101.000 102.585,100.869 102.499,100.708 102.497 C 100.544 102.496,100.489 102.442,100.583 102.372 C 100.694 102.291,100.750 86.585,100.750 55.833 C 100.750 25.082,100.694 9.375,100.583 9.294 C 100.489 9.225,100.544 9.171,100.708 9.169 C 100.869 9.168,101.000 9.092,101.000 9.000 C 101.000 8.836,100.313 8.812,99.500 8.949 M199.000 8.978 C 199.000 9.082,199.131 9.168,199.292 9.169 C 199.456 9.171,199.511 9.225,199.417 9.294 C 199.306 9.375,199.250 25.082,199.250 55.833 C 199.250 86.585,199.306 102.291,199.417 102.372 C 199.511 102.442,199.456 102.496,199.292 102.497 C 199.131 102.499,199.000 102.585,199.000 102.688 C 199.000 102.820,199.301 102.842,199.998 102.763 C 201.301 102.616,202.051 102.354,201.878 102.107 C 201.712 101.871,201.717 101.483,201.889 101.208 C 201.962 101.092,201.944 101.000,201.847 101.000 C 201.728 101.000,201.674 86.923,201.674 55.833 C 201.674 23.072,201.724 10.667,201.857 10.667 C 201.972 10.667,201.985 10.588,201.893 10.458 C 201.717 10.212,201.712 9.825,201.879 9.558 C 202.036 9.309,201.291 9.050,199.998 8.903 C 199.301 8.824,199.000 8.847,199.000 8.978 M299.500 8.949 C 298.590 9.101,297.998 9.362,298.119 9.555 C 298.288 9.825,298.283 10.211,298.107 10.458 C 298.015 10.588,298.028 10.667,298.143 10.667 C 298.276 10.667,298.326 23.072,298.326 55.833 C 298.326 88.595,298.276 101.000,298.143 101.000 C 298.028 101.000,298.015 101.078,298.107 101.208 C 298.283 101.455,298.288 101.841,298.121 102.109 C 297.964 102.358,298.709 102.617,300.002 102.763 C 300.699 102.842,301.000 102.820,301.000 102.688 C 301.000 102.585,300.869 102.499,300.708 102.497 C 300.544 102.496,300.489 102.442,300.583 102.372 C 300.694 102.291,300.750 86.585,300.750 55.833 C 300.750 25.082,300.694 9.375,300.583 9.294 C 300.489 9.225,300.544 9.171,300.708 9.169 C 300.869 9.168,301.000 9.092,301.000 9.000 C 301.000 8.836,300.313 8.812,299.500 8.949 M119.917 17.195 C 118.669 17.843,117.872 18.631,117.311 19.771 C 116.577 21.260,115.553 22.357,114.379 22.912 C 112.989 23.567,112.135 24.334,111.531 25.468 L 111.000 26.463 111.000 55.833 L 111.000 85.203 111.531 86.199 C 112.135 87.333,112.989 88.099,114.379 88.755 C 115.553 89.310,116.577 90.407,117.311 91.896 C 117.880 93.052,118.689 93.844,119.952 94.480 L 120.653 94.833 150.000 94.833 L 179.347 94.833 180.048 94.480 C 181.311 93.844,182.120 93.052,182.689 91.896 C 183.423 90.407,184.447 89.310,185.621 88.755 C 187.011 88.099,187.865 87.333,188.469 86.199 L 189.000 85.203 189.000 55.833 L 189.000 26.463 188.469 25.468 C 187.865 24.334,187.011 23.567,185.621 22.912 C 184.447 22.357,183.423 21.260,182.689 19.771 C 182.120 18.614,181.311 17.823,180.048 17.187 L 179.347 16.833 149.965 16.841 L 120.583 16.848 119.917 17.195 M319.917 17.195 C 318.669 17.843,317.872 18.631,317.311 19.771 C 316.577 21.260,315.553 22.357,314.379 22.912 C 312.989 23.567,312.135 24.334,311.531 25.468 L 311.000 26.463 311.000 55.833 L 311.000 85.203 311.531 86.199 C 312.135 87.333,312.989 88.099,314.379 88.755 C 315.553 89.310,316.577 90.407,317.311 91.896 C 317.880 93.052,318.689 93.844,319.952 94.480 L 320.653 94.833 350.000 94.833 L 379.347 94.833 380.048 94.480 C 381.311 93.844,382.120 93.052,382.689 91.896 C 383.423 90.407,384.447 89.310,385.621 88.755 C 387.011 88.099,387.865 87.333,388.469 86.199 L 389.000 85.203 389.000 55.833 L 389.000 26.463 388.469 25.468 C 387.865 24.334,387.011 23.567,385.621 22.912 C 384.447 22.357,383.423 21.260,382.689 19.771 C 382.120 18.614,381.311 17.823,380.048 17.187 L 379.347 16.833 349.965 16.841 L 320.583 16.848 319.917 17.195 M180.019 19.958 C 180.379 20.342,180.716 20.949,180.891 21.530 C 181.474 23.464,182.838 24.751,184.659 25.084 C 185.010 25.148,185.503 25.437,185.875 25.796 L 186.500 26.401 186.500 55.833 L 186.500 85.266 185.875 85.870 C 185.503 86.230,185.010 86.519,184.659 86.583 C 182.838 86.916,181.474 88.202,180.891 90.137 C 180.716 90.718,180.379 91.325,180.019 91.708 L 179.432 92.333 150.000 92.333 L 120.568 92.333 119.981 91.708 C 119.621 91.325,119.284 90.718,119.109 90.137 C 118.526 88.202,117.162 86.916,115.341 86.583 C 114.990 86.519,114.497 86.230,114.125 85.870 L 113.500 85.266 113.500 55.833 L 113.500 26.401 114.125 25.796 C 114.497 25.437,114.990 25.148,115.341 25.084 C 117.162 24.751,118.526 23.464,119.109 21.530 C 119.284 20.949,119.621 20.342,119.981 19.958 L 120.568 19.333 150.000 19.333 L 179.432 19.333 180.019 19.958 M380.019 19.958 C 380.379 20.342,380.716 20.949,380.891 21.530 C 381.474 23.464,382.838 24.751,384.659 25.084 C 385.010 25.148,385.503 25.437,385.875 25.796 L 386.500 26.401 386.500 55.833 L 386.500 85.266 385.875 85.870 C 385.503 86.230,385.010 86.519,384.659 86.583 C 382.838 86.916,381.474 88.202,380.891 90.137 C 380.716 90.718,380.379 91.325,380.019 91.708 L 379.432 92.333 350.000 92.333 L 320.568 92.333 319.981 91.708 C 319.621 91.325,319.284 90.718,319.109 90.137 C 318.526 88.202,317.162 86.916,315.341 86.583 C 314.990 86.519,314.497 86.230,314.125 85.870 L 313.500 85.266 313.500 55.833 L 313.500 26.401 314.125 25.796 C 314.497 25.437,314.990 25.148,315.341 25.084 C 317.162 24.751,318.526 23.464,319.109 21.530 C 319.284 20.949,319.621 20.342,319.981 19.958 L 320.568 19.333 350.000 19.333 L 379.432 19.333 380.019 19.958 M154.546 21.654 C 152.386 22.185,151.437 23.213,150.984 25.513 C 150.735 26.779,150.276 27.190,148.709 27.551 C 146.518 28.055,145.720 28.857,145.212 31.064 C 144.857 32.608,144.441 33.069,143.180 33.317 C 140.850 33.776,139.847 34.719,139.315 36.952 C 138.924 38.593,138.585 38.942,137.075 39.258 C 134.864 39.720,133.925 40.658,133.411 42.917 C 133.120 44.196,132.537 45.000,131.900 45.000 C 129.687 45.000,128.010 46.490,127.494 48.917 C 127.227 50.170,126.720 50.757,125.779 50.902 C 122.321 51.435,120.742 54.179,121.843 57.742 C 122.400 59.546,123.536 60.419,125.779 60.765 C 126.720 60.910,127.227 61.496,127.494 62.750 C 128.010 65.177,129.687 66.667,131.900 66.667 C 132.537 66.667,133.120 67.471,133.411 68.750 C 133.925 71.009,134.864 71.946,137.075 72.409 C 138.585 72.725,138.924 73.074,139.315 74.715 C 139.847 76.947,140.850 77.891,143.180 78.349 C 144.441 78.597,144.857 79.059,145.212 80.603 C 145.720 82.810,146.518 83.612,148.709 84.116 C 150.276 84.477,150.735 84.887,150.984 86.153 C 151.636 89.468,153.258 90.330,158.848 90.332 C 164.290 90.334,165.899 89.518,166.592 86.400 C 166.938 84.844,167.300 84.467,168.715 84.186 C 171.583 83.616,173.092 81.273,172.506 78.296 C 172.047 75.964,171.074 75.001,168.653 74.482 C 167.463 74.226,167.036 73.922,166.840 73.190 C 166.750 72.856,166.559 72.149,166.415 71.618 C 165.967 69.966,164.660 68.906,162.670 68.580 C 161.321 68.359,161.132 68.123,160.586 65.971 C 160.123 64.151,158.915 63.066,157.000 62.751 C 155.518 62.507,155.188 62.166,154.823 60.500 C 154.401 58.579,153.493 57.525,151.874 57.077 C 149.956 56.546,149.611 56.411,149.433 56.125 C 149.046 55.502,149.415 55.270,151.874 54.590 C 153.493 54.141,154.401 53.088,154.823 51.167 C 155.188 49.501,155.518 49.160,157.000 48.916 C 158.915 48.601,160.123 47.516,160.586 45.696 C 161.132 43.544,161.321 43.308,162.670 43.087 C 164.660 42.761,165.967 41.700,166.415 40.049 C 166.559 39.518,166.750 38.810,166.840 38.477 C 167.036 37.744,167.463 37.440,168.653 37.185 C 171.074 36.666,172.047 35.702,172.506 33.371 C 173.092 30.394,171.583 28.051,168.715 27.481 C 167.300 27.199,166.938 26.822,166.592 25.266 C 165.894 22.128,164.287 21.323,158.765 21.346 C 156.474 21.355,155.461 21.429,154.546 21.654 M336.843 21.677 C 334.719 22.233,333.890 23.099,333.408 25.266 C 333.062 26.822,332.700 27.199,331.285 27.481 C 328.417 28.051,326.908 30.394,327.494 33.371 C 327.953 35.702,328.926 36.666,331.347 37.185 C 332.537 37.440,332.964 37.744,333.160 38.477 C 333.250 38.810,333.441 39.518,333.585 40.049 C 334.033 41.700,335.340 42.761,337.330 43.087 C 338.679 43.308,338.868 43.544,339.414 45.696 C 339.877 47.516,341.085 48.601,343.000 48.916 C 344.482 49.160,344.812 49.501,345.177 51.167 C 345.599 53.088,346.507 54.141,348.126 54.590 C 350.585 55.270,350.954 55.502,350.567 56.125 C 350.389 56.411,350.044 56.546,348.126 57.077 C 346.507 57.525,345.599 58.579,345.177 60.500 C 344.812 62.166,344.482 62.507,343.000 62.751 C 341.085 63.066,339.877 64.151,339.414 65.971 C 338.868 68.123,338.679 68.359,337.330 68.580 C 335.340 68.906,334.033 69.966,333.585 71.618 C 333.441 72.149,333.250 72.856,333.160 73.190 C 332.964 73.922,332.537 74.226,331.347 74.482 C 328.926 75.001,327.953 75.964,327.494 78.296 C 326.908 81.273,328.417 83.616,331.285 84.186 C 332.700 84.467,333.062 84.844,333.408 86.400 C 334.101 89.518,335.710 90.334,341.152 90.332 C 346.742 90.330,348.364 89.468,349.016 86.153 C 349.265 84.887,349.724 84.477,351.291 84.116 C 353.482 83.612,354.280 82.810,354.788 80.603 C 355.143 79.059,355.559 78.597,356.820 78.349 C 359.150 77.891,360.153 76.947,360.685 74.715 C 361.076 73.074,361.415 72.725,362.925 72.409 C 365.136 71.946,366.075 71.009,366.589 68.750 C 366.880 67.471,367.463 66.667,368.100 66.667 C 370.313 66.667,371.990 65.177,372.506 62.750 C 372.773 61.496,373.280 60.910,374.221 60.765 C 376.464 60.419,377.600 59.546,378.157 57.742 C 379.258 54.179,377.679 51.435,374.221 50.902 C 373.280 50.757,372.773 50.170,372.506 48.917 C 371.990 46.490,370.313 45.000,368.100 45.000 C 367.463 45.000,366.880 44.196,366.589 42.917 C 366.075 40.658,365.136 39.720,362.925 39.258 C 361.415 38.942,361.076 38.593,360.685 36.952 C 360.153 34.719,359.150 33.776,356.820 33.317 C 355.554 33.068,355.143 32.610,354.783 31.042 C 354.278 28.851,353.476 28.053,351.269 27.545 C 349.725 27.190,349.264 26.774,349.016 25.513 C 348.360 22.181,346.739 21.329,341.083 21.344 C 338.663 21.350,337.843 21.415,336.843 21.677 M54.739 22.883 C 53.398 23.610,52.523 24.582,52.083 25.833 C 51.709 26.898,50.635 27.934,49.239 28.577 C 47.769 29.255,46.939 30.087,46.244 31.583 C 45.583 33.006,44.774 33.804,43.285 34.501 C 41.857 35.169,41.097 35.939,40.404 37.417 C 39.763 38.783,38.735 39.853,37.667 40.266 C 36.106 40.870,34.956 42.044,34.337 43.667 C 33.976 44.616,32.870 45.646,31.569 46.245 C 30.076 46.933,29.266 47.743,28.579 49.236 C 27.920 50.667,27.127 51.449,25.619 52.158 C 21.654 54.021,21.654 57.645,25.619 59.509 C 27.127 60.218,27.920 61.000,28.579 62.431 C 29.266 63.924,30.076 64.733,31.569 65.422 C 32.870 66.021,33.976 67.051,34.337 68.000 C 34.956 69.622,36.106 70.797,37.667 71.400 C 38.735 71.814,39.763 72.883,40.404 74.250 C 41.097 75.728,41.857 76.498,43.285 77.166 C 44.774 77.863,45.583 78.661,46.244 80.083 C 46.939 81.580,47.769 82.412,49.239 83.090 C 50.630 83.731,51.708 84.768,52.080 85.822 C 53.021 88.494,54.379 89.167,58.833 89.167 C 63.237 89.167,64.261 88.678,65.476 86.000 C 66.119 84.582,66.914 83.791,68.412 83.080 C 69.833 82.406,70.947 81.290,71.411 80.076 L 71.709 79.294 71.244 78.321 C 70.590 76.952,68.676 75.333,67.712 75.333 C 67.307 75.333,65.949 73.701,65.440 72.604 C 64.782 71.184,63.907 70.335,62.407 69.662 C 61.105 69.078,60.023 67.992,59.627 66.872 C 59.192 65.638,58.182 64.600,56.745 63.909 C 55.618 63.367,54.000 62.018,54.000 61.622 C 54.000 60.579,52.415 58.777,50.855 58.047 C 49.749 57.529,48.167 56.226,48.167 55.833 C 48.167 55.441,49.749 54.138,50.855 53.620 C 52.415 52.890,54.000 51.088,54.000 50.045 C 54.000 49.648,55.618 48.300,56.745 47.758 C 58.182 47.067,59.192 46.028,59.627 44.795 C 60.023 43.675,61.105 42.589,62.407 42.004 C 63.907 41.332,64.782 40.483,65.440 39.063 C 65.949 37.965,67.307 36.333,67.712 36.333 C 68.676 36.333,70.590 34.714,71.244 33.346 L 71.709 32.373 71.411 31.590 C 70.947 30.377,69.833 29.261,68.412 28.587 C 66.914 27.875,66.119 27.085,65.476 25.667 C 64.896 24.389,64.051 23.459,62.964 22.902 C 61.806 22.310,55.822 22.295,54.739 22.883 M237.083 22.859 C 236.008 23.414,235.162 24.333,234.574 25.586 C 233.864 27.100,233.098 27.870,231.588 28.587 C 230.167 29.261,229.053 30.377,228.589 31.590 L 228.291 32.373 228.756 33.346 C 229.410 34.714,231.324 36.333,232.288 36.333 C 232.693 36.333,234.051 37.965,234.560 39.063 C 235.218 40.483,236.093 41.332,237.593 42.004 C 238.895 42.589,239.977 43.675,240.373 44.795 C 240.808 46.028,241.818 47.067,243.255 47.758 C 244.382 48.300,246.000 49.648,246.000 50.045 C 246.000 51.088,247.585 52.890,249.145 53.620 C 250.251 54.138,251.833 55.441,251.833 55.833 C 251.833 56.226,250.251 57.529,249.145 58.047 C 247.585 58.777,246.000 60.579,246.000 61.622 C 246.000 62.018,244.382 63.367,243.255 63.909 C 241.818 64.600,240.808 65.638,240.373 66.872 C 239.977 67.992,238.895 69.078,237.593 69.662 C 236.093 70.335,235.218 71.184,234.560 72.604 C 234.051 73.701,232.693 75.333,232.288 75.333 C 231.324 75.333,229.410 76.952,228.756 78.321 L 228.291 79.294 228.589 80.076 C 229.053 81.290,230.167 82.406,231.588 83.080 C 233.086 83.791,233.881 84.582,234.524 86.000 C 235.739 88.678,236.763 89.167,241.167 89.167 C 245.621 89.167,246.979 88.494,247.920 85.822 C 248.292 84.768,249.370 83.731,250.761 83.090 C 252.231 82.412,253.061 81.580,253.756 80.083 C 254.417 78.661,255.226 77.863,256.715 77.166 C 258.143 76.498,258.903 75.728,259.596 74.250 C 260.237 72.883,261.265 71.814,262.333 71.400 C 263.894 70.797,265.044 69.622,265.663 68.000 C 266.024 67.051,267.130 66.021,268.431 65.422 C 269.924 64.733,270.734 63.924,271.421 62.431 C 272.080 61.000,272.873 60.218,274.381 59.509 C 278.346 57.645,278.346 54.021,274.381 52.158 C 272.873 51.449,272.080 50.667,271.421 49.236 C 270.734 47.743,269.924 46.933,268.431 46.245 C 267.130 45.646,266.024 44.616,265.663 43.667 C 265.044 42.044,263.894 40.870,262.333 40.266 C 261.265 39.853,260.237 38.783,259.596 37.417 C 258.903 35.939,258.143 35.169,256.715 34.501 C 255.226 33.804,254.417 33.006,253.756 31.583 C 253.061 30.087,252.231 29.255,250.761 28.577 C 249.370 27.936,248.292 26.899,247.920 25.845 C 247.472 24.571,246.559 23.547,245.297 22.902 C 244.171 22.326,238.176 22.295,237.083 22.859 M162.941 23.328 C 163.968 23.917,164.601 24.651,165.325 26.092 C 165.966 27.367,166.973 28.311,168.437 29.010 C 169.584 29.557,170.519 30.499,171.025 31.617 C 171.580 32.842,170.305 34.771,168.320 35.710 C 166.979 36.344,165.950 37.332,165.317 38.591 C 164.526 40.165,163.843 40.879,162.460 41.578 C 160.966 42.333,159.980 43.273,159.406 44.487 C 158.726 45.929,157.991 46.709,156.645 47.416 C 155.057 48.251,154.148 49.113,153.515 50.386 C 152.741 51.942,152.158 52.547,150.701 53.305 C 149.467 53.947,147.833 55.387,147.833 55.833 C 147.833 56.279,149.467 57.719,150.701 58.361 C 152.158 59.119,152.741 59.724,153.515 61.280 C 154.148 62.553,155.057 63.416,156.645 64.250 C 157.991 64.957,158.726 65.737,159.406 67.179 C 159.980 68.394,160.966 69.334,162.460 70.089 C 163.843 70.788,164.526 71.502,165.317 73.075 C 165.950 74.335,166.979 75.323,168.320 75.957 C 170.305 76.896,171.580 78.824,171.025 80.049 C 170.519 81.168,169.584 82.110,168.437 82.657 C 166.973 83.356,165.966 84.300,165.325 85.575 C 164.601 87.015,163.968 87.749,162.941 88.338 L 162.083 88.830 158.833 88.830 L 155.583 88.830 154.724 88.337 C 153.743 87.775,152.834 86.745,152.361 85.661 C 151.849 84.486,150.988 83.634,149.509 82.838 C 147.924 81.985,147.276 81.324,146.413 79.681 C 145.691 78.307,144.866 77.527,143.396 76.824 C 142.167 76.237,141.420 75.447,140.579 73.848 C 139.863 72.484,139.048 71.709,137.564 70.978 C 136.287 70.349,135.501 69.548,134.830 68.190 C 134.157 66.829,133.192 65.873,131.696 65.087 C 130.311 64.360,129.546 63.579,128.833 62.167 C 128.186 60.885,127.282 59.980,126.000 59.333 C 124.663 58.658,123.810 57.863,123.228 56.748 L 122.750 55.833 123.228 54.918 C 123.810 53.804,124.663 53.008,126.000 52.333 C 127.282 51.686,128.186 50.782,128.833 49.500 C 129.546 48.088,130.311 47.307,131.696 46.579 C 133.192 45.794,134.157 44.837,134.830 43.476 C 135.501 42.119,136.287 41.317,137.564 40.689 C 139.048 39.958,139.863 39.183,140.579 37.819 C 141.420 36.220,142.167 35.430,143.396 34.843 C 144.866 34.140,145.691 33.359,146.413 31.986 C 147.276 30.342,147.924 29.681,149.509 28.828 C 150.988 28.033,151.849 27.181,152.361 26.005 C 152.834 24.922,153.743 23.892,154.724 23.329 L 155.583 22.836 158.833 22.836 L 162.083 22.836 162.941 23.328 M345.276 23.329 C 346.257 23.892,347.166 24.922,347.639 26.005 C 348.139 27.153,349.029 28.053,350.348 28.746 C 351.991 29.610,352.652 30.258,353.505 31.843 C 354.333 33.380,355.102 34.125,356.604 34.843 C 357.833 35.430,358.580 36.220,359.421 37.819 C 360.137 39.183,360.952 39.958,362.436 40.689 C 363.713 41.317,364.499 42.119,365.170 43.476 C 365.826 44.804,366.844 45.832,368.158 46.496 C 369.577 47.212,370.358 47.976,371.083 49.354 C 371.851 50.817,372.688 51.671,374.000 52.333 C 375.337 53.008,376.190 53.804,376.772 54.918 L 377.250 55.833 376.772 56.748 C 376.190 57.863,375.337 58.658,374.000 59.333 C 372.718 59.980,371.814 60.885,371.167 62.167 C 370.454 63.579,369.689 64.360,368.304 65.087 C 366.808 65.873,365.843 66.829,365.170 68.190 C 364.499 69.548,363.713 70.349,362.436 70.978 C 360.952 71.709,360.137 72.484,359.421 73.848 C 358.580 75.447,357.833 76.237,356.604 76.824 C 355.134 77.527,354.309 78.307,353.587 79.681 C 352.724 81.324,352.076 81.985,350.491 82.838 C 349.012 83.634,348.151 84.486,347.639 85.661 C 347.166 86.745,346.257 87.775,345.276 88.337 L 344.417 88.830 341.167 88.830 L 337.917 88.830 337.059 88.338 C 336.032 87.749,335.399 87.015,334.675 85.575 C 334.034 84.300,333.027 83.356,331.563 82.657 C 330.416 82.110,329.481 81.168,328.975 80.049 C 328.420 78.824,329.695 76.896,331.680 75.957 C 333.021 75.323,334.050 74.335,334.683 73.075 C 335.474 71.502,336.157 70.788,337.540 70.089 C 339.034 69.334,340.020 68.394,340.594 67.179 C 341.274 65.737,342.009 64.957,343.355 64.250 C 344.943 63.416,345.852 62.553,346.485 61.280 C 347.259 59.724,347.842 59.119,349.299 58.361 C 350.533 57.719,352.167 56.279,352.167 55.833 C 352.167 55.387,350.533 53.947,349.299 53.305 C 347.842 52.547,347.259 51.942,346.485 50.386 C 345.852 49.113,344.943 48.251,343.355 47.416 C 342.009 46.709,341.274 45.929,340.594 44.487 C 340.020 43.273,339.034 42.333,337.540 41.578 C 336.157 40.879,335.474 40.165,334.683 38.591 C 334.050 37.332,333.021 36.344,331.680 35.710 C 329.695 34.771,328.420 32.842,328.975 31.617 C 329.481 30.499,330.416 29.557,331.563 29.010 C 333.027 28.311,334.034 27.367,334.675 26.092 C 335.399 24.651,336.032 23.917,337.059 23.328 L 337.917 22.836 341.167 22.836 L 344.417 22.836 345.276 23.329 M62.802 25.473 C 63.281 25.967,63.695 26.602,63.873 27.113 C 64.308 28.371,65.308 29.395,66.798 30.112 C 67.913 30.648,69.500 31.944,69.500 32.318 C 69.500 32.684,67.781 34.089,66.748 34.567 C 65.374 35.203,64.338 36.271,63.866 37.536 C 63.447 38.659,62.338 39.751,61.000 40.358 C 59.568 41.007,58.743 41.827,58.065 43.273 C 57.400 44.691,56.336 45.776,55.194 46.202 C 53.785 46.728,52.495 48.073,52.024 49.508 C 51.751 50.339,50.447 51.535,49.152 52.143 C 45.220 53.988,45.220 57.679,49.152 59.524 C 50.447 60.132,51.751 61.328,52.024 62.159 C 52.495 63.593,53.785 64.939,55.194 65.464 C 56.323 65.886,57.417 66.990,58.017 68.315 C 58.671 69.759,59.487 70.587,60.918 71.258 C 62.345 71.928,63.443 72.997,63.866 74.130 C 64.338 75.396,65.374 76.463,66.748 77.100 C 67.781 77.578,69.500 78.983,69.500 79.349 C 69.500 79.723,67.913 81.019,66.798 81.555 C 65.308 82.272,64.308 83.296,63.873 84.553 C 63.695 85.065,63.281 85.699,62.802 86.194 L 62.022 87.000 58.833 87.000 L 55.645 87.000 54.823 86.156 C 54.370 85.691,54.000 85.236,54.000 85.145 C 54.000 84.027,52.380 82.253,50.576 81.397 C 49.200 80.744,48.453 79.976,47.849 78.593 C 47.173 77.042,46.048 75.975,44.585 75.498 C 43.637 75.189,42.329 73.788,41.940 72.664 C 41.527 71.470,40.207 70.165,38.974 69.731 C 37.955 69.373,36.450 67.988,36.261 67.234 C 35.914 65.850,34.712 64.564,33.083 63.833 C 31.594 63.165,30.952 62.523,30.199 60.945 C 29.428 59.331,28.794 58.713,27.066 57.893 C 25.993 57.383,24.667 56.245,24.667 55.833 C 24.667 55.422,25.993 54.284,27.066 53.774 C 28.794 52.954,29.428 52.336,30.199 50.721 C 30.952 49.144,31.594 48.502,33.083 47.833 C 34.712 47.103,35.914 45.817,36.261 44.432 C 36.450 43.679,37.955 42.293,38.974 41.935 C 40.207 41.502,41.527 40.197,41.940 39.002 C 42.329 37.879,43.637 36.478,44.585 36.169 C 46.048 35.692,47.173 34.625,47.849 33.074 C 48.453 31.691,49.200 30.923,50.576 30.269 C 52.380 29.413,54.000 27.640,54.000 26.522 C 54.000 26.430,54.370 25.976,54.823 25.511 L 55.645 24.667 58.833 24.667 L 62.022 24.667 62.802 25.473 M245.177 25.511 C 245.630 25.976,246.000 26.430,246.000 26.522 C 246.000 27.640,247.620 29.413,249.424 30.269 C 250.800 30.923,251.547 31.691,252.151 33.074 C 252.827 34.625,253.952 35.692,255.415 36.169 C 256.363 36.478,257.671 37.879,258.060 39.002 C 258.473 40.197,259.793 41.502,261.026 41.935 C 262.045 42.293,263.550 43.679,263.739 44.432 C 264.086 45.817,265.288 47.103,266.917 47.833 C 268.406 48.502,269.048 49.144,269.801 50.721 C 270.572 52.336,271.206 52.954,272.934 53.774 C 274.007 54.284,275.333 55.422,275.333 55.833 C 275.333 56.245,274.007 57.383,272.934 57.893 C 271.206 58.713,270.572 59.331,269.801 60.945 C 269.048 62.523,268.406 63.165,266.917 63.833 C 265.288 64.564,264.086 65.850,263.739 67.234 C 263.550 67.988,262.045 69.373,261.026 69.731 C 259.793 70.165,258.473 71.470,258.060 72.664 C 257.671 73.788,256.363 75.189,255.415 75.498 C 253.952 75.975,252.827 77.042,252.151 78.593 C 251.547 79.976,250.800 80.744,249.424 81.397 C 247.620 82.253,246.000 84.027,246.000 85.145 C 246.000 85.236,245.630 85.691,245.177 86.156 L 244.355 87.000 241.167 87.000 L 237.978 87.000 237.198 86.194 C 236.719 85.699,236.305 85.065,236.127 84.553 C 235.692 83.296,234.692 82.272,233.202 81.555 C 232.087 81.019,230.500 79.723,230.500 79.349 C 230.500 78.983,232.219 77.578,233.252 77.100 C 234.626 76.463,235.662 75.396,236.134 74.130 C 236.557 72.997,237.655 71.928,239.082 71.258 C 240.513 70.587,241.329 69.759,241.983 68.315 C 242.583 66.990,243.677 65.886,244.806 65.464 C 246.215 64.939,247.505 63.593,247.976 62.159 C 248.249 61.328,249.553 60.132,250.848 59.524 C 252.156 58.910,253.313 57.750,253.745 56.620 C 254.310 55.141,253.034 53.168,250.848 52.143 C 249.553 51.535,248.249 50.339,247.976 49.508 C 247.505 48.073,246.215 46.728,244.806 46.202 C 243.664 45.776,242.600 44.691,241.935 43.273 C 241.257 41.827,240.432 41.007,239.000 40.358 C 237.662 39.751,236.553 38.659,236.134 37.536 C 235.662 36.271,234.626 35.203,233.252 34.567 C 232.219 34.089,230.500 32.684,230.500 32.318 C 230.500 31.944,232.087 30.648,233.202 30.112 C 234.692 29.395,235.692 28.371,236.127 27.113 C 236.305 26.602,236.719 25.967,237.198 25.473 L 237.978 24.667 241.167 24.667 L 244.355 24.667 245.177 25.511 " stroke="none" fill="#bcf0e4" fill-rule="evenodd"></path></g></svg>