<svg version="1.1" id="Layer_1" xmlns="http://www.w3.org/2000/svg" xmlns:xlink="http://www.w3.org/1999/xlink" x="0px" y="0px"
	 width="100%" viewBox="0 0 126 126" enable-background="new 0 0 126 126" xml:space="preserve">
<path fill="none" opacity="1.000000" stroke="none" 
	d="
M84.000000,127.000000 
	C56.000000,127.000000 28.500000,127.000000 1.000000,127.000000 
	C1.000000,85.000000 1.000000,43.000000 1.000000,1.000000 
	C43.000000,1.000000 85.000000,1.000000 127.000000,1.000000 
	C127.000000,43.000000 127.000000,85.000000 127.000000,127.000000 
	C112.833336,127.000000 98.666664,127.000000 84.000000,127.000000 
M91.068649,32.021500 
	C83.381363,32.071663 75.694069,32.121822 67.336960,32.026089 
	C66.885376,32.072762 66.433792,32.119434 65.057251,32.019379 
	C57.043053,32.065117 49.028851,32.110855 40.315144,32.021427 
	C31.841957,40.333645 23.368769,48.645863 14.329641,57.173450 
	C14.520954,57.805599 14.712267,58.437748 15.169444,59.687107 
	C30.957676,75.467926 46.729706,91.265060 62.566761,106.996735 
	C63.755787,108.177834 65.409035,108.891594 67.545151,109.865509 
	C83.648590,93.792618 99.766174,77.733810 115.819435,61.610950 
	C116.757126,60.669193 117.174454,59.209328 117.957176,57.293667 
	C109.791702,48.899612 101.632561,40.499348 93.428223,32.143463 
	C93.197525,31.908506 92.484154,32.147472 91.068649,32.021500 
z"/>
<path fill="#00C8FF" opacity="1.000000" stroke="none" 
	d="
M66.846481,109.822609 
	C65.409035,108.891594 63.755787,108.177834 62.566761,106.996735 
	C46.729706,91.265060 30.957676,75.467926 15.244709,59.228149 
	C15.547360,58.515549 15.774747,58.261909 16.470646,58.006096 
	C19.082079,58.002991 21.229311,58.089710 23.367105,57.984558 
	C29.572859,57.679325 35.774826,57.297131 41.988613,57.220360 
	C42.005306,57.679100 42.011669,57.862602 42.033623,58.416439 
	C42.532291,60.188808 42.866863,61.664650 43.521324,62.981514 
	C50.393917,76.810081 57.300613,90.621834 64.255112,104.409370 
	C64.910660,105.709015 65.955849,106.812119 66.827309,108.309128 
	C66.838478,109.015396 66.842476,109.418999 66.846481,109.822609 
z"/>
<path fill="#0079FF" opacity="1.000000" stroke="none" 
	d="
M67.195816,109.844055 
	C66.842476,109.418999 66.838478,109.015396 67.106873,108.092171 
	C75.252182,91.378906 83.125099,75.185257 91.193115,58.857994 
	C91.634392,58.523743 91.848000,58.292961 92.495850,58.026905 
	C101.253090,58.011379 109.543510,58.000973 117.833939,57.990570 
	C117.174454,59.209328 116.757126,60.669193 115.819435,61.610950 
	C99.766174,77.733810 83.648590,93.792618 67.195816,109.844055 
z"/>
<path fill="#00C8FF" opacity="1.000000" stroke="none" 
	d="
M42.018028,58.046108 
	C42.011669,57.862602 42.005306,57.679100 41.997749,56.897724 
	C42.011959,55.868580 42.027363,55.437305 42.375977,54.939987 
	C50.466862,47.304661 58.224537,39.735382 65.982208,32.166107 
	C66.433792,32.119434 66.885376,32.072762 67.855515,32.367737 
	C75.586128,40.469604 82.798187,48.229828 90.006157,56.318855 
	C89.998344,57.085270 89.994621,57.522881 89.522896,57.969810 
	C73.375938,58.001450 57.696983,58.023781 42.018028,58.046108 
z"/>
<path fill="#00FFFF" opacity="1.000000" stroke="none" 
	d="
M42.042770,55.006031 
	C42.027363,55.437305 42.011959,55.868580 41.987419,56.622490 
	C35.774826,57.297131 29.572859,57.679325 23.367105,57.984558 
	C21.229311,58.089710 19.082079,58.002991 16.316748,57.800442 
	C15.428084,57.384003 15.161833,57.171040 14.895582,56.958080 
	C23.368769,48.645863 31.841957,40.333645 40.667713,32.547676 
	C41.022675,34.880028 40.945126,36.690449 41.042377,38.491432 
	C41.339756,43.998245 41.704330,49.501434 42.042770,55.006031 
z"/>
<path fill="#00A0FF" opacity="1.000000" stroke="none" 
	d="
M117.895554,57.642120 
	C109.543510,58.000973 101.253090,58.011379 92.484520,57.690022 
	C91.996552,56.909756 91.986725,56.461254 91.982956,55.543358 
	C91.991295,47.437794 91.993568,39.801620 91.995850,32.165451 
	C92.484154,32.147472 93.197525,31.908506 93.428223,32.143463 
	C101.632561,40.499348 109.791702,48.899612 117.895554,57.642120 
z"/>
<path fill="#00DCFF" opacity="1.000000" stroke="none" 
	d="
M42.375977,54.939987 
	C41.704330,49.501434 41.339756,43.998245 41.042377,38.491432 
	C40.945126,36.690449 41.022675,34.880028 41.017467,32.615257 
	C49.028851,32.110855 57.043053,32.065117 65.519730,32.092743 
	C58.224537,39.735382 50.466862,47.304661 42.375977,54.939987 
z"/>
<path fill="#00B4FF" opacity="1.000000" stroke="none" 
	d="
M91.532242,32.093475 
	C91.993568,39.801620 91.991295,47.437794 91.655426,55.538612 
	C90.884644,55.998859 90.447441,55.994457 90.010246,55.990051 
	C82.798187,48.229828 75.586128,40.469604 68.190430,32.440681 
	C75.694069,32.121822 83.381363,32.071663 91.532242,32.093475 
z"/>
<path fill="#00F0FF" opacity="1.000000" stroke="none" 
	d="
M14.612612,57.065765 
	C15.161833,57.171040 15.428084,57.384003 15.848235,57.802620 
	C15.774747,58.261909 15.547360,58.515549 15.111776,58.919540 
	C14.712267,58.437748 14.520954,57.805599 14.612612,57.065765 
z"/>
<path fill="#00A0FF" opacity="1.000000" stroke="none" 
	d="
M42.033623,58.416439 
	C57.696983,58.023781 73.375938,58.001450 89.716873,58.115845 
	C90.630333,58.461140 90.836723,58.707489 90.998016,58.991611 
	C83.125099,75.185257 75.252182,91.378906 67.099701,107.789520 
	C65.955849,106.812119 64.910660,105.709015 64.255112,104.409370 
	C57.300613,90.621834 50.393917,76.810081 43.521324,62.981514 
	C42.866863,61.664650 42.532291,60.188808 42.033623,58.416439 
z"/>
<path fill="#00BFFF" opacity="1.000000" stroke="none" 
	d="
M91.193115,58.857994 
	C90.836723,58.707489 90.630333,58.461140 90.184875,58.106529 
	C89.994621,57.522881 89.998344,57.085270 90.006157,56.318855 
	C90.447441,55.994457 90.884644,55.998859 91.649368,56.008011 
	C91.986725,56.461254 91.996552,56.909756 92.017708,57.695141 
	C91.848000,58.292961 91.634392,58.523743 91.193115,58.857994 
z"/>
</svg>