<svg id="svg" version="1.1" xmlns="http://www.w3.org/2000/svg" xmlns:xlink="http://www.w3.org/1999/xlink" width="400" height="223.52941176470588" viewBox="0, 0, 400,223.52941176470588"><g id="svgg"><path id="path0" d="M12.646 6.100 C 12.704 6.250,13.104 6.380,13.536 6.389 C 14.455 6.409,14.289 6.155,13.258 5.962 C 12.745 5.867,12.571 5.906,12.646 6.100 M186.585 5.976 C 185.579 6.119,185.432 6.424,186.397 6.365 C 186.859 6.337,187.275 6.202,187.321 6.064 C 187.367 5.926,187.371 5.828,187.330 5.847 C 187.289 5.865,186.954 5.923,186.585 5.976 M212.694 6.108 C 212.732 6.222,213.132 6.337,213.584 6.364 C 214.035 6.392,214.359 6.340,214.303 6.250 C 214.152 6.005,212.614 5.869,212.694 6.108 M386.585 5.974 C 385.687 6.135,385.608 6.408,386.464 6.389 C 386.896 6.380,387.298 6.247,387.357 6.093 C 387.416 5.939,387.393 5.827,387.304 5.844 C 387.216 5.860,386.892 5.919,386.585 5.974 M8.652 6.180 C 8.480 6.351,8.670 6.708,8.933 6.708 C 9.035 6.708,9.177 6.557,9.248 6.372 C 9.376 6.040,8.934 5.897,8.652 6.180 M11.179 6.192 C 11.487 6.254,11.822 6.421,11.923 6.563 C 12.047 6.734,12.078 6.708,12.018 6.484 C 11.967 6.295,11.643 6.133,11.274 6.113 C 10.711 6.083,10.698 6.094,11.179 6.192 M21.688 6.184 C 23.665 6.487,23.778 6.521,23.461 6.722 C 23.285 6.833,22.877 6.926,22.554 6.928 C 21.035 6.937,21.481 7.789,23.030 7.837 L 23.589 7.854 23.030 8.089 C 22.671 8.240,22.577 8.363,22.766 8.434 C 22.985 8.516,22.931 8.684,22.560 9.079 L 22.057 9.614 22.711 9.637 C 23.360 9.659,23.361 9.660,22.806 9.838 C 22.459 9.949,22.390 10.025,22.624 10.039 C 22.996 10.061,23.127 10.956,22.758 10.956 C 22.662 10.956,22.582 11.157,22.582 11.403 C 22.582 11.659,22.732 11.850,22.931 11.850 C 23.123 11.850,23.217 11.951,23.141 12.074 C 23.065 12.197,23.093 12.297,23.203 12.297 C 23.562 12.297,23.412 12.968,23.048 12.986 C 22.815 12.997,22.790 13.042,22.975 13.117 C 23.130 13.179,23.186 13.343,23.101 13.481 C 22.768 14.019,22.832 14.757,23.213 14.773 C 23.517 14.785,23.503 14.825,23.141 14.980 C 22.895 15.086,22.813 15.180,22.958 15.188 C 23.144 15.199,23.165 15.401,23.030 15.875 C 22.914 16.277,22.920 16.546,23.045 16.546 C 23.276 16.546,23.231 17.037,22.984 17.223 C 22.656 17.470,23.415 18.465,24.308 18.957 C 26.549 20.194,22.280 20.132,100.778 20.069 L 173.169 20.011 174.511 19.520 C 175.880 19.019,177.593 17.532,177.131 17.246 C 177.005 17.168,176.926 16.627,176.957 16.042 C 176.990 15.392,176.917 14.979,176.767 14.977 C 176.623 14.975,176.639 14.900,176.807 14.793 C 177.101 14.607,177.089 13.961,176.783 13.471 C 176.668 13.288,176.747 13.186,177.013 13.176 C 177.343 13.163,177.355 13.132,177.077 13.008 C 176.890 12.925,176.752 12.731,176.770 12.577 C 176.788 12.423,176.815 12.197,176.831 12.074 C 176.846 11.951,177.001 11.850,177.174 11.850 C 177.533 11.850,177.518 11.512,177.127 10.803 C 176.772 10.157,176.787 10.066,177.250 10.039 C 177.511 10.024,177.455 9.957,177.082 9.838 L 176.523 9.659 177.138 9.637 C 177.817 9.612,177.924 9.364,177.431 8.955 C 177.254 8.808,177.160 8.552,177.224 8.388 C 177.288 8.221,177.159 8.042,176.931 7.983 C 176.652 7.911,176.712 7.869,177.120 7.852 C 178.543 7.790,178.811 6.931,177.407 6.931 C 175.832 6.931,176.310 6.410,178.088 6.188 C 178.457 6.142,143.292 6.103,99.944 6.101 C 56.596 6.099,21.381 6.136,21.688 6.184 M188.187 6.186 C 188.105 6.268,188.040 6.444,188.041 6.577 C 188.044 6.738,188.100 6.733,188.209 6.563 C 188.299 6.421,188.625 6.259,188.932 6.202 L 189.491 6.098 188.914 6.067 C 188.596 6.051,188.269 6.104,188.187 6.186 M190.667 6.185 C 190.821 6.248,190.891 6.390,190.822 6.501 C 190.753 6.613,190.811 6.881,190.949 7.097 C 191.170 7.441,191.187 7.443,191.086 7.113 C 191.022 6.906,191.083 6.699,191.220 6.653 C 191.587 6.531,191.207 6.034,190.764 6.055 C 190.529 6.066,190.492 6.115,190.667 6.185 M208.694 6.303 C 208.603 6.450,208.642 6.607,208.780 6.653 C 208.917 6.699,208.978 6.906,208.914 7.113 C 208.813 7.443,208.830 7.441,209.051 7.097 C 209.189 6.881,209.247 6.613,209.178 6.501 C 209.109 6.390,209.179 6.248,209.333 6.185 C 209.508 6.115,209.471 6.066,209.236 6.055 C 209.028 6.045,208.784 6.157,208.694 6.303 M211.068 6.192 C 211.375 6.254,211.710 6.421,211.811 6.563 C 211.935 6.734,211.966 6.708,211.906 6.484 C 211.855 6.295,211.531 6.133,211.162 6.113 C 210.599 6.083,210.586 6.094,211.068 6.192 M221.912 6.188 C 223.690 6.410,224.168 6.931,222.593 6.931 C 221.189 6.931,221.457 7.790,222.880 7.852 C 223.288 7.869,223.348 7.911,223.069 7.983 C 222.841 8.042,222.712 8.221,222.776 8.388 C 222.840 8.552,222.746 8.808,222.569 8.955 C 222.076 9.364,222.183 9.612,222.862 9.637 L 223.477 9.659 222.918 9.838 C 222.545 9.957,222.489 10.024,222.750 10.039 C 223.213 10.066,223.228 10.157,222.873 10.803 C 222.482 11.512,222.467 11.850,222.826 11.850 C 222.999 11.850,223.154 11.951,223.169 12.074 C 223.185 12.197,223.212 12.423,223.230 12.577 C 223.248 12.731,223.110 12.925,222.923 13.008 C 222.645 13.132,222.657 13.163,222.987 13.176 C 223.253 13.186,223.332 13.288,223.217 13.471 C 222.911 13.961,222.899 14.607,223.193 14.793 C 223.365 14.902,223.380 14.975,223.231 14.977 C 223.076 14.979,223.008 15.396,223.049 16.098 C 223.085 16.713,223.030 17.216,222.928 17.216 C 222.825 17.216,222.818 17.543,222.912 17.943 C 223.352 19.808,224.155 20.568,226.167 21.019 C 227.731 21.370,372.119 21.371,373.740 21.020 C 375.791 20.576,376.769 19.663,377.041 17.940 C 377.104 17.542,377.080 17.216,376.988 17.216 C 376.896 17.216,376.821 17.065,376.821 16.881 C 376.821 16.696,376.898 16.546,376.992 16.546 C 377.086 16.546,377.076 16.244,376.970 15.875 C 376.835 15.401,376.856 15.199,377.042 15.188 C 377.187 15.180,377.105 15.086,376.859 14.980 C 376.497 14.825,376.483 14.785,376.787 14.773 C 377.168 14.757,377.232 14.019,376.899 13.481 C 376.814 13.343,376.870 13.179,377.025 13.117 C 377.210 13.042,377.185 12.997,376.952 12.986 C 376.588 12.968,376.438 12.297,376.797 12.297 C 376.907 12.297,376.935 12.197,376.859 12.074 C 376.783 11.951,376.877 11.850,377.069 11.850 C 377.268 11.850,377.418 11.659,377.418 11.403 C 377.418 11.157,377.338 10.956,377.242 10.956 C 376.873 10.956,377.004 10.061,377.376 10.039 C 377.610 10.025,377.541 9.949,377.194 9.838 C 376.639 9.660,376.640 9.659,377.289 9.637 L 377.943 9.614 377.440 9.079 C 377.069 8.684,377.015 8.516,377.234 8.434 C 377.423 8.363,377.329 8.240,376.970 8.089 L 376.411 7.854 376.970 7.837 C 378.519 7.789,378.965 6.937,377.446 6.928 C 377.123 6.926,376.715 6.833,376.539 6.722 C 376.222 6.521,376.335 6.487,378.312 6.184 C 378.619 6.136,343.404 6.099,300.056 6.101 C 256.708 6.103,221.543 6.142,221.912 6.188 M388.075 6.186 C 387.993 6.268,387.928 6.444,387.930 6.577 C 387.932 6.738,387.988 6.733,388.097 6.563 C 388.188 6.421,388.513 6.259,388.821 6.202 L 389.380 6.098 388.802 6.067 C 388.484 6.051,388.157 6.104,388.075 6.186 M390.749 6.365 C 390.826 6.564,390.984 6.695,391.101 6.656 C 391.436 6.544,391.340 6.156,390.957 6.077 C 390.718 6.027,390.654 6.116,390.749 6.365 M7.267 6.484 C 7.191 6.607,7.200 6.708,7.288 6.708 C 7.376 6.708,7.268 6.907,7.048 7.150 C 6.828 7.393,6.561 7.538,6.454 7.472 C 6.159 7.289,6.223 7.699,6.540 8.018 C 6.764 8.244,6.742 8.345,6.428 8.521 C 6.213 8.643,6.037 8.900,6.037 9.094 C 6.037 9.583,6.638 9.077,6.836 8.420 C 7.035 7.765,7.824 6.933,8.256 6.924 C 8.541 6.918,8.526 6.855,8.174 6.589 C 7.664 6.203,7.455 6.179,7.267 6.484 M391.830 6.586 C 391.477 6.853,391.460 6.918,391.744 6.924 C 392.176 6.933,392.965 7.765,393.164 8.420 C 393.362 9.077,393.963 9.583,393.963 9.094 C 393.963 8.900,393.787 8.643,393.572 8.521 C 393.258 8.345,393.236 8.244,393.460 8.018 C 393.777 7.699,393.841 7.289,393.546 7.472 C 393.334 7.603,392.465 6.746,392.582 6.522 C 392.736 6.229,392.248 6.270,391.830 6.586 M191.632 6.800 C 191.367 7.118,191.380 7.145,191.732 7.010 C 191.990 6.911,192.083 6.941,191.990 7.092 C 191.908 7.225,192.007 7.315,192.217 7.297 C 192.425 7.280,192.747 7.565,192.942 7.937 C 193.135 8.306,193.320 8.652,193.354 8.707 C 193.387 8.761,193.585 8.635,193.793 8.427 C 194.148 8.072,194.139 8.049,193.648 8.049 C 193.206 8.049,193.169 7.997,193.409 7.708 C 193.700 7.357,193.563 7.051,193.106 7.033 C 192.963 7.027,192.872 6.897,192.904 6.744 C 192.948 6.536,192.854 6.524,192.531 6.696 C 192.226 6.859,192.074 6.855,192.017 6.681 C 191.966 6.530,191.818 6.575,191.632 6.800 M207.096 6.744 C 207.128 6.897,207.037 7.027,206.894 7.033 C 206.437 7.051,206.300 7.357,206.591 7.708 C 206.831 7.997,206.794 8.049,206.352 8.049 C 205.861 8.049,205.852 8.072,206.207 8.427 C 206.415 8.635,206.613 8.761,206.646 8.707 C 206.680 8.652,206.865 8.306,207.058 7.937 C 207.253 7.565,207.575 7.280,207.783 7.297 C 207.993 7.315,208.092 7.225,208.010 7.092 C 207.917 6.941,208.010 6.911,208.268 7.010 C 208.620 7.145,208.633 7.118,208.368 6.800 C 208.182 6.575,208.034 6.530,207.983 6.681 C 207.926 6.855,207.774 6.859,207.469 6.696 C 207.146 6.524,207.052 6.536,207.096 6.744 M192.899 9.188 C 193.052 9.383,193.105 9.615,193.018 9.703 C 192.930 9.790,193.032 9.795,193.243 9.714 C 193.519 9.608,193.633 9.684,193.645 9.982 C 193.655 10.210,193.708 10.288,193.764 10.154 C 193.819 10.021,193.767 9.668,193.648 9.372 C 193.530 9.075,193.426 8.970,193.418 9.139 C 193.406 9.399,193.344 9.399,193.013 9.139 C 192.667 8.867,192.654 8.873,192.899 9.188 M206.287 9.475 C 206.199 9.826,206.182 10.169,206.250 10.237 C 206.317 10.304,206.372 10.181,206.372 9.963 C 206.372 9.680,206.482 9.609,206.757 9.714 C 206.968 9.795,207.070 9.790,206.982 9.703 C 206.895 9.615,206.948 9.383,207.101 9.188 C 207.343 8.877,207.331 8.869,207.009 9.121 C 206.709 9.355,206.621 9.356,206.544 9.122 C 206.491 8.964,206.376 9.123,206.287 9.475 M6.817 9.618 C 6.740 9.743,6.583 9.787,6.469 9.717 C 6.354 9.646,6.260 9.812,6.260 10.086 C 6.260 10.359,6.287 10.541,6.319 10.490 C 6.351 10.439,6.568 10.170,6.801 9.894 C 7.034 9.617,7.164 9.391,7.091 9.391 C 7.018 9.391,6.894 9.493,6.817 9.618 M393.178 9.842 C 393.423 10.147,393.649 10.439,393.681 10.490 C 393.713 10.541,393.740 10.348,393.740 10.061 C 393.740 9.775,393.673 9.606,393.592 9.687 C 393.511 9.768,393.285 9.711,393.089 9.560 C 392.874 9.395,392.909 9.505,393.178 9.842 M6.037 11.278 C 6.037 11.578,6.119 11.875,6.220 11.937 C 6.321 11.999,6.360 11.754,6.306 11.391 C 6.189 10.592,6.037 10.528,6.037 11.278 M393.713 11.354 C 393.639 11.798,393.672 12.007,393.796 11.883 C 393.909 11.770,393.964 11.440,393.918 11.149 C 393.847 10.702,393.816 10.733,393.713 11.354 M193.672 11.403 C 193.672 11.710,193.753 12.214,193.851 12.521 L 194.030 13.080 194.030 12.521 C 194.030 12.214,193.950 11.710,193.851 11.403 L 193.672 10.844 193.672 11.403 M206.037 11.850 C 205.951 12.359,205.931 12.825,205.992 12.886 C 206.054 12.948,206.175 12.582,206.260 12.074 C 206.346 11.565,206.366 11.099,206.305 11.038 C 206.243 10.976,206.123 11.342,206.037 11.850 M5.962 13.258 C 6.155 14.289,6.409 14.455,6.389 13.536 C 6.380 13.104,6.250 12.704,6.100 12.646 C 5.906 12.571,5.867 12.745,5.962 13.258 M393.851 12.692 C 393.728 12.782,393.612 13.194,393.592 13.607 C 393.549 14.509,393.849 14.268,394.040 13.248 C 394.187 12.460,394.183 12.448,393.851 12.692 M193.748 16.400 C 193.753 16.912,193.835 17.455,193.929 17.609 C 194.178 18.011,205.822 18.011,206.071 17.609 C 206.293 17.248,206.313 15.438,206.093 15.574 C 206.001 15.631,205.925 16.124,205.925 16.671 L 205.925 17.663 200.000 17.663 L 194.075 17.663 194.075 16.671 C 194.075 16.124,193.999 15.631,193.907 15.574 C 193.815 15.517,193.743 15.889,193.748 16.400 M1.388 17.829 C 2.212 17.872,3.621 17.872,4.518 17.830 C 5.415 17.787,4.740 17.752,3.018 17.752 C 1.297 17.751,0.563 17.786,1.388 17.829 M395.351 17.829 C 396.175 17.872,397.584 17.872,398.481 17.830 C 399.378 17.787,398.703 17.752,396.982 17.752 C 395.260 17.751,394.526 17.786,395.351 17.829 M181.709 23.446 C 180.942 24.267,180.526 25.171,180.255 26.607 C 179.708 29.509,179.670 29.322,181.094 30.731 L 182.385 32.008 184.319 31.674 C 186.504 31.297,188.062 30.634,188.565 29.867 C 188.910 29.341,188.833 28.396,188.446 28.396 C 188.330 28.396,188.300 28.291,188.379 28.162 C 188.459 28.034,188.402 27.782,188.253 27.603 C 188.039 27.345,188.047 27.277,188.290 27.274 C 188.497 27.272,188.516 27.217,188.349 27.107 C 188.213 27.016,188.127 26.773,188.159 26.567 C 188.196 26.332,188.105 26.234,187.919 26.305 C 187.743 26.373,187.473 26.134,187.260 25.721 C 187.061 25.337,186.576 24.826,186.183 24.586 C 185.789 24.346,185.567 24.146,185.690 24.142 C 186.008 24.131,185.219 23.696,184.624 23.554 C 184.349 23.488,183.949 23.438,183.734 23.442 C 183.519 23.446,183.343 23.329,183.342 23.183 C 183.342 22.673,182.271 22.845,181.709 23.446 M216.657 23.159 C 216.657 23.319,216.481 23.446,216.266 23.442 C 216.051 23.438,215.651 23.488,215.376 23.554 C 214.781 23.696,213.992 24.131,214.310 24.142 C 214.433 24.146,214.211 24.346,213.817 24.586 C 213.424 24.826,212.939 25.337,212.740 25.721 C 212.527 26.134,212.257 26.373,212.081 26.305 C 211.895 26.234,211.804 26.332,211.841 26.567 C 211.873 26.773,211.787 27.016,211.651 27.107 C 211.484 27.217,211.503 27.272,211.710 27.274 C 211.953 27.277,211.961 27.345,211.747 27.603 C 211.598 27.782,211.541 28.034,211.621 28.162 C 211.700 28.291,211.669 28.396,211.552 28.396 C 211.068 28.396,211.056 29.571,211.529 30.549 C 212.143 31.818,213.033 32.278,215.686 32.697 L 217.732 33.020 219.278 31.658 C 221.695 29.529,221.632 29.668,221.231 27.366 C 220.820 25.011,220.218 23.850,219.146 23.341 C 218.144 22.865,216.657 22.757,216.657 23.159 M381.345 23.150 C 379.764 23.694,379.190 24.689,378.737 27.674 L 378.457 29.523 379.223 30.329 C 379.644 30.772,380.523 31.560,381.177 32.080 L 382.365 33.025 384.307 32.714 C 386.653 32.339,387.644 31.884,388.315 30.878 C 388.877 30.033,389.021 28.396,388.533 28.396 C 388.375 28.396,388.226 28.195,388.203 27.949 C 388.180 27.703,388.141 27.325,388.118 27.110 C 388.065 26.626,387.377 25.469,387.114 25.423 C 386.774 25.363,386.157 24.745,386.264 24.571 C 386.321 24.479,386.163 24.339,385.914 24.259 C 385.664 24.180,385.519 24.020,385.592 23.902 C 385.664 23.785,385.641 23.708,385.539 23.730 C 385.438 23.753,385.177 23.694,384.960 23.599 C 384.743 23.504,384.320 23.473,384.021 23.530 C 383.712 23.589,383.432 23.516,383.372 23.361 C 383.212 22.945,382.238 22.843,381.345 23.150 M16.639 23.332 C 16.569 23.516,16.310 23.593,15.979 23.530 C 15.680 23.473,15.257 23.504,15.040 23.599 C 14.823 23.694,14.562 23.753,14.461 23.730 C 14.359 23.708,14.336 23.785,14.408 23.902 C 14.481 24.020,14.336 24.180,14.086 24.259 C 13.837 24.339,13.679 24.479,13.736 24.571 C 13.843 24.745,13.226 25.363,12.886 25.423 C 12.623 25.469,11.935 26.626,11.882 27.110 C 11.859 27.325,11.820 27.703,11.797 27.949 C 11.774 28.195,11.625 28.396,11.467 28.396 C 10.983 28.396,11.135 29.618,11.683 30.130 C 12.372 30.776,14.048 31.463,15.351 31.635 C 15.947 31.714,16.697 31.827,17.018 31.887 C 17.857 32.043,20.123 29.978,20.123 29.059 C 20.123 27.042,18.977 23.717,18.125 23.261 C 17.520 22.937,16.777 22.973,16.639 23.332 M0.000 111.794 L 0.000 188.932 2.965 188.932 C 6.987 188.932,7.459 188.498,8.166 184.140 C 8.662 181.083,8.662 42.506,8.166 39.448 C 7.459 35.091,6.987 34.656,2.965 34.656 L 0.000 34.656 0.000 111.794 M193.463 35.153 C 192.757 35.904,192.123 37.471,191.854 39.129 C 191.525 41.162,191.525 182.427,191.854 184.459 C 192.122 186.110,192.757 187.685,193.454 188.427 C 193.925 188.928,193.985 188.932,199.957 188.932 C 207.358 188.932,207.415 188.912,208.408 185.914 C 208.649 185.184,208.731 172.652,208.853 117.719 C 208.947 75.370,209.090 48.678,209.240 45.724 C 209.569 39.234,209.137 36.595,207.545 35.380 L 206.743 34.768 200.345 34.703 L 193.947 34.637 193.463 35.153 M393.292 34.907 C 391.376 35.669,390.731 37.466,390.776 41.923 C 390.793 43.644,390.891 76.395,390.993 114.701 C 391.169 180.448,391.202 184.424,391.577 185.690 C 392.429 188.569,393.037 188.930,397.037 188.932 L 400.000 188.932 400.000 111.794 L 400.000 34.656 396.926 34.670 C 395.235 34.678,393.600 34.785,393.292 34.907 M51.761 79.911 C 48.046 81.091,45.150 84.189,44.393 87.792 C 43.804 90.593,47.578 95.213,51.443 96.423 C 53.521 97.074,55.823 99.183,56.310 100.882 C 57.438 104.823,59.699 107.138,63.611 108.358 C 65.662 108.997,67.443 110.866,68.275 113.252 C 69.616 117.096,71.856 119.154,75.984 120.333 C 77.259 120.697,79.410 123.067,79.904 124.651 C 81.111 128.524,84.110 131.401,87.625 132.061 C 89.003 132.319,91.219 134.836,91.852 136.861 C 92.863 140.097,95.188 142.445,98.461 143.534 C 102.163 144.766,107.135 141.090,108.437 136.158 C 108.779 134.864,111.309 132.281,112.480 132.030 C 116.022 131.272,119.569 127.747,120.208 124.348 C 120.459 123.014,122.701 120.880,124.606 120.161 C 128.764 118.593,130.409 116.984,131.788 113.136 C 132.588 110.902,134.243 109.157,136.251 108.431 C 140.477 106.902,142.457 104.917,143.678 100.990 C 144.240 99.182,146.391 97.120,148.353 96.508 C 152.068 95.349,154.479 92.844,155.437 89.149 C 156.240 86.052,152.827 81.478,148.664 80.072 L 147.258 79.598 99.957 79.612 C 62.362 79.624,52.472 79.686,51.761 79.911 M251.367 81.725 C 249.304 82.757,247.394 84.686,246.400 86.741 L 245.650 88.292 246.389 89.794 C 247.463 91.975,249.390 93.814,251.890 95.043 C 254.623 96.387,256.652 98.409,257.934 101.065 C 259.265 103.824,260.612 105.195,263.436 106.665 C 266.512 108.267,268.286 110.022,269.650 112.814 C 270.984 115.543,272.686 117.250,275.370 118.550 C 278.118 119.881,280.117 121.876,281.482 124.651 C 282.810 127.348,284.458 128.994,287.200 130.357 C 289.700 131.601,291.964 133.733,292.841 135.671 C 294.288 138.866,296.270 140.917,299.206 142.254 C 301.100 143.117,304.791 140.245,306.795 136.348 C 308.219 133.577,310.069 131.754,312.985 130.248 C 315.610 128.893,317.159 127.332,318.543 124.651 C 319.840 122.137,321.933 119.876,323.739 119.036 C 327.042 117.499,328.891 115.723,330.467 112.571 C 331.705 110.094,333.835 108.013,336.354 106.816 C 338.855 105.628,340.615 103.869,342.070 101.102 C 343.609 98.174,345.218 96.555,348.086 95.047 C 351.935 93.023,354.805 89.370,354.020 87.491 C 352.930 84.883,350.641 82.599,347.840 81.324 C 347.048 80.964,343.991 80.939,299.967 80.939 L 252.939 80.939 251.367 81.725 M148.425 84.051 C 149.767 85.022,151.770 87.278,151.961 88.033 C 152.258 89.213,149.402 92.091,146.242 93.795 C 143.668 95.183,142.020 96.865,140.648 99.501 C 139.340 102.017,137.161 104.187,134.703 105.422 C 132.276 106.642,130.116 108.806,128.899 111.238 C 127.675 113.683,125.537 115.821,122.974 117.163 C 120.430 118.496,118.496 120.430,117.163 122.974 C 115.812 125.554,113.697 127.662,111.124 128.995 C 108.904 130.145,106.615 132.295,105.751 134.041 C 104.424 136.724,102.296 139.209,100.553 140.110 C 99.360 140.727,96.513 138.181,94.706 134.883 C 92.982 131.737,91.557 130.318,88.610 128.815 C 85.988 127.477,84.369 125.800,82.694 122.687 C 81.490 120.450,79.630 118.526,77.762 117.586 C 74.246 115.815,72.447 114.017,70.677 110.502 C 69.778 108.716,67.821 106.758,65.956 105.777 C 62.560 103.992,60.912 102.417,59.353 99.468 C 57.949 96.813,56.224 95.061,53.697 93.724 C 51.477 92.549,49.856 91.198,48.686 89.549 L 47.807 88.309 48.487 87.251 C 49.267 86.038,50.698 84.598,51.960 83.755 L 52.829 83.175 100.031 83.182 L 147.233 83.189 148.425 84.051 M348.219 87.179 L 349.301 88.277 348.281 89.368 C 347.388 90.323,347.086 90.494,345.850 90.749 C 341.421 91.662,338.965 94.054,337.842 98.548 C 337.238 100.964,336.202 101.991,333.731 102.622 C 329.268 103.761,327.124 105.922,326.085 110.328 C 325.517 112.737,324.590 113.609,321.708 114.444 C 317.334 115.712,315.468 117.626,314.371 121.970 C 313.805 124.210,312.461 125.714,310.777 125.988 C 306.412 126.701,303.408 129.644,302.487 134.111 C 302.233 135.347,302.061 135.649,301.106 136.543 L 300.016 137.562 298.934 136.497 C 298.006 135.583,297.798 135.210,297.468 133.863 C 296.371 129.384,293.934 126.974,289.597 126.078 C 287.616 125.669,286.210 124.210,285.638 121.968 C 284.501 117.517,282.284 115.320,277.939 114.339 C 275.938 113.887,274.516 112.553,274.025 110.666 C 272.764 105.825,270.834 103.790,266.411 102.639 C 263.932 101.995,262.760 100.866,262.158 98.544 C 261.008 94.109,259.030 92.050,254.888 90.975 C 253.256 90.551,252.842 90.340,251.928 89.464 C 250.626 88.216,250.625 88.150,251.868 87.004 L 252.869 86.082 300.003 86.082 L 347.138 86.082 348.219 87.179 M215.150 191.502 C 212.291 192.021,209.843 194.502,211.546 195.156 C 211.653 195.197,211.682 195.327,211.609 195.445 C 211.536 195.563,211.598 195.806,211.747 195.985 C 211.961 196.243,211.953 196.311,211.710 196.314 C 211.503 196.317,211.484 196.371,211.651 196.482 C 211.787 196.572,211.873 196.815,211.841 197.022 C 211.804 197.257,211.895 197.355,212.081 197.283 C 212.257 197.216,212.527 197.455,212.740 197.868 C 212.939 198.252,213.424 198.763,213.817 199.003 C 214.211 199.243,214.433 199.443,214.310 199.447 C 213.992 199.458,214.781 199.893,215.376 200.035 C 215.651 200.100,216.051 200.151,216.266 200.147 C 216.481 200.143,216.657 200.259,216.658 200.405 C 216.658 200.959,217.763 200.724,218.626 199.986 C 219.572 199.175,220.063 197.866,220.358 195.367 L 220.508 194.088 219.106 192.628 C 217.573 191.031,217.641 191.050,215.150 191.502 M381.833 191.612 C 381.518 191.859,380.862 192.540,380.374 193.124 L 379.488 194.187 379.690 195.752 C 379.942 197.708,380.656 199.541,381.389 200.118 C 382.031 200.623,383.189 200.705,383.361 200.257 C 383.431 200.073,383.690 199.995,384.021 200.058 C 384.320 200.116,384.743 200.085,384.960 199.990 C 385.177 199.895,385.438 199.836,385.539 199.858 C 385.641 199.881,385.664 199.803,385.592 199.686 C 385.519 199.569,385.664 199.408,385.914 199.329 C 386.163 199.250,386.321 199.110,386.264 199.018 C 386.157 198.844,386.774 198.225,387.114 198.166 C 387.377 198.119,388.065 196.963,388.118 196.478 C 388.141 196.263,388.180 195.886,388.203 195.640 C 388.226 195.394,388.375 195.193,388.533 195.193 C 389.162 195.193,388.856 193.679,388.069 192.891 C 386.784 191.606,382.863 190.802,381.833 191.612 M15.718 191.870 C 14.129 192.098,12.414 192.773,11.683 193.458 C 11.135 193.970,10.983 195.193,11.467 195.193 C 11.625 195.193,11.774 195.394,11.797 195.640 C 11.820 195.886,11.859 196.263,11.882 196.478 C 11.928 196.902,12.640 198.171,12.774 198.070 C 12.929 197.953,13.840 198.850,13.736 199.018 C 13.679 199.110,13.837 199.250,14.086 199.329 C 14.336 199.408,14.481 199.569,14.408 199.686 C 14.336 199.803,14.359 199.881,14.461 199.858 C 14.562 199.836,14.823 199.895,15.040 199.990 C 15.257 200.085,15.680 200.116,15.979 200.058 C 16.310 199.995,16.569 200.073,16.639 200.257 C 16.777 200.616,17.520 200.651,18.125 200.328 C 18.977 199.872,20.123 196.546,20.123 194.530 C 20.123 193.872,17.937 191.583,17.366 191.643 C 17.222 191.658,16.481 191.760,15.718 191.870 M181.059 192.901 C 179.972 194.008,179.811 194.280,179.902 194.857 C 180.439 198.272,180.819 199.357,181.777 200.224 C 182.326 200.720,183.343 200.845,183.343 200.416 C 183.343 200.264,183.519 200.143,183.734 200.147 C 183.949 200.151,184.349 200.100,184.624 200.035 C 185.219 199.893,186.008 199.458,185.690 199.447 C 185.567 199.443,185.789 199.243,186.183 199.003 C 186.576 198.763,187.061 198.252,187.260 197.868 C 187.473 197.455,187.743 197.216,187.919 197.283 C 188.105 197.355,188.196 197.257,188.159 197.022 C 188.127 196.815,188.213 196.572,188.349 196.482 C 188.516 196.371,188.497 196.317,188.290 196.314 C 188.047 196.311,188.039 196.243,188.253 195.985 C 188.402 195.806,188.459 195.555,188.379 195.426 C 188.300 195.298,188.330 195.193,188.446 195.193 C 188.833 195.193,188.910 194.248,188.565 193.722 C 187.977 192.824,184.750 191.698,182.553 191.623 C 182.426 191.619,181.754 192.194,181.059 192.901 M227.924 203.281 C 225.924 203.502,224.815 203.851,224.038 204.504 C 223.302 205.124,222.540 206.372,222.899 206.372 C 223.017 206.372,223.085 206.875,223.049 207.490 C 223.008 208.193,223.076 208.609,223.231 208.612 C 223.380 208.614,223.365 208.686,223.193 208.795 C 222.899 208.982,222.911 209.627,223.217 210.117 C 223.332 210.301,223.253 210.402,222.987 210.413 C 222.657 210.425,222.645 210.456,222.923 210.580 C 223.110 210.664,223.248 210.858,223.230 211.012 C 223.212 211.165,223.185 211.392,223.169 211.515 C 223.154 211.638,222.999 211.738,222.826 211.738 C 222.467 211.738,222.482 212.076,222.873 212.786 C 223.228 213.432,223.213 213.523,222.750 213.549 C 222.489 213.564,222.545 213.631,222.918 213.751 L 223.477 213.930 222.862 213.952 C 222.183 213.977,222.076 214.225,222.569 214.634 C 222.746 214.781,222.840 215.036,222.776 215.201 C 222.712 215.368,222.841 215.547,223.069 215.606 C 223.348 215.678,223.288 215.719,222.880 215.737 C 221.457 215.799,221.189 216.657,222.593 216.657 C 224.168 216.657,223.690 217.179,221.912 217.401 C 221.543 217.447,256.708 217.486,300.056 217.488 C 343.404 217.489,378.619 217.452,378.312 217.405 C 376.335 217.102,376.222 217.067,376.539 216.867 C 376.715 216.755,377.123 216.663,377.446 216.661 C 378.965 216.652,378.519 215.800,376.970 215.752 L 376.411 215.735 376.970 215.500 C 377.329 215.349,377.423 215.225,377.234 215.154 C 377.015 215.073,377.069 214.905,377.440 214.509 L 377.943 213.974 377.289 213.952 C 376.640 213.930,376.639 213.928,377.194 213.751 C 377.541 213.640,377.610 213.563,377.376 213.549 C 377.004 213.527,376.873 212.633,377.242 212.633 C 377.338 212.633,377.418 212.432,377.418 212.186 C 377.418 211.930,377.268 211.738,377.069 211.738 C 376.877 211.738,376.783 211.638,376.859 211.515 C 376.935 211.392,376.907 211.291,376.797 211.291 C 376.438 211.291,376.588 210.621,376.952 210.603 C 377.185 210.591,377.210 210.546,377.025 210.472 C 376.870 210.410,376.814 210.246,376.899 210.108 C 377.232 209.570,377.168 208.832,376.787 208.816 C 376.483 208.803,376.497 208.764,376.859 208.608 C 377.105 208.502,377.187 208.409,377.042 208.400 C 376.856 208.389,376.835 208.187,376.970 207.714 C 377.086 207.311,377.080 207.043,376.955 207.043 C 376.722 207.043,376.770 206.551,377.021 206.363 C 378.002 205.627,374.945 203.574,372.539 203.352 C 370.482 203.163,229.623 203.094,227.924 203.281 M26.655 203.805 C 24.449 204.286,22.256 205.816,22.984 206.366 C 23.231 206.552,23.276 207.043,23.045 207.043 C 22.920 207.043,22.914 207.311,23.030 207.714 C 23.165 208.187,23.144 208.389,22.958 208.400 C 22.813 208.409,22.895 208.502,23.141 208.608 C 23.503 208.764,23.517 208.803,23.213 208.816 C 22.832 208.832,22.768 209.570,23.101 210.108 C 23.186 210.246,23.130 210.410,22.975 210.472 C 22.790 210.546,22.815 210.591,23.048 210.603 C 23.412 210.621,23.562 211.291,23.203 211.291 C 23.093 211.291,23.065 211.392,23.141 211.515 C 23.217 211.638,23.123 211.738,22.931 211.738 C 22.732 211.738,22.582 211.930,22.582 212.186 C 22.582 212.432,22.662 212.633,22.758 212.633 C 23.127 212.633,22.996 213.527,22.624 213.549 C 22.390 213.563,22.459 213.640,22.806 213.751 C 23.361 213.928,23.360 213.930,22.711 213.952 L 22.057 213.974 22.560 214.509 C 22.931 214.905,22.985 215.073,22.766 215.154 C 22.577 215.225,22.671 215.349,23.030 215.500 L 23.589 215.735 23.030 215.752 C 21.481 215.800,21.035 216.652,22.554 216.661 C 22.877 216.663,23.285 216.755,23.461 216.867 C 23.778 217.067,23.665 217.102,21.688 217.405 C 21.381 217.452,56.596 217.489,99.944 217.488 C 143.292 217.486,178.457 217.447,178.088 217.401 C 176.310 217.179,175.832 216.657,177.407 216.657 C 178.811 216.657,178.543 215.799,177.120 215.737 C 176.712 215.719,176.652 215.678,176.931 215.606 C 177.159 215.547,177.288 215.368,177.224 215.201 C 177.160 215.036,177.254 214.781,177.431 214.634 C 177.924 214.225,177.817 213.977,177.138 213.952 L 176.523 213.930 177.082 213.751 C 177.455 213.631,177.511 213.564,177.250 213.549 C 176.787 213.523,176.772 213.432,177.127 212.786 C 177.518 212.076,177.533 211.738,177.174 211.738 C 177.001 211.738,176.846 211.638,176.831 211.515 C 176.815 211.392,176.788 211.165,176.770 211.012 C 176.752 210.858,176.890 210.664,177.077 210.580 C 177.355 210.456,177.343 210.425,177.013 210.413 C 176.747 210.402,176.668 210.301,176.783 210.117 C 177.089 209.627,177.101 208.982,176.807 208.795 C 176.639 208.689,176.623 208.614,176.767 208.612 C 176.917 208.609,176.990 208.196,176.957 207.546 C 176.926 206.962,177.005 206.420,177.131 206.342 C 177.593 206.056,175.880 204.569,174.511 204.068 L 173.169 203.577 100.615 203.538 C 39.922 203.506,27.831 203.549,26.655 203.805 M1.388 205.867 C 2.212 205.910,3.621 205.910,4.518 205.868 C 5.415 205.825,4.740 205.790,3.018 205.790 C 1.297 205.789,0.563 205.824,1.388 205.867 M193.929 205.980 C 193.707 206.340,193.687 208.150,193.907 208.014 C 193.999 207.958,194.075 207.464,194.075 206.918 L 194.075 205.925 200.000 205.925 L 205.925 205.925 205.925 206.918 C 205.925 207.464,206.001 207.958,206.093 208.014 C 206.313 208.150,206.293 206.340,206.071 205.980 C 205.940 205.769,204.466 205.702,200.000 205.702 C 195.534 205.702,194.060 205.769,193.929 205.980 M395.351 205.867 C 396.175 205.910,397.584 205.910,398.481 205.868 C 399.378 205.825,398.703 205.790,396.982 205.790 C 395.260 205.789,394.526 205.824,395.351 205.867 M6.160 209.558 C 5.850 210.567,5.825 211.049,6.090 210.947 C 6.245 210.887,6.380 210.487,6.389 210.058 C 6.406 209.261,6.314 209.060,6.160 209.558 M393.611 210.052 C 393.620 210.484,393.750 210.885,393.900 210.943 C 394.094 211.018,394.133 210.844,394.038 210.331 C 393.845 209.299,393.591 209.133,393.611 210.052 M193.740 211.515 C 193.654 212.023,193.634 212.490,193.695 212.551 C 193.757 212.613,193.877 212.247,193.963 211.738 C 194.049 211.230,194.069 210.764,194.008 210.702 C 193.946 210.641,193.825 211.006,193.740 211.515 M205.970 211.068 C 205.970 211.375,206.050 211.878,206.149 212.186 L 206.328 212.745 206.328 212.186 C 206.328 211.878,206.247 211.375,206.149 211.068 L 205.970 210.509 205.970 211.068 M6.123 211.837 C 6.055 212.014,6.038 212.341,6.087 212.564 C 6.141 212.816,6.218 212.695,6.290 212.241 C 6.412 211.480,6.333 211.289,6.123 211.837 M393.713 212.234 C 393.816 212.855,393.847 212.887,393.918 212.439 C 393.964 212.148,393.909 211.818,393.796 211.706 C 393.672 211.582,393.639 211.790,393.713 212.234 M6.260 213.527 C 6.260 213.814,6.327 213.983,6.408 213.902 C 6.489 213.821,6.715 213.878,6.911 214.028 C 7.126 214.194,7.091 214.083,6.822 213.747 C 6.577 213.442,6.351 213.150,6.319 213.099 C 6.287 213.047,6.260 213.240,6.260 213.527 M393.191 213.702 C 392.918 214.082,392.883 214.206,393.100 214.032 C 393.290 213.879,393.511 213.821,393.592 213.902 C 393.673 213.983,393.740 213.831,393.740 213.564 C 393.740 212.958,393.723 212.962,393.191 213.702 M193.645 213.607 C 193.633 213.905,193.519 213.981,193.243 213.875 C 193.032 213.793,192.930 213.799,193.018 213.886 C 193.105 213.973,193.052 214.205,192.899 214.401 C 192.654 214.716,192.667 214.721,193.013 214.450 C 193.344 214.190,193.406 214.190,193.418 214.450 C 193.426 214.619,193.530 214.514,193.648 214.217 C 193.767 213.920,193.819 213.568,193.764 213.434 C 193.708 213.301,193.655 213.379,193.645 213.607 M206.190 213.527 C 206.177 213.956,206.559 214.860,206.580 214.450 C 206.593 214.190,206.656 214.190,206.987 214.450 C 207.333 214.721,207.346 214.716,207.101 214.401 C 206.948 214.205,206.895 213.973,206.982 213.886 C 207.070 213.799,206.977 213.790,206.776 213.867 C 206.535 213.960,206.376 213.869,206.306 213.599 C 206.240 213.345,206.197 213.318,206.190 213.527 M6.037 214.495 C 6.037 214.688,6.213 214.946,6.428 215.067 C 6.742 215.244,6.764 215.344,6.540 215.570 C 6.223 215.890,6.159 216.299,6.454 216.117 C 6.666 215.986,7.535 216.842,7.418 217.067 C 7.264 217.360,7.752 217.319,8.170 217.003 C 8.523 216.736,8.540 216.670,8.256 216.664 C 7.824 216.656,7.035 215.824,6.836 215.168 C 6.638 214.512,6.037 214.005,6.037 214.495 M393.446 214.653 C 393.239 214.949,393.069 215.303,393.069 215.438 C 393.069 215.782,392.102 216.656,391.713 216.664 C 391.484 216.670,391.518 216.767,391.830 217.003 C 392.248 217.319,392.736 217.360,392.582 217.067 C 392.465 216.842,393.334 215.986,393.546 216.117 C 393.835 216.296,393.779 215.892,393.472 215.585 C 393.264 215.377,393.296 215.250,393.615 215.018 C 393.840 214.853,393.979 214.582,393.924 214.416 C 393.854 214.205,393.710 214.276,393.446 214.653 M192.957 215.600 C 192.753 216.039,192.469 216.310,192.233 216.291 C 192.012 216.274,191.907 216.363,191.990 216.497 C 192.083 216.648,191.990 216.677,191.732 216.578 C 191.380 216.443,191.367 216.470,191.632 216.789 C 191.818 217.013,191.966 217.059,192.017 216.907 C 192.074 216.734,192.226 216.729,192.531 216.892 C 192.854 217.065,192.948 217.053,192.904 216.845 C 192.872 216.691,192.963 216.561,193.106 216.556 C 193.563 216.538,193.700 216.232,193.409 215.880 C 193.170 215.592,193.203 215.539,193.628 215.539 C 194.049 215.539,194.085 215.485,193.851 215.204 C 193.458 214.730,193.336 214.783,192.957 215.600 M206.149 215.204 C 205.915 215.485,205.951 215.539,206.372 215.539 C 206.797 215.539,206.830 215.592,206.591 215.880 C 206.300 216.232,206.437 216.538,206.894 216.556 C 207.037 216.561,207.128 216.691,207.096 216.845 C 207.052 217.053,207.146 217.065,207.469 216.892 C 207.774 216.729,207.926 216.734,207.983 216.907 C 208.034 217.059,208.182 217.013,208.368 216.789 C 208.633 216.470,208.620 216.443,208.268 216.578 C 208.010 216.677,207.917 216.648,208.010 216.497 C 208.093 216.363,207.988 216.274,207.767 216.291 C 207.531 216.310,207.247 216.039,207.043 215.600 C 206.664 214.783,206.542 214.730,206.149 215.204 M190.911 216.434 C 190.893 216.557,190.868 216.783,190.855 216.937 C 190.843 217.091,190.732 217.290,190.609 217.381 C 190.482 217.474,190.548 217.546,190.764 217.548 C 191.212 217.552,191.582 217.056,191.220 216.936 C 191.083 216.890,191.025 216.708,191.093 216.531 C 191.161 216.355,191.155 216.210,191.080 216.210 C 191.006 216.210,190.930 216.311,190.911 216.434 M208.914 216.475 C 208.978 216.682,208.917 216.890,208.780 216.936 C 208.413 217.058,208.793 217.555,209.236 217.534 C 209.471 217.523,209.508 217.474,209.333 217.403 C 209.179 217.341,209.109 217.199,209.178 217.087 C 209.247 216.976,209.189 216.708,209.051 216.491 C 208.830 216.148,208.813 216.146,208.914 216.475 M8.652 217.024 C 8.445 217.231,8.694 217.552,9.062 217.552 C 9.250 217.552,9.325 217.417,9.248 217.216 C 9.112 216.861,8.887 216.788,8.652 217.024 M11.850 217.067 C 11.850 217.211,11.574 217.342,11.235 217.359 C 10.671 217.387,10.664 217.397,11.149 217.489 C 11.693 217.592,12.275 217.231,12.003 216.959 C 11.919 216.875,11.850 216.924,11.850 217.067 M188.094 217.105 C 188.145 217.294,188.469 217.455,188.838 217.475 C 189.401 217.506,189.414 217.495,188.932 217.397 C 188.625 217.334,188.290 217.167,188.189 217.026 C 188.065 216.854,188.034 216.880,188.094 217.105 M211.738 217.067 C 211.738 217.211,211.462 217.342,211.124 217.359 C 210.559 217.387,210.552 217.397,211.038 217.489 C 211.582 217.592,212.163 217.231,211.891 216.959 C 211.807 216.875,211.738 216.924,211.738 217.067 M387.982 217.105 C 388.033 217.294,388.357 217.455,388.726 217.475 C 389.289 217.506,389.302 217.495,388.821 217.397 C 388.513 217.334,388.178 217.167,388.077 217.026 C 387.953 216.854,387.922 216.880,387.982 217.105 M390.749 217.223 C 390.651 217.479,390.720 217.563,390.985 217.512 C 391.383 217.436,391.459 217.052,391.101 216.933 C 390.984 216.894,390.826 217.025,390.749 217.223 M12.646 217.488 C 12.571 217.683,12.745 217.722,13.258 217.626 C 14.289 217.434,14.455 217.179,13.536 217.199 C 13.104 217.209,12.704 217.339,12.646 217.488 M185.697 217.338 C 185.848 217.584,187.386 217.719,187.306 217.480 C 187.268 217.367,186.868 217.252,186.416 217.224 C 185.965 217.197,185.641 217.248,185.697 217.338 M212.727 217.309 C 212.675 217.361,212.633 217.466,212.633 217.544 C 212.633 217.733,214.175 217.547,214.300 217.343 C 214.403 217.177,212.894 217.145,212.727 217.309 M385.852 217.337 C 386.199 217.648,387.465 217.775,387.354 217.488 C 387.296 217.339,386.896 217.209,386.464 217.199 C 386.032 217.190,385.757 217.252,385.852 217.337 " stroke="none" fill="#acb4fc" fill-rule="evenodd"></path><path id="path1" d="M51.960 83.755 C 50.698 84.598,49.267 86.038,48.487 87.251 L 47.807 88.309 48.686 89.549 C 49.856 91.198,51.477 92.549,53.697 93.724 C 56.224 95.061,57.949 96.813,59.353 99.468 C 60.912 102.417,62.560 103.992,65.956 105.777 C 67.821 106.758,69.778 108.716,70.677 110.502 C 72.447 114.017,74.246 115.815,77.762 117.586 C 79.630 118.526,81.490 120.450,82.694 122.687 C 84.369 125.800,85.988 127.477,88.610 128.815 C 91.557 130.318,92.982 131.737,94.706 134.883 C 96.513 138.181,99.360 140.727,100.553 140.110 C 102.296 139.209,104.424 136.724,105.751 134.041 C 106.615 132.295,108.904 130.145,111.124 128.995 C 113.697 127.662,115.812 125.554,117.163 122.974 C 118.496 120.430,120.430 118.496,122.974 117.163 C 125.537 115.821,127.675 113.683,128.899 111.238 C 130.116 108.806,132.276 106.642,134.703 105.422 C 137.161 104.187,139.340 102.017,140.648 99.501 C 142.020 96.865,143.668 95.183,146.242 93.795 C 149.402 92.091,152.258 89.213,151.961 88.033 C 151.770 87.278,149.767 85.022,148.425 84.051 L 147.233 83.189 100.031 83.182 L 52.829 83.175 51.960 83.755 M251.868 87.004 C 250.625 88.150,250.626 88.216,251.928 89.464 C 252.842 90.340,253.256 90.551,254.888 90.975 C 259.030 92.050,261.008 94.109,262.158 98.544 C 262.760 100.866,263.932 101.995,266.411 102.639 C 270.834 103.790,272.764 105.825,274.025 110.666 C 274.516 112.553,275.938 113.887,277.939 114.339 C 282.284 115.320,284.501 117.517,285.638 121.968 C 286.210 124.210,287.616 125.669,289.597 126.078 C 293.934 126.974,296.371 129.384,297.468 133.863 C 297.798 135.210,298.006 135.583,298.934 136.497 L 300.016 137.562 301.106 136.543 C 302.061 135.649,302.233 135.347,302.487 134.111 C 303.408 129.644,306.412 126.701,310.777 125.988 C 312.461 125.714,313.805 124.210,314.371 121.970 C 315.468 117.626,317.334 115.712,321.708 114.444 C 324.590 113.609,325.517 112.737,326.085 110.328 C 327.124 105.922,329.268 103.761,333.731 102.622 C 336.202 101.991,337.238 100.964,337.842 98.548 C 338.965 94.054,341.421 91.662,345.850 90.749 C 347.086 90.494,347.388 90.323,348.281 89.368 L 349.301 88.277 348.219 87.179 L 347.138 86.082 300.003 86.082 L 252.869 86.082 251.868 87.004 " stroke="none" fill="#304dd5" fill-rule="evenodd"></path><path id="path2" d="M12.006 6.417 C 12.139 6.769,12.111 6.782,11.783 6.515 C 11.324 6.142,10.183 6.357,10.431 6.770 C 10.531 6.937,10.445 6.921,10.209 6.730 C 9.894 6.475,9.661 6.466,8.932 6.685 C 8.441 6.832,7.926 6.881,7.786 6.795 C 7.643 6.707,7.594 6.738,7.674 6.867 C 7.814 7.093,7.093 7.913,6.913 7.733 C 6.862 7.681,6.803 7.857,6.782 8.124 C 6.761 8.390,6.670 8.910,6.578 9.279 C 6.421 9.914,6.435 9.932,6.839 9.618 C 7.252 9.298,7.253 9.303,6.878 9.745 C 6.411 10.295,6.054 11.781,6.447 11.538 C 6.612 11.436,6.656 11.502,6.570 11.726 C 6.497 11.916,6.332 12.006,6.203 11.926 C 6.070 11.844,6.034 11.888,6.119 12.027 C 6.343 12.388,6.453 14.317,6.243 14.187 C 6.144 14.126,6.068 14.707,6.073 15.478 C 6.093 18.178,6.462 17.887,3.018 17.887 L 0.000 17.887 0.000 26.272 L 0.000 34.656 2.965 34.656 C 6.987 34.656,7.459 35.091,8.166 39.448 C 8.662 42.506,8.662 181.083,8.166 184.140 C 7.459 188.498,6.987 188.932,2.965 188.932 L 0.000 188.932 0.000 197.317 L 0.000 205.702 3.018 205.702 C 6.462 205.702,6.093 205.411,6.073 208.110 C 6.068 208.882,6.144 209.463,6.243 209.402 C 6.453 209.272,6.343 211.200,6.119 211.562 C 6.034 211.701,6.070 211.744,6.203 211.662 C 6.332 211.583,6.497 211.673,6.570 211.863 C 6.656 212.087,6.612 212.153,6.447 212.051 C 6.054 211.808,6.411 213.294,6.878 213.844 C 7.253 214.286,7.252 214.290,6.839 213.970 C 6.435 213.657,6.421 213.675,6.578 214.310 C 6.670 214.679,6.761 215.197,6.782 215.462 C 6.803 215.727,6.881 215.906,6.957 215.859 C 7.185 215.718,7.840 216.567,7.658 216.767 C 7.566 216.869,7.614 216.882,7.765 216.795 C 7.916 216.708,8.441 216.757,8.932 216.904 C 9.661 217.122,9.894 217.114,10.209 216.858 C 10.445 216.667,10.531 216.652,10.431 216.818 C 10.183 217.231,11.324 217.447,11.783 217.074 C 12.111 216.807,12.139 216.819,12.006 217.172 C 11.921 217.401,11.945 217.519,12.064 217.446 C 12.408 217.233,14.307 217.151,14.182 217.354 C 14.041 217.581,22.470 217.445,23.216 217.208 C 23.859 217.004,23.450 216.666,22.554 216.661 C 21.035 216.652,21.481 215.800,23.030 215.752 L 23.589 215.735 23.030 215.500 C 22.671 215.349,22.577 215.225,22.766 215.154 C 22.985 215.073,22.931 214.905,22.560 214.509 L 22.057 213.974 22.711 213.952 C 23.360 213.930,23.361 213.928,22.806 213.751 C 22.459 213.640,22.390 213.563,22.624 213.549 C 22.996 213.527,23.127 212.633,22.758 212.633 C 22.662 212.633,22.582 212.432,22.582 212.186 C 22.582 211.930,22.732 211.738,22.931 211.738 C 23.123 211.738,23.217 211.638,23.141 211.515 C 23.065 211.392,23.093 211.291,23.203 211.291 C 23.562 211.291,23.412 210.621,23.048 210.603 C 22.815 210.591,22.790 210.546,22.975 210.472 C 23.130 210.410,23.186 210.246,23.101 210.108 C 22.768 209.570,22.832 208.832,23.213 208.816 C 23.517 208.803,23.503 208.764,23.141 208.608 C 22.895 208.502,22.813 208.409,22.958 208.400 C 23.144 208.389,23.165 208.187,23.030 207.714 C 22.914 207.311,22.920 207.043,23.045 207.043 C 23.276 207.043,23.231 206.552,22.984 206.366 C 22.656 206.118,23.415 205.124,24.308 204.631 C 26.549 203.395,22.280 203.457,100.778 203.519 L 173.169 203.577 174.511 204.068 C 175.880 204.569,177.593 206.056,177.131 206.342 C 177.005 206.420,176.926 206.962,176.957 207.546 C 176.990 208.196,176.917 208.609,176.767 208.612 C 176.623 208.614,176.639 208.689,176.807 208.795 C 177.101 208.982,177.089 209.627,176.783 210.117 C 176.668 210.301,176.747 210.402,177.013 210.413 C 177.343 210.425,177.355 210.456,177.077 210.580 C 176.890 210.664,176.752 210.858,176.770 211.012 C 176.788 211.165,176.815 211.392,176.831 211.515 C 176.846 211.638,177.001 211.738,177.174 211.738 C 177.533 211.738,177.518 212.076,177.127 212.786 C 176.772 213.432,176.787 213.523,177.250 213.549 C 177.511 213.564,177.455 213.631,177.082 213.751 L 176.523 213.930 177.138 213.952 C 177.817 213.977,177.924 214.225,177.431 214.634 C 177.254 214.781,177.160 215.036,177.224 215.201 C 177.288 215.368,177.159 215.547,176.931 215.606 C 176.652 215.678,176.712 215.719,177.120 215.737 C 178.543 215.799,178.811 216.657,177.407 216.657 C 176.560 216.657,176.220 216.976,176.804 217.222 C 177.396 217.472,185.867 217.615,185.717 217.372 C 185.616 217.208,186.951 217.199,187.988 217.357 C 188.827 217.484,189.605 217.284,189.621 216.937 C 189.631 216.703,189.684 216.658,189.751 216.825 C 189.926 217.259,190.434 217.156,190.848 216.601 C 191.101 216.262,191.180 216.226,191.091 216.490 C 191.018 216.705,191.056 216.881,191.175 216.881 C 191.294 216.881,191.392 216.783,191.392 216.664 C 191.392 216.545,191.559 216.512,191.764 216.591 C 192.012 216.686,192.083 216.647,191.976 216.474 C 191.875 216.312,191.931 216.260,192.127 216.335 C 192.522 216.486,193.050 215.870,192.830 215.515 C 192.732 215.356,192.759 215.305,192.897 215.391 C 193.025 215.470,193.190 215.309,193.264 215.034 C 193.478 214.235,193.430 214.123,193.013 214.450 C 192.667 214.721,192.654 214.716,192.899 214.401 C 193.052 214.205,193.105 213.973,193.018 213.886 C 192.930 213.799,193.057 213.802,193.299 213.893 C 193.704 214.045,193.712 214.024,193.404 213.638 C 193.220 213.407,193.188 213.289,193.333 213.376 C 193.478 213.463,193.660 213.431,193.738 213.306 C 193.816 213.180,193.714 213.013,193.511 212.935 C 193.309 212.858,193.241 212.733,193.361 212.658 C 193.551 212.538,193.882 211.131,193.866 210.509 C 193.781 207.209,193.796 206.196,193.934 205.972 C 194.174 205.584,205.826 205.584,206.066 205.972 C 206.204 206.196,206.219 207.209,206.134 210.509 C 206.118 211.131,206.449 212.538,206.639 212.658 C 206.759 212.733,206.691 212.858,206.489 212.935 C 206.286 213.013,206.184 213.180,206.262 213.306 C 206.340 213.431,206.522 213.463,206.667 213.376 C 206.812 213.289,206.780 213.407,206.596 213.638 C 206.288 214.024,206.296 214.045,206.701 213.893 C 206.943 213.802,207.070 213.799,206.982 213.886 C 206.895 213.973,206.948 214.205,207.101 214.401 C 207.352 214.722,207.337 214.724,206.948 214.421 C 206.545 214.107,206.527 214.121,206.666 214.645 C 206.747 214.952,206.815 215.285,206.816 215.385 C 206.818 215.484,206.919 215.504,207.040 215.429 C 207.162 215.354,207.208 215.433,207.142 215.604 C 206.991 215.999,207.606 216.526,207.962 216.307 C 208.144 216.194,208.171 216.236,208.047 216.437 C 207.914 216.652,207.966 216.694,208.236 216.591 C 208.441 216.512,208.608 216.545,208.608 216.664 C 208.608 216.783,208.706 216.881,208.825 216.881 C 208.944 216.881,208.982 216.705,208.909 216.490 C 208.820 216.226,208.899 216.262,209.152 216.601 C 209.566 217.156,210.074 217.259,210.249 216.825 C 210.316 216.658,210.369 216.703,210.379 216.937 C 210.395 217.284,211.173 217.484,212.012 217.357 C 213.049 217.199,214.384 217.208,214.283 217.372 C 214.133 217.615,222.604 217.472,223.196 217.222 C 223.780 216.976,223.440 216.657,222.593 216.657 C 221.189 216.657,221.457 215.799,222.880 215.737 C 223.288 215.719,223.348 215.678,223.069 215.606 C 222.841 215.547,222.712 215.368,222.776 215.201 C 222.840 215.036,222.746 214.781,222.569 214.634 C 222.076 214.225,222.183 213.977,222.862 213.952 L 223.477 213.930 222.918 213.751 C 222.545 213.631,222.489 213.564,222.750 213.549 C 223.213 213.523,223.228 213.432,222.873 212.786 C 222.482 212.076,222.467 211.738,222.826 211.738 C 222.999 211.738,223.154 211.638,223.169 211.515 C 223.185 211.392,223.212 211.165,223.230 211.012 C 223.248 210.858,223.110 210.664,222.923 210.580 C 222.645 210.456,222.657 210.425,222.987 210.413 C 223.253 210.402,223.332 210.301,223.217 210.117 C 222.911 209.627,222.899 208.982,223.193 208.795 C 223.361 208.689,223.377 208.614,223.233 208.612 C 223.083 208.609,223.010 208.196,223.043 207.546 C 223.074 206.962,223.005 206.427,222.892 206.356 C 222.157 205.902,224.428 203.973,226.188 203.556 C 227.843 203.165,371.320 203.073,373.371 203.461 C 375.432 203.852,377.828 205.757,377.021 206.363 C 376.770 206.551,376.722 207.043,376.955 207.043 C 377.080 207.043,377.086 207.311,376.970 207.714 C 376.835 208.187,376.856 208.389,377.042 208.400 C 377.187 208.409,377.105 208.502,376.859 208.608 C 376.497 208.764,376.483 208.803,376.787 208.816 C 377.168 208.832,377.232 209.570,376.899 210.108 C 376.814 210.246,376.870 210.410,377.025 210.472 C 377.210 210.546,377.185 210.591,376.952 210.603 C 376.588 210.621,376.438 211.291,376.797 211.291 C 376.907 211.291,376.935 211.392,376.859 211.515 C 376.783 211.638,376.877 211.738,377.069 211.738 C 377.268 211.738,377.418 211.930,377.418 212.186 C 377.418 212.432,377.338 212.633,377.242 212.633 C 376.873 212.633,377.004 213.527,377.376 213.549 C 377.610 213.563,377.541 213.640,377.194 213.751 C 376.639 213.928,376.640 213.930,377.289 213.952 L 377.943 213.974 377.440 214.509 C 377.069 214.905,377.015 215.073,377.234 215.154 C 377.423 215.225,377.329 215.349,376.970 215.500 L 376.411 215.735 376.970 215.752 C 378.519 215.800,378.965 216.652,377.446 216.661 C 376.550 216.666,376.141 217.004,376.784 217.208 C 377.530 217.445,385.959 217.581,385.818 217.354 C 385.693 217.151,387.592 217.233,387.936 217.446 C 388.055 217.519,388.079 217.401,387.994 217.172 C 387.861 216.819,387.889 216.807,388.217 217.074 C 388.676 217.447,389.817 217.231,389.569 216.818 C 389.469 216.652,389.555 216.667,389.791 216.858 C 390.106 217.114,390.339 217.122,391.068 216.904 C 391.559 216.757,392.074 216.707,392.214 216.793 C 392.357 216.882,392.406 216.851,392.326 216.722 C 392.186 216.496,392.907 215.676,393.087 215.856 C 393.138 215.907,393.197 215.731,393.218 215.465 C 393.239 215.198,393.330 214.679,393.422 214.310 C 393.579 213.675,393.565 213.657,393.161 213.970 C 392.748 214.290,392.747 214.286,393.122 213.844 C 393.589 213.294,393.946 211.808,393.553 212.051 C 393.388 212.153,393.344 212.087,393.430 211.863 C 393.503 211.673,393.668 211.583,393.797 211.662 C 393.930 211.744,393.966 211.701,393.881 211.562 C 393.657 211.200,393.547 209.272,393.757 209.402 C 393.856 209.463,393.932 208.882,393.927 208.110 C 393.907 205.411,393.538 205.702,396.982 205.702 L 400.000 205.702 400.000 197.317 L 400.000 188.932 397.037 188.932 C 393.037 188.930,392.429 188.569,391.577 185.690 C 391.202 184.424,391.169 180.448,390.993 114.701 C 390.891 76.395,390.793 43.644,390.776 41.923 C 390.713 35.678,391.588 34.656,396.996 34.656 L 400.000 34.656 400.000 26.272 L 400.000 17.887 396.982 17.887 C 393.538 17.887,393.907 18.178,393.927 15.478 C 393.932 14.707,393.856 14.126,393.757 14.187 C 393.547 14.317,393.657 12.388,393.881 12.027 C 393.966 11.888,393.930 11.844,393.797 11.926 C 393.668 12.006,393.503 11.916,393.430 11.726 C 393.344 11.502,393.388 11.436,393.553 11.538 C 393.946 11.781,393.589 10.295,393.122 9.745 C 392.747 9.303,392.748 9.298,393.161 9.618 C 393.565 9.932,393.579 9.914,393.422 9.279 C 393.330 8.910,393.239 8.390,393.218 8.124 C 393.197 7.857,393.138 7.681,393.087 7.733 C 392.907 7.913,392.186 7.093,392.326 6.867 C 392.406 6.738,392.357 6.707,392.214 6.795 C 392.074 6.881,391.559 6.832,391.068 6.685 C 390.339 6.466,390.106 6.475,389.791 6.730 C 389.555 6.921,389.469 6.937,389.569 6.770 C 389.817 6.357,388.676 6.142,388.217 6.515 C 387.889 6.782,387.861 6.769,387.994 6.417 C 388.079 6.188,388.055 6.069,387.936 6.142 C 387.592 6.355,385.693 6.438,385.818 6.234 C 385.959 6.007,377.530 6.144,376.784 6.381 C 376.141 6.584,376.550 6.923,377.446 6.928 C 378.965 6.937,378.519 7.789,376.970 7.837 L 376.411 7.854 376.970 8.089 C 377.329 8.240,377.423 8.363,377.234 8.434 C 377.015 8.516,377.069 8.684,377.440 9.079 L 377.943 9.614 377.289 9.637 C 376.640 9.659,376.639 9.660,377.194 9.838 C 377.541 9.949,377.610 10.025,377.376 10.039 C 377.004 10.061,376.873 10.956,377.242 10.956 C 377.338 10.956,377.418 11.157,377.418 11.403 C 377.418 11.659,377.268 11.850,377.069 11.850 C 376.877 11.850,376.783 11.951,376.859 12.074 C 376.935 12.197,376.907 12.297,376.797 12.297 C 376.438 12.297,376.588 12.968,376.952 12.986 C 377.185 12.997,377.210 13.042,377.025 13.117 C 376.870 13.179,376.814 13.343,376.899 13.481 C 377.232 14.019,377.168 14.757,376.787 14.773 C 376.483 14.785,376.497 14.825,376.859 14.980 C 377.105 15.086,377.187 15.180,377.042 15.188 C 376.856 15.199,376.835 15.401,376.970 15.875 C 377.076 16.244,377.086 16.546,376.992 16.546 C 376.898 16.546,376.821 16.696,376.821 16.881 C 376.821 17.065,376.896 17.216,376.988 17.216 C 377.080 17.216,377.104 17.542,377.041 17.940 C 376.769 19.663,375.791 20.576,373.740 21.020 C 372.119 21.371,227.731 21.370,226.167 21.019 C 224.155 20.568,223.352 19.808,222.912 17.943 C 222.818 17.543,222.825 17.216,222.928 17.216 C 223.030 17.216,223.085 16.713,223.049 16.098 C 223.008 15.396,223.076 14.979,223.231 14.977 C 223.380 14.975,223.365 14.902,223.193 14.793 C 222.899 14.607,222.911 13.961,223.217 13.471 C 223.332 13.288,223.253 13.186,222.987 13.176 C 222.657 13.163,222.645 13.132,222.923 13.008 C 223.110 12.925,223.248 12.731,223.230 12.577 C 223.212 12.423,223.185 12.197,223.169 12.074 C 223.154 11.951,222.999 11.850,222.826 11.850 C 222.467 11.850,222.482 11.512,222.873 10.803 C 223.228 10.157,223.213 10.066,222.750 10.039 C 222.489 10.024,222.545 9.957,222.918 9.838 L 223.477 9.659 222.862 9.637 C 222.183 9.612,222.076 9.364,222.569 8.955 C 222.746 8.808,222.840 8.552,222.776 8.388 C 222.712 8.221,222.841 8.042,223.069 7.983 C 223.348 7.911,223.288 7.869,222.880 7.852 C 221.457 7.790,221.189 6.931,222.593 6.931 C 223.440 6.931,223.780 6.613,223.196 6.366 C 222.604 6.116,214.133 5.974,214.283 6.217 C 214.384 6.380,213.049 6.389,212.012 6.232 C 211.173 6.105,210.395 6.305,210.379 6.652 C 210.369 6.886,210.316 6.931,210.249 6.764 C 210.074 6.330,209.566 6.433,209.152 6.987 C 208.899 7.327,208.820 7.363,208.909 7.099 C 208.982 6.884,208.944 6.708,208.825 6.708 C 208.706 6.708,208.608 6.805,208.608 6.924 C 208.608 7.043,208.441 7.077,208.236 6.998 C 207.988 6.903,207.917 6.941,208.024 7.114 C 208.125 7.277,208.069 7.329,207.873 7.254 C 207.478 7.102,206.950 7.718,207.170 8.074 C 207.268 8.233,207.241 8.283,207.103 8.198 C 206.975 8.119,206.810 8.279,206.736 8.555 C 206.522 9.353,206.570 9.466,206.987 9.139 C 207.333 8.867,207.346 8.873,207.101 9.188 C 206.948 9.383,206.895 9.615,206.982 9.703 C 207.070 9.790,206.943 9.787,206.701 9.696 C 206.296 9.544,206.288 9.564,206.596 9.951 C 206.780 10.182,206.812 10.300,206.667 10.213 C 206.522 10.125,206.340 10.157,206.262 10.283 C 206.184 10.409,206.286 10.575,206.489 10.653 C 206.691 10.731,206.759 10.856,206.639 10.931 C 206.449 11.051,206.118 12.458,206.134 13.080 C 206.219 16.380,206.204 17.393,206.066 17.616 C 205.826 18.005,194.174 18.005,193.934 17.616 C 193.796 17.393,193.781 16.380,193.866 13.080 C 193.882 12.458,193.551 11.051,193.361 10.931 C 193.241 10.856,193.309 10.731,193.511 10.653 C 193.714 10.575,193.816 10.409,193.738 10.283 C 193.660 10.157,193.478 10.125,193.333 10.213 C 193.188 10.300,193.220 10.182,193.404 9.951 C 193.712 9.564,193.704 9.544,193.299 9.696 C 193.057 9.787,192.930 9.790,193.018 9.703 C 193.105 9.615,193.052 9.383,192.899 9.188 C 192.648 8.866,192.663 8.864,193.052 9.167 C 193.455 9.482,193.473 9.468,193.334 8.944 C 193.253 8.636,193.185 8.303,193.184 8.204 C 193.182 8.104,193.064 8.095,192.922 8.182 C 192.759 8.283,192.725 8.243,192.830 8.074 C 193.050 7.718,192.522 7.102,192.127 7.254 C 191.931 7.329,191.875 7.277,191.976 7.114 C 192.083 6.941,192.012 6.903,191.764 6.998 C 191.559 7.077,191.392 7.043,191.392 6.924 C 191.392 6.805,191.294 6.708,191.175 6.708 C 191.056 6.708,191.018 6.884,191.091 7.099 C 191.180 7.363,191.101 7.327,190.848 6.987 C 190.434 6.433,189.926 6.330,189.751 6.764 C 189.684 6.931,189.631 6.886,189.621 6.652 C 189.605 6.305,188.827 6.105,187.988 6.232 C 186.951 6.389,185.616 6.380,185.717 6.217 C 185.867 5.974,177.396 6.116,176.804 6.366 C 176.220 6.613,176.560 6.931,177.407 6.931 C 178.811 6.931,178.543 7.790,177.120 7.852 C 176.712 7.869,176.652 7.911,176.931 7.983 C 177.159 8.042,177.288 8.221,177.224 8.388 C 177.160 8.552,177.254 8.808,177.431 8.955 C 177.924 9.364,177.817 9.612,177.138 9.637 L 176.523 9.659 177.082 9.838 C 177.455 9.957,177.511 10.024,177.250 10.039 C 176.787 10.066,176.772 10.157,177.127 10.803 C 177.518 11.512,177.533 11.850,177.174 11.850 C 177.001 11.850,176.846 11.951,176.831 12.074 C 176.815 12.197,176.788 12.423,176.770 12.577 C 176.752 12.731,176.890 12.925,177.077 13.008 C 177.355 13.132,177.343 13.163,177.013 13.176 C 176.747 13.186,176.668 13.288,176.783 13.471 C 177.089 13.961,177.101 14.607,176.807 14.793 C 176.639 14.900,176.623 14.975,176.767 14.977 C 176.917 14.979,176.990 15.392,176.957 16.042 C 176.926 16.627,177.005 17.168,177.131 17.246 C 177.593 17.532,175.880 19.019,174.511 19.520 L 173.169 20.011 100.778 20.069 C 22.280 20.132,26.549 20.194,24.308 18.957 C 23.415 18.465,22.656 17.470,22.984 17.223 C 23.231 17.037,23.276 16.546,23.045 16.546 C 22.920 16.546,22.914 16.277,23.030 15.875 C 23.165 15.401,23.144 15.199,22.958 15.188 C 22.813 15.180,22.895 15.086,23.141 14.980 C 23.503 14.825,23.517 14.785,23.213 14.773 C 22.832 14.757,22.768 14.019,23.101 13.481 C 23.186 13.343,23.130 13.179,22.975 13.117 C 22.790 13.042,22.815 12.997,23.048 12.986 C 23.412 12.968,23.562 12.297,23.203 12.297 C 23.093 12.297,23.065 12.197,23.141 12.074 C 23.217 11.951,23.123 11.850,22.931 11.850 C 22.732 11.850,22.582 11.659,22.582 11.403 C 22.582 11.157,22.662 10.956,22.758 10.956 C 23.127 10.956,22.996 10.061,22.624 10.039 C 22.390 10.025,22.459 9.949,22.806 9.838 C 23.361 9.660,23.360 9.659,22.711 9.637 L 22.057 9.614 22.560 9.079 C 22.931 8.684,22.985 8.516,22.766 8.434 C 22.577 8.363,22.671 8.240,23.030 8.089 L 23.589 7.854 23.030 7.837 C 21.481 7.789,21.035 6.937,22.554 6.928 C 23.450 6.923,23.859 6.584,23.216 6.381 C 22.470 6.144,14.041 6.007,14.182 6.234 C 14.307 6.438,12.408 6.355,12.064 6.142 C 11.945 6.069,11.921 6.188,12.006 6.417 M183.342 23.183 C 183.343 23.329,183.519 23.446,183.734 23.442 C 183.949 23.438,184.349 23.488,184.624 23.554 C 185.219 23.696,186.008 24.131,185.690 24.142 C 185.567 24.146,185.789 24.346,186.183 24.586 C 186.576 24.826,187.061 25.337,187.260 25.721 C 187.473 26.134,187.743 26.373,187.919 26.305 C 188.105 26.234,188.196 26.332,188.159 26.567 C 188.127 26.773,188.213 27.016,188.349 27.107 C 188.516 27.217,188.497 27.272,188.290 27.274 C 188.047 27.277,188.039 27.345,188.253 27.603 C 188.402 27.782,188.459 28.034,188.379 28.162 C 188.300 28.291,188.330 28.396,188.446 28.396 C 188.833 28.396,188.910 29.341,188.565 29.867 C 188.062 30.634,186.504 31.297,184.319 31.674 L 182.385 32.008 181.094 30.731 C 179.670 29.322,179.708 29.509,180.255 26.607 C 180.526 25.171,180.942 24.267,181.709 23.446 C 182.271 22.845,183.342 22.673,183.342 23.183 M219.146 23.341 C 220.218 23.850,220.820 25.011,221.231 27.366 C 221.632 29.668,221.695 29.529,219.278 31.658 L 217.732 33.020 215.686 32.697 C 213.033 32.278,212.143 31.818,211.529 30.549 C 211.056 29.571,211.068 28.396,211.552 28.396 C 211.669 28.396,211.700 28.291,211.621 28.162 C 211.541 28.034,211.598 27.782,211.747 27.603 C 211.961 27.345,211.953 27.277,211.710 27.274 C 211.503 27.272,211.484 27.217,211.651 27.107 C 211.787 27.016,211.873 26.773,211.841 26.567 C 211.804 26.332,211.895 26.234,212.081 26.305 C 212.257 26.373,212.527 26.134,212.740 25.721 C 212.939 25.337,213.424 24.826,213.817 24.586 C 214.211 24.346,214.433 24.146,214.310 24.142 C 213.992 24.131,214.781 23.696,215.376 23.554 C 215.651 23.488,216.051 23.438,216.266 23.442 C 216.481 23.446,216.657 23.319,216.657 23.159 C 216.657 22.757,218.144 22.865,219.146 23.341 M383.372 23.361 C 383.432 23.516,383.712 23.589,384.021 23.530 C 384.320 23.473,384.743 23.504,384.960 23.599 C 385.177 23.694,385.438 23.753,385.539 23.730 C 385.641 23.708,385.664 23.785,385.592 23.902 C 385.519 24.020,385.664 24.180,385.914 24.259 C 386.163 24.339,386.321 24.479,386.264 24.571 C 386.157 24.745,386.774 25.363,387.114 25.423 C 387.377 25.469,388.065 26.626,388.118 27.110 C 388.141 27.325,388.180 27.703,388.203 27.949 C 388.226 28.195,388.375 28.396,388.533 28.396 C 389.021 28.396,388.877 30.033,388.315 30.878 C 387.644 31.884,386.653 32.339,384.307 32.714 L 382.365 33.025 381.177 32.080 C 380.523 31.560,379.644 30.772,379.223 30.329 L 378.457 29.523 378.737 27.674 C 379.036 25.699,379.573 24.227,380.174 23.731 C 381.127 22.944,383.124 22.714,383.372 23.361 M18.125 23.261 C 18.977 23.717,20.123 27.042,20.123 29.059 C 20.123 29.978,17.857 32.043,17.018 31.887 C 16.697 31.827,15.947 31.714,15.351 31.635 C 14.048 31.463,12.372 30.776,11.683 30.130 C 11.135 29.618,10.983 28.396,11.467 28.396 C 11.625 28.396,11.774 28.195,11.797 27.949 C 11.820 27.703,11.859 27.325,11.882 27.110 C 11.935 26.626,12.623 25.469,12.886 25.423 C 13.226 25.363,13.843 24.745,13.736 24.571 C 13.679 24.479,13.837 24.339,14.086 24.259 C 14.336 24.180,14.481 24.020,14.408 23.902 C 14.336 23.785,14.359 23.708,14.461 23.730 C 14.562 23.753,14.823 23.694,15.040 23.599 C 15.257 23.504,15.680 23.473,15.979 23.530 C 16.310 23.593,16.569 23.516,16.639 23.332 C 16.777 22.973,17.520 22.937,18.125 23.261 M171.627 25.900 C 173.114 26.981,174.131 28.308,175.157 30.504 C 176.638 33.673,178.611 35.574,181.739 36.845 C 183.213 37.444,184.472 38.425,185.604 39.858 L 186.473 40.957 186.473 111.794 L 186.473 182.632 185.604 183.731 C 184.472 185.164,183.213 186.145,181.739 186.744 C 178.611 188.015,176.638 189.916,175.157 193.085 C 174.131 195.281,173.114 196.608,171.627 197.689 L 170.755 198.323 100.066 198.323 L 29.378 198.323 28.384 197.692 C 26.897 196.747,26.141 195.753,24.732 192.887 C 23.163 189.698,21.974 188.517,18.796 186.996 C 16.255 185.779,15.447 185.187,14.420 183.788 L 13.639 182.724 13.639 111.794 L 13.639 40.865 14.420 39.800 C 15.447 38.402,16.255 37.810,18.796 36.593 C 21.974 35.072,23.163 33.891,24.732 30.702 C 26.141 27.836,26.897 26.842,28.384 25.897 L 29.378 25.266 100.066 25.266 L 170.755 25.266 171.627 25.900 M364.449 28.424 C 370.718 28.689,371.381 28.805,371.381 29.632 C 371.381 30.360,372.603 33.554,373.260 34.544 C 373.669 35.159,374.062 35.834,374.135 36.045 C 374.381 36.760,377.777 38.904,378.663 38.904 C 378.865 38.904,379.858 39.157,380.870 39.466 C 383.473 40.260,383.929 40.881,383.926 43.632 C 383.925 44.291,384.018 45.634,384.134 46.618 C 384.353 48.496,384.426 49.465,384.838 56.009 C 385.013 58.784,385.117 79.042,385.173 121.255 L 385.256 182.477 383.845 183.888 C 382.906 184.827,382.181 185.354,381.674 185.465 C 378.654 186.128,375.243 189.563,374.258 192.932 C 373.865 194.280,372.850 195.745,371.707 196.618 L 370.750 197.349 363.743 197.633 C 356.559 197.924,238.149 197.836,231.916 197.535 L 229.175 197.402 227.861 196.186 C 226.552 194.973,226.378 194.662,225.262 191.534 C 224.502 189.406,221.270 186.506,218.569 185.527 C 217.605 185.178,216.879 184.701,216.042 183.869 L 214.869 182.701 214.867 178.606 C 214.830 100.934,214.903 62.541,215.094 58.356 C 215.347 52.802,215.740 46.948,215.874 46.732 C 215.921 46.655,216.017 45.392,216.086 43.925 C 216.208 41.354,216.236 41.235,216.863 40.608 C 217.480 39.991,220.224 38.915,221.199 38.907 C 222.308 38.899,225.824 36.610,225.824 35.896 C 225.824 35.736,225.971 35.484,226.150 35.335 C 226.770 34.821,227.644 33.066,228.191 31.240 C 228.993 28.559,228.700 28.692,234.321 28.451 C 241.774 28.131,356.962 28.107,364.449 28.424 M207.545 35.380 C 209.137 36.595,209.569 39.234,209.240 45.724 C 209.090 48.678,208.947 75.370,208.853 117.719 C 208.731 172.652,208.649 185.184,208.408 185.914 C 207.415 188.912,207.358 188.932,199.957 188.932 C 193.985 188.932,193.925 188.928,193.454 188.427 C 192.757 187.685,192.122 186.110,191.854 184.459 C 191.525 182.427,191.525 41.162,191.854 39.129 C 192.123 37.471,192.757 35.904,193.463 35.153 L 193.947 34.637 200.345 34.703 L 206.743 34.768 207.545 35.380 M51.090 78.166 C 45.533 79.165,43.749 80.976,42.849 86.529 C 41.841 92.747,44.634 97.023,50.455 98.175 C 53.396 98.757,54.226 99.352,54.454 101.042 C 55.244 106.909,57.021 108.918,62.381 110.004 C 64.929 110.521,66.182 111.307,66.182 112.388 C 66.182 114.525,67.636 118.350,68.901 119.540 C 70.188 120.751,73.785 122.072,75.809 122.078 C 76.962 122.081,77.728 123.271,78.257 125.880 C 79.341 131.226,81.369 133.019,87.220 133.808 C 88.910 134.036,89.505 134.865,90.087 137.806 C 91.147 143.164,94.183 145.564,99.929 145.584 C 105.942 145.606,109.165 142.929,110.091 137.143 C 110.466 134.802,111.043 134.054,112.653 133.827 C 118.804 132.958,120.985 130.943,121.860 125.320 C 122.229 122.950,122.870 122.205,124.722 121.990 C 130.674 121.302,132.743 119.129,133.808 112.448 C 134.027 111.074,134.845 110.532,137.470 110.023 C 142.906 108.970,145.556 105.866,145.556 100.554 C 145.556 99.468,146.708 98.759,149.315 98.244 C 154.421 97.233,156.039 95.642,157.021 90.666 L 157.484 88.317 156.997 85.848 C 156.061 81.106,154.630 79.541,150.135 78.349 C 147.995 77.781,54.195 77.608,51.090 78.166 M252.208 78.634 C 247.807 79.370,245.277 81.346,244.025 85.027 C 241.955 91.115,245.146 96.387,251.719 97.737 C 253.529 98.109,254.945 99.464,255.201 101.070 C 255.940 105.712,258.258 108.189,262.956 109.358 C 265.503 109.992,266.488 110.897,267.007 113.081 C 268.184 118.026,270.308 120.213,274.851 121.153 C 277.322 121.664,278.164 122.539,278.927 125.388 C 280.163 130.010,281.811 131.662,286.396 132.883 C 289.238 133.639,289.990 134.358,290.638 136.939 C 291.819 141.649,293.565 143.445,298.121 144.639 C 299.502 145.000,300.070 145.050,300.906 144.883 C 306.034 143.860,308.262 141.779,309.367 136.981 C 309.881 134.751,311.071 133.424,312.904 133.038 C 317.967 131.973,321.297 128.518,321.297 124.330 C 321.297 123.148,323.268 121.626,325.542 121.051 C 329.841 119.964,331.702 118.104,332.788 113.808 C 333.514 110.937,334.456 109.970,337.157 109.325 C 341.576 108.270,343.487 106.355,344.593 101.875 C 345.244 99.240,346.238 98.202,348.648 97.642 C 352.982 96.633,354.863 94.986,356.082 91.128 C 357.885 85.422,354.983 80.531,348.839 78.922 C 347.262 78.509,254.607 78.233,252.208 78.634 M148.664 80.072 C 152.827 81.478,156.240 86.052,155.437 89.149 C 154.479 92.844,152.068 95.349,148.353 96.508 C 146.391 97.120,144.240 99.182,143.678 100.990 C 142.457 104.917,140.477 106.902,136.251 108.431 C 134.243 109.157,132.588 110.902,131.788 113.136 C 130.409 116.984,128.764 118.593,124.606 120.161 C 122.701 120.880,120.459 123.014,120.208 124.348 C 119.569 127.747,116.022 131.272,112.480 132.030 C 111.309 132.281,108.779 134.864,108.437 136.158 C 107.135 141.090,102.163 144.766,98.461 143.534 C 95.188 142.445,92.863 140.097,91.852 136.861 C 91.219 134.836,89.003 132.319,87.625 132.061 C 84.110 131.401,81.111 128.524,79.904 124.651 C 79.410 123.067,77.259 120.697,75.984 120.333 C 71.856 119.154,69.616 117.096,68.275 113.252 C 67.443 110.866,65.662 108.997,63.611 108.358 C 59.699 107.138,57.438 104.823,56.310 100.882 C 55.823 99.183,53.521 97.074,51.443 96.423 C 47.578 95.213,43.804 90.593,44.393 87.792 C 44.981 84.992,47.182 82.076,49.663 80.810 C 52.122 79.555,49.024 79.629,99.957 79.612 L 147.258 79.598 148.664 80.072 M347.840 81.324 C 350.641 82.599,352.930 84.883,354.020 87.491 C 354.805 89.370,351.935 93.023,348.086 95.047 C 345.218 96.555,343.609 98.174,342.070 101.102 C 340.615 103.869,338.855 105.628,336.354 106.816 C 333.835 108.013,331.705 110.094,330.467 112.571 C 328.891 115.723,327.042 117.499,323.739 119.036 C 321.933 119.876,319.840 122.137,318.543 124.651 C 317.159 127.332,315.610 128.893,312.985 130.248 C 310.069 131.754,308.219 133.577,306.795 136.348 C 304.791 140.245,301.100 143.117,299.206 142.254 C 296.270 140.917,294.288 138.866,292.841 135.671 C 291.964 133.733,289.700 131.601,287.200 130.357 C 284.458 128.994,282.810 127.348,281.482 124.651 C 280.117 121.876,278.118 119.881,275.370 118.550 C 272.686 117.250,270.984 115.543,269.650 112.814 C 268.286 110.022,266.512 108.267,263.436 106.665 C 260.612 105.195,259.265 103.824,257.934 101.065 C 256.652 98.409,254.623 96.387,251.890 95.043 C 249.390 93.814,247.463 91.975,246.389 89.794 L 245.650 88.292 246.400 86.741 C 247.394 84.686,249.304 82.757,251.367 81.725 L 252.939 80.939 299.967 80.939 C 343.991 80.939,347.048 80.964,347.840 81.324 M219.106 192.628 L 220.508 194.088 220.358 195.367 C 220.063 197.866,219.572 199.175,218.626 199.986 C 217.763 200.724,216.658 200.959,216.658 200.405 C 216.657 200.259,216.481 200.143,216.266 200.147 C 216.051 200.151,215.651 200.100,215.376 200.035 C 214.781 199.893,213.992 199.458,214.310 199.447 C 214.433 199.443,214.211 199.243,213.817 199.003 C 213.424 198.763,212.939 198.252,212.740 197.868 C 212.527 197.455,212.257 197.216,212.081 197.283 C 211.895 197.355,211.804 197.257,211.841 197.022 C 211.873 196.815,211.787 196.572,211.651 196.482 C 211.484 196.371,211.503 196.317,211.710 196.314 C 211.953 196.311,211.961 196.243,211.747 195.985 C 211.598 195.806,211.536 195.563,211.609 195.445 C 211.682 195.327,211.653 195.197,211.546 195.156 C 209.843 194.502,212.291 192.021,215.150 191.502 C 217.641 191.050,217.573 191.031,219.106 192.628 M386.000 191.786 C 387.697 192.241,388.821 193.289,388.821 194.418 C 388.821 194.900,388.712 195.193,388.533 195.193 C 388.375 195.193,388.226 195.394,388.203 195.640 C 388.180 195.886,388.141 196.263,388.118 196.478 C 388.065 196.963,387.377 198.119,387.114 198.166 C 386.774 198.225,386.157 198.844,386.264 199.018 C 386.321 199.110,386.163 199.250,385.914 199.329 C 385.664 199.408,385.519 199.569,385.592 199.686 C 385.664 199.803,385.641 199.881,385.539 199.858 C 385.438 199.836,385.177 199.895,384.960 199.990 C 384.743 200.085,384.320 200.116,384.021 200.058 C 383.690 199.995,383.431 200.073,383.361 200.257 C 383.189 200.705,382.031 200.623,381.389 200.118 C 380.656 199.541,379.942 197.708,379.690 195.752 L 379.488 194.187 380.374 193.124 C 382.148 190.999,382.633 190.883,386.000 191.786 M18.875 192.756 C 20.287 194.046,20.324 194.207,19.790 196.748 C 19.405 198.577,18.745 199.996,18.125 200.328 C 17.520 200.651,16.777 200.616,16.639 200.257 C 16.569 200.073,16.310 199.995,15.979 200.058 C 15.680 200.116,15.257 200.085,15.040 199.990 C 14.823 199.895,14.562 199.836,14.461 199.858 C 14.359 199.881,14.336 199.803,14.408 199.686 C 14.481 199.569,14.336 199.408,14.086 199.329 C 13.837 199.250,13.679 199.110,13.736 199.018 C 13.840 198.850,12.929 197.953,12.774 198.070 C 12.640 198.171,11.928 196.902,11.882 196.478 C 11.859 196.263,11.820 195.886,11.797 195.640 C 11.774 195.394,11.625 195.193,11.467 195.193 C 11.300 195.193,11.179 194.927,11.179 194.561 C 11.179 193.139,13.481 192.053,17.366 191.643 C 17.510 191.628,18.189 192.129,18.875 192.756 M184.521 191.941 C 186.532 192.299,188.079 192.981,188.565 193.722 C 188.910 194.248,188.833 195.193,188.446 195.193 C 188.330 195.193,188.300 195.298,188.379 195.426 C 188.459 195.555,188.402 195.806,188.253 195.985 C 188.039 196.243,188.047 196.311,188.290 196.314 C 188.497 196.317,188.516 196.371,188.349 196.482 C 188.213 196.572,188.127 196.815,188.159 197.022 C 188.196 197.257,188.105 197.355,187.919 197.283 C 187.743 197.216,187.473 197.455,187.260 197.868 C 187.061 198.252,186.576 198.763,186.183 199.003 C 185.789 199.243,185.567 199.443,185.690 199.447 C 186.008 199.458,185.219 199.893,184.624 200.035 C 184.349 200.100,183.949 200.151,183.734 200.147 C 183.519 200.143,183.343 200.264,183.343 200.416 C 183.343 200.845,182.326 200.720,181.777 200.224 C 180.819 199.357,180.439 198.272,179.902 194.857 C 179.796 194.187,181.916 191.602,182.553 191.623 C 182.680 191.628,183.565 191.770,184.521 191.941 " stroke="none" fill="#ccd4fc" fill-rule="evenodd"></path><path id="path3" d="M13.007 5.926 C 13.153 6.073,186.960 6.071,187.107 5.925 C 187.168 5.863,147.995 5.813,100.056 5.813 C 52.117 5.813,12.944 5.864,13.007 5.926 M212.893 5.925 C 213.040 6.071,386.847 6.073,386.993 5.926 C 387.056 5.864,347.883 5.813,299.944 5.813 C 252.005 5.813,212.832 5.863,212.893 5.925 M6.863 6.193 C 6.395 6.315,6.037 7.123,6.037 8.057 C 6.037 8.538,6.122 8.673,6.368 8.579 C 6.614 8.484,6.643 8.346,6.480 8.042 C 6.171 7.465,6.201 7.393,6.703 7.489 C 6.960 7.539,7.124 7.463,7.094 7.309 C 7.066 7.163,7.186 7.074,7.360 7.112 C 7.608 7.165,7.621 7.111,7.418 6.867 C 7.148 6.542,7.278 6.258,7.695 6.264 C 7.833 6.266,7.813 6.346,7.649 6.450 C 7.461 6.569,7.584 6.633,8.003 6.633 C 8.389 6.633,8.645 6.514,8.645 6.335 C 8.645 6.040,7.735 5.967,6.863 6.193 M9.440 6.225 C 9.265 6.336,9.459 6.400,9.943 6.389 C 10.376 6.380,10.731 6.297,10.732 6.205 C 10.732 5.981,9.801 5.996,9.440 6.225 M189.715 6.189 C 189.961 6.255,190.304 6.424,190.478 6.564 C 190.726 6.765,190.770 6.748,190.684 6.484 C 190.624 6.300,190.281 6.131,189.921 6.109 C 189.511 6.083,189.434 6.113,189.715 6.189 M191.325 6.476 C 191.426 6.862,191.480 6.875,191.767 6.588 C 191.947 6.408,192.213 6.268,192.358 6.278 C 192.543 6.291,192.539 6.329,192.342 6.409 C 192.188 6.471,192.063 6.617,192.063 6.734 C 192.063 6.865,192.224 6.860,192.482 6.723 C 193.077 6.404,193.828 7.204,193.408 7.710 C 193.175 7.990,193.189 8.049,193.489 8.049 C 194.061 8.049,193.961 6.810,193.354 6.385 C 192.589 5.849,191.178 5.912,191.325 6.476 M206.646 6.385 C 206.039 6.810,205.939 8.049,206.511 8.049 C 206.811 8.049,206.825 7.990,206.592 7.710 C 206.172 7.204,206.923 6.404,207.518 6.723 C 207.776 6.860,207.937 6.865,207.937 6.734 C 207.937 6.617,207.812 6.471,207.658 6.409 C 207.461 6.329,207.457 6.291,207.642 6.278 C 207.787 6.268,208.053 6.408,208.233 6.588 C 208.520 6.875,208.574 6.862,208.675 6.476 C 208.822 5.912,207.411 5.849,206.646 6.385 M209.428 6.186 C 209.152 6.462,209.268 6.771,209.558 6.536 C 209.712 6.411,210.039 6.259,210.285 6.199 C 210.645 6.110,210.619 6.084,210.155 6.063 C 209.837 6.049,209.510 6.104,209.428 6.186 M389.268 6.205 C 389.269 6.297,389.624 6.380,390.057 6.389 C 390.541 6.400,390.735 6.336,390.560 6.225 C 390.199 5.996,389.268 5.981,389.268 6.205 M391.355 6.310 C 391.355 6.517,391.586 6.633,391.997 6.633 C 392.416 6.633,392.539 6.569,392.351 6.450 C 392.187 6.346,392.167 6.266,392.305 6.264 C 392.722 6.258,392.852 6.542,392.582 6.867 C 392.379 7.111,392.392 7.165,392.640 7.112 C 392.814 7.074,392.934 7.163,392.906 7.309 C 392.876 7.463,393.040 7.539,393.297 7.489 C 393.799 7.393,393.829 7.465,393.520 8.042 C 393.354 8.352,393.388 8.485,393.661 8.590 C 394.078 8.750,393.990 6.869,393.561 6.439 C 393.162 6.041,391.355 5.935,391.355 6.310 M192.650 6.884 C 192.488 7.147,193.126 7.731,193.340 7.517 C 193.422 7.435,193.331 7.210,193.138 7.016 C 192.929 6.807,192.731 6.754,192.650 6.884 M206.813 7.051 C 206.425 7.519,206.748 7.769,207.182 7.336 C 207.391 7.127,207.444 6.929,207.313 6.848 C 207.193 6.774,206.967 6.865,206.813 7.051 M193.718 8.571 C 193.558 8.754,193.542 9.041,193.673 9.396 C 193.784 9.695,193.828 10.143,193.772 10.392 C 193.716 10.640,193.754 11.045,193.857 11.291 C 193.980 11.587,194.049 11.153,194.059 10.006 C 194.068 9.053,194.050 8.277,194.019 8.281 C 193.988 8.286,193.853 8.416,193.718 8.571 M205.941 9.997 C 205.951 11.149,206.020 11.587,206.143 11.291 C 206.246 11.045,206.283 10.639,206.227 10.388 C 206.170 10.137,206.218 9.685,206.333 9.382 C 206.485 8.983,206.458 8.753,206.234 8.543 C 205.973 8.300,205.928 8.525,205.941 9.997 M6.173 9.521 C 5.984 10.013,6.003 10.732,6.205 10.732 C 6.297 10.731,6.380 10.379,6.389 9.949 C 6.408 9.077,6.371 9.004,6.173 9.521 M393.611 9.943 C 393.620 10.376,393.703 10.731,393.795 10.732 C 394.019 10.732,394.004 9.801,393.775 9.440 C 393.664 9.265,393.600 9.459,393.611 9.943 M5.813 15.316 C 5.813 16.648,5.864 17.687,5.926 17.625 C 6.086 17.466,6.102 13.182,5.944 13.024 C 5.872 12.952,5.813 13.984,5.813 15.316 M393.931 13.807 C 393.887 14.268,393.909 15.349,393.980 16.210 C 394.098 17.663,394.111 17.602,394.147 15.372 C 394.187 12.976,394.081 12.215,393.931 13.807 M193.921 14.421 C 193.922 15.159,193.964 15.434,194.013 15.032 C 194.063 14.630,194.062 14.027,194.011 13.691 C 193.960 13.355,193.919 13.684,193.921 14.421 M205.994 14.421 C 205.996 15.159,206.037 15.434,206.087 15.032 C 206.137 14.630,206.136 14.027,206.085 13.691 C 206.034 13.355,205.993 13.684,205.994 14.421 M28.574 28.563 C 27.910 29.254,27.707 29.700,27.425 31.091 C 26.361 36.333,24.545 38.121,19.129 39.261 C 17.855 39.529,17.393 39.749,16.714 40.412 L 15.875 41.231 15.875 111.794 L 15.875 182.358 16.714 183.177 C 17.393 183.840,17.855 184.060,19.129 184.328 C 24.545 185.467,26.361 187.255,27.425 192.498 C 27.707 193.888,27.910 194.335,28.574 195.025 L 29.381 195.864 100.075 195.864 L 170.770 195.864 171.578 194.969 C 172.023 194.476,172.389 193.848,172.391 193.571 C 172.396 192.901,173.125 190.156,173.590 189.061 C 174.553 186.788,176.673 185.275,179.877 184.572 C 180.738 184.384,181.667 184.179,181.941 184.118 C 182.216 184.057,182.794 183.696,183.227 183.316 L 184.013 182.626 184.013 111.794 L 184.013 40.963 183.227 40.272 C 182.794 39.892,182.216 39.532,181.941 39.470 C 181.667 39.409,180.738 39.205,179.877 39.016 C 176.673 38.314,174.553 36.800,173.590 34.527 C 173.125 33.432,172.396 30.688,172.391 30.017 C 172.389 29.741,172.023 29.112,171.578 28.620 L 170.770 27.725 100.075 27.725 L 29.381 27.725 28.574 28.563 M246.730 49.090 C 244.271 49.381,242.056 49.622,241.809 49.627 C 238.693 49.692,230.470 56.832,227.747 61.839 C 226.067 64.928,226.214 64.306,225.375 71.864 C 224.686 78.071,224.682 168.964,225.371 175.209 C 226.217 182.878,226.091 182.297,227.028 182.850 C 227.924 183.379,229.079 185.573,229.300 187.167 C 229.434 188.129,229.643 188.395,232.497 191.223 L 235.551 194.249 237.451 194.393 C 243.493 194.850,254.338 194.946,300.056 194.946 C 345.592 194.946,356.009 194.853,362.661 194.387 L 364.561 194.254 367.608 191.233 L 370.654 188.211 370.800 186.969 C 371.017 185.126,372.449 182.801,373.607 182.414 C 373.736 182.371,374.135 179.592,374.510 176.121 L 375.182 169.906 375.182 123.543 L 375.182 77.180 374.501 70.954 L 373.820 64.729 372.229 61.838 C 369.053 56.068,361.747 50.015,357.406 49.559 C 356.669 49.482,354.263 49.216,352.061 48.969 C 348.164 48.531,346.753 48.519,299.629 48.540 L 251.202 48.562 246.730 49.090 M152.438 77.418 C 156.899 78.279,157.846 79.757,158.207 86.417 C 158.741 96.280,157.219 98.691,150.072 99.303 C 146.309 99.625,146.547 99.419,146.383 102.485 C 146.013 109.376,144.824 110.587,137.920 111.100 C 134.693 111.340,134.892 111.189,134.723 113.528 C 134.152 121.454,132.530 122.974,124.645 122.974 C 123.207 122.974,122.974 123.221,122.972 124.751 C 122.972 125.434,122.822 126.998,122.640 128.228 C 121.842 133.609,121.422 133.895,113.025 134.772 L 111.460 134.936 111.306 135.830 C 111.221 136.322,111.048 137.831,110.920 139.184 C 110.337 145.362,108.651 146.482,99.944 146.475 C 90.902 146.468,89.386 145.250,88.863 137.567 C 88.674 134.784,88.814 134.905,85.452 134.613 C 78.555 134.014,77.714 133.157,77.159 126.153 C 76.907 122.978,76.995 123.071,74.059 122.885 C 66.931 122.434,65.828 121.331,65.377 114.203 C 65.191 111.267,65.284 111.355,62.108 111.103 C 55.104 110.547,54.248 109.708,53.649 102.810 C 53.357 99.448,53.478 99.588,50.695 99.398 C 43.194 98.888,42.201 97.802,41.888 89.770 C 41.491 79.583,42.716 77.745,50.307 77.142 C 54.972 76.771,150.423 77.029,152.438 77.418 M350.002 77.471 C 355.281 78.173,356.545 79.037,357.400 82.529 C 358.486 86.964,358.021 94.046,356.493 96.356 C 355.421 97.975,353.637 98.694,349.712 99.086 C 346.403 99.417,346.464 99.359,346.145 102.465 C 345.471 109.032,344.281 110.210,337.635 110.889 C 334.645 111.194,334.594 111.241,334.406 113.868 C 333.926 120.556,332.276 122.196,325.551 122.674 C 322.986 122.856,322.932 122.916,322.627 125.896 C 321.949 132.543,320.771 133.732,314.203 134.407 C 311.099 134.726,311.155 134.666,310.826 137.961 C 310.206 144.168,309.020 145.364,302.728 146.133 C 293.189 147.297,289.139 144.544,289.104 136.871 C 289.096 135.090,288.640 134.664,286.548 134.487 C 279.482 133.888,278.124 132.662,277.442 126.269 C 277.110 123.152,276.887 122.751,275.491 122.749 C 268.219 122.740,266.190 120.821,265.506 113.310 C 265.311 111.176,265.343 111.201,262.458 110.908 C 255.726 110.223,253.797 108.136,253.770 101.509 C 253.763 99.586,253.556 99.427,250.652 99.125 C 243.764 98.406,242.443 96.947,242.003 89.568 C 241.501 81.138,243.322 78.316,249.803 77.483 C 253.374 77.024,346.558 77.012,350.002 77.471 M5.813 208.273 C 5.813 209.605,5.872 210.636,5.944 210.565 C 6.102 210.406,6.086 206.123,5.926 205.963 C 5.864 205.901,5.813 206.941,5.813 208.273 M393.926 207.434 C 393.885 208.264,393.912 209.346,393.987 209.838 C 394.073 210.401,394.135 209.842,394.155 208.329 C 394.190 205.661,394.041 205.081,393.926 207.434 M193.921 209.167 C 193.922 209.905,193.964 210.180,194.013 209.778 C 194.063 209.376,194.062 208.772,194.011 208.436 C 193.960 208.100,193.919 208.429,193.921 209.167 M205.994 209.167 C 205.996 209.905,206.037 210.180,206.087 209.778 C 206.137 209.376,206.136 208.772,206.085 208.436 C 206.034 208.100,205.993 208.429,205.994 209.167 M193.816 212.353 C 193.796 212.568,193.799 212.942,193.822 213.182 C 193.844 213.423,193.773 213.877,193.663 214.192 C 193.521 214.599,193.552 214.845,193.770 215.048 C 194.026 215.288,194.075 215.063,194.075 213.648 C 194.075 212.148,193.909 211.321,193.816 212.353 M205.941 213.592 C 205.928 215.063,205.973 215.289,206.234 215.045 C 206.458 214.836,206.485 214.606,206.333 214.207 C 206.218 213.904,206.170 213.451,206.227 213.200 C 206.283 212.950,206.246 212.543,206.143 212.297 C 206.020 212.002,205.951 212.440,205.941 213.592 M6.040 213.359 C 6.042 213.636,6.125 213.991,6.225 214.148 C 6.336 214.323,6.400 214.129,6.389 213.646 C 6.380 213.212,6.297 212.857,6.205 212.857 C 6.112 212.857,6.038 213.083,6.040 213.359 M393.611 213.646 C 393.600 214.129,393.664 214.323,393.775 214.148 C 394.004 213.787,394.019 212.856,393.795 212.857 C 393.703 212.857,393.620 213.212,393.611 213.646 M6.094 215.890 C 6.238 217.166,6.417 217.350,7.657 217.490 C 8.421 217.576,8.645 217.528,8.645 217.278 C 8.645 217.072,8.414 216.955,8.003 216.955 C 7.584 216.955,7.461 217.019,7.649 217.138 C 7.813 217.242,7.833 217.323,7.695 217.325 C 7.278 217.331,7.148 217.047,7.418 216.721 C 7.621 216.477,7.608 216.424,7.360 216.477 C 7.186 216.515,7.066 216.426,7.094 216.280 C 7.124 216.125,6.960 216.050,6.703 216.099 C 6.201 216.196,6.171 216.124,6.480 215.547 C 6.646 215.237,6.612 215.103,6.339 214.998 C 6.029 214.880,5.994 215.007,6.094 215.890 M393.584 215.048 C 393.407 215.159,393.387 215.328,393.524 215.545 C 393.842 216.048,393.782 216.193,393.297 216.099 C 393.040 216.050,392.876 216.125,392.906 216.280 C 392.934 216.426,392.814 216.515,392.640 216.477 C 392.392 216.424,392.379 216.477,392.582 216.721 C 392.852 217.047,392.722 217.331,392.305 217.325 C 392.167 217.323,392.187 217.242,392.351 217.138 C 392.539 217.019,392.416 216.955,391.997 216.955 C 391.611 216.955,391.355 217.074,391.355 217.254 C 391.355 218.197,393.670 217.365,393.860 216.354 C 394.045 215.367,393.931 214.830,393.584 215.048 M193.408 215.879 C 193.828 216.385,193.077 217.185,192.482 216.866 C 192.224 216.728,192.063 216.724,192.063 216.854 C 192.063 216.971,192.188 217.118,192.342 217.180 C 192.539 217.259,192.543 217.298,192.358 217.310 C 192.213 217.320,191.947 217.181,191.767 217.001 C 191.480 216.713,191.426 216.727,191.325 217.113 C 191.178 217.676,192.589 217.740,193.354 217.204 C 193.961 216.779,194.061 215.539,193.489 215.539 C 193.189 215.539,193.175 215.599,193.408 215.879 M206.149 216.197 C 206.149 217.027,206.853 217.552,207.966 217.552 C 208.675 217.552,208.774 217.490,208.675 217.113 C 208.574 216.727,208.520 216.713,208.233 217.001 C 208.053 217.181,207.787 217.320,207.642 217.310 C 207.457 217.298,207.461 217.259,207.658 217.180 C 207.812 217.118,207.937 216.971,207.937 216.854 C 207.937 216.724,207.776 216.728,207.518 216.866 C 206.923 217.185,206.172 216.385,206.592 215.879 C 206.825 215.599,206.811 215.539,206.511 215.539 C 206.259 215.539,206.149 215.740,206.149 216.197 M192.763 216.287 C 192.626 216.452,192.579 216.652,192.659 216.732 C 192.827 216.900,193.404 216.474,193.404 216.183 C 193.404 215.888,193.045 215.947,192.763 216.287 M206.596 216.183 C 206.596 216.474,207.173 216.900,207.341 216.732 C 207.509 216.564,207.084 215.987,206.792 215.987 C 206.684 215.987,206.596 216.075,206.596 216.183 M190.371 217.087 C 190.256 217.196,189.961 217.333,189.715 217.392 C 189.370 217.475,189.406 217.506,189.869 217.526 C 190.200 217.540,190.537 217.444,190.618 217.313 C 190.813 216.998,190.636 216.835,190.371 217.087 M209.316 217.105 C 209.376 217.289,209.719 217.458,210.079 217.480 C 210.489 217.505,210.566 217.475,210.285 217.400 C 210.039 217.334,209.696 217.165,209.522 217.025 C 209.274 216.824,209.230 216.841,209.316 217.105 M9.440 217.364 C 9.801 217.592,10.732 217.607,10.732 217.384 C 10.731 217.292,10.376 217.209,9.943 217.199 C 9.459 217.189,9.265 217.252,9.440 217.364 M389.268 217.384 C 389.268 217.607,390.199 217.592,390.560 217.364 C 390.735 217.252,390.541 217.189,390.057 217.199 C 389.624 217.209,389.269 217.292,389.268 217.384 M13.751 217.576 C 13.259 217.651,52.096 217.701,100.056 217.688 C 148.016 217.676,173.220 217.640,156.065 217.608 C 77.656 217.466,14.568 217.452,13.751 217.576 M299.050 217.552 L 212.745 217.664 299.888 217.720 C 347.817 217.750,387.032 217.736,387.032 217.687 C 387.032 217.458,379.958 217.447,299.050 217.552 " stroke="none" fill="#fcfcfc" fill-rule="evenodd"></path><path id="path4" d="M28.384 25.897 C 26.897 26.842,26.141 27.836,24.732 30.702 C 23.163 33.891,21.974 35.072,18.796 36.593 C 16.255 37.810,15.447 38.402,14.420 39.800 L 13.639 40.865 13.639 111.794 L 13.639 182.724 14.420 183.788 C 15.447 185.187,16.255 185.779,18.796 186.996 C 21.974 188.517,23.163 189.698,24.732 192.887 C 26.141 195.753,26.897 196.747,28.384 197.692 L 29.378 198.323 100.066 198.323 L 170.755 198.323 171.627 197.689 C 173.114 196.608,174.131 195.281,175.157 193.085 C 176.638 189.916,178.611 188.015,181.739 186.744 C 183.213 186.145,184.472 185.164,185.604 183.731 L 186.473 182.632 186.473 111.794 L 186.473 40.957 185.604 39.858 C 184.472 38.425,183.213 37.444,181.739 36.845 C 178.611 35.574,176.638 33.673,175.157 30.504 C 174.131 28.308,173.114 26.981,171.627 25.900 L 170.755 25.266 100.066 25.266 L 29.378 25.266 28.384 25.897 M171.578 28.620 C 172.023 29.112,172.389 29.741,172.391 30.017 C 172.396 30.688,173.125 33.432,173.590 34.527 C 174.553 36.800,176.673 38.314,179.877 39.016 C 180.738 39.205,181.667 39.409,181.941 39.470 C 182.216 39.532,182.794 39.892,183.227 40.272 L 184.013 40.963 184.013 111.794 L 184.013 182.626 183.227 183.316 C 182.794 183.696,182.216 184.057,181.941 184.118 C 181.667 184.179,180.738 184.384,179.877 184.572 C 176.673 185.275,174.553 186.788,173.590 189.061 C 173.125 190.156,172.396 192.901,172.391 193.571 C 172.389 193.848,172.023 194.476,171.578 194.969 L 170.770 195.864 100.075 195.864 L 29.381 195.864 28.574 195.025 C 27.910 194.335,27.707 193.888,27.425 192.498 C 26.361 187.255,24.545 185.467,19.129 184.328 C 17.855 184.060,17.393 183.840,16.714 183.177 L 15.875 182.358 15.875 111.794 L 15.875 41.231 16.714 40.412 C 17.393 39.749,17.855 39.529,19.129 39.261 C 24.545 38.121,26.361 36.333,27.425 31.091 C 27.707 29.700,27.910 29.254,28.574 28.563 L 29.381 27.725 100.075 27.725 L 170.770 27.725 171.578 28.620 M234.321 28.451 C 228.700 28.692,228.993 28.559,228.191 31.240 C 227.644 33.066,226.770 34.821,226.150 35.335 C 225.971 35.484,225.824 35.736,225.824 35.896 C 225.824 36.610,222.308 38.899,221.199 38.907 C 220.224 38.915,217.480 39.991,216.863 40.608 C 216.236 41.235,216.208 41.354,216.086 43.925 C 216.017 45.392,215.921 46.655,215.874 46.732 C 215.740 46.948,215.347 52.802,215.094 58.356 C 214.903 62.541,214.830 100.934,214.867 178.606 L 214.869 182.701 216.042 183.869 C 216.879 184.701,217.605 185.178,218.569 185.527 C 221.270 186.506,224.502 189.406,225.262 191.534 C 226.378 194.662,226.552 194.973,227.861 196.186 L 229.175 197.402 231.916 197.535 C 238.149 197.836,356.559 197.924,363.743 197.633 L 370.750 197.349 371.707 196.618 C 372.850 195.745,373.865 194.280,374.258 192.932 C 375.243 189.563,378.654 186.128,381.674 185.465 C 382.181 185.354,382.906 184.827,383.845 183.888 L 385.256 182.477 385.173 121.255 C 385.117 79.042,385.013 58.784,384.838 56.009 C 384.426 49.465,384.353 48.496,384.134 46.618 C 384.018 45.634,383.925 44.291,383.926 43.632 C 383.929 40.881,383.473 40.260,380.870 39.466 C 379.858 39.157,378.865 38.904,378.663 38.904 C 377.777 38.904,374.381 36.760,374.135 36.045 C 374.062 35.834,373.669 35.159,373.260 34.544 C 372.603 33.554,371.381 30.360,371.381 29.632 C 371.381 28.208,368.761 28.157,298.714 28.204 C 265.942 28.226,236.965 28.337,234.321 28.451 M352.061 48.969 C 354.263 49.216,356.669 49.482,357.406 49.559 C 361.747 50.015,369.053 56.068,372.229 61.838 L 373.820 64.729 374.501 70.954 L 375.182 77.180 375.182 123.543 L 375.182 169.906 374.510 176.121 C 374.135 179.592,373.736 182.371,373.607 182.414 C 372.449 182.801,371.017 185.126,370.800 186.969 L 370.654 188.211 367.608 191.233 L 364.561 194.254 362.661 194.387 C 356.009 194.853,345.592 194.946,300.056 194.946 C 254.338 194.946,243.493 194.850,237.451 194.393 L 235.551 194.249 232.497 191.223 C 229.643 188.395,229.434 188.129,229.300 187.167 C 229.079 185.573,227.924 183.379,227.028 182.850 C 226.091 182.297,226.217 182.878,225.371 175.209 C 224.682 168.964,224.686 78.071,225.375 71.864 C 226.214 64.306,226.067 64.928,227.747 61.839 C 230.470 56.832,238.693 49.692,241.809 49.627 C 242.056 49.622,244.271 49.381,246.730 49.090 L 251.202 48.562 299.629 48.540 C 346.753 48.519,348.164 48.531,352.061 48.969 M50.307 77.142 C 42.716 77.745,41.491 79.583,41.888 89.770 C 42.201 97.802,43.194 98.888,50.695 99.398 C 53.478 99.588,53.357 99.448,53.649 102.810 C 54.248 109.708,55.104 110.547,62.108 111.103 C 65.284 111.355,65.191 111.267,65.377 114.203 C 65.828 121.331,66.931 122.434,74.059 122.885 C 76.995 123.071,76.907 122.978,77.159 126.153 C 77.714 133.157,78.555 134.014,85.452 134.613 C 88.814 134.905,88.674 134.784,88.863 137.567 C 89.386 145.250,90.902 146.468,99.944 146.475 C 108.651 146.482,110.337 145.362,110.920 139.184 C 111.048 137.831,111.221 136.322,111.306 135.830 L 111.460 134.936 113.025 134.772 C 121.422 133.895,121.842 133.609,122.640 128.228 C 122.822 126.998,122.972 125.434,122.972 124.751 C 122.974 123.221,123.207 122.974,124.645 122.974 C 132.530 122.974,134.152 121.454,134.723 113.528 C 134.892 111.189,134.693 111.340,137.920 111.100 C 144.824 110.587,146.013 109.376,146.383 102.485 C 146.547 99.419,146.309 99.625,150.072 99.303 C 157.219 98.691,158.741 96.280,158.207 86.417 C 157.846 79.757,156.899 78.279,152.438 77.418 C 150.423 77.029,54.972 76.771,50.307 77.142 M249.803 77.483 C 243.322 78.316,241.501 81.138,242.003 89.568 C 242.443 96.947,243.764 98.406,250.652 99.125 C 253.556 99.427,253.763 99.586,253.770 101.509 C 253.797 108.136,255.726 110.223,262.458 110.908 C 265.343 111.201,265.311 111.176,265.506 113.310 C 266.190 120.821,268.219 122.740,275.491 122.749 C 276.887 122.751,277.110 123.152,277.442 126.269 C 278.124 132.662,279.482 133.888,286.548 134.487 C 288.640 134.664,289.096 135.090,289.104 136.871 C 289.139 144.544,293.189 147.297,302.728 146.133 C 309.020 145.364,310.206 144.168,310.826 137.961 C 311.155 134.666,311.099 134.726,314.203 134.407 C 320.771 133.732,321.949 132.543,322.627 125.896 C 322.932 122.916,322.986 122.856,325.551 122.674 C 332.276 122.196,333.926 120.556,334.406 113.868 C 334.594 111.241,334.645 111.194,337.635 110.889 C 344.281 110.210,345.471 109.032,346.145 102.465 C 346.464 99.359,346.403 99.417,349.712 99.086 C 353.637 98.694,355.421 97.975,356.493 96.356 C 358.021 94.046,358.486 86.964,357.400 82.529 C 356.545 79.037,355.281 78.173,350.002 77.471 C 346.558 77.012,253.374 77.024,249.803 77.483 M150.135 78.349 C 154.630 79.541,156.061 81.106,156.997 85.848 L 157.484 88.317 157.021 90.666 C 156.039 95.642,154.421 97.233,149.315 98.244 C 146.708 98.759,145.556 99.468,145.556 100.554 C 145.556 105.866,142.906 108.970,137.470 110.023 C 134.845 110.532,134.027 111.074,133.808 112.448 C 132.743 119.129,130.674 121.302,124.722 121.990 C 122.870 122.205,122.229 122.950,121.860 125.320 C 120.985 130.943,118.804 132.958,112.653 133.827 C 111.043 134.054,110.466 134.802,110.091 137.143 C 109.165 142.929,105.942 145.606,99.929 145.584 C 94.183 145.564,91.147 143.164,90.087 137.806 C 89.505 134.865,88.910 134.036,87.220 133.808 C 81.369 133.019,79.341 131.226,78.257 125.880 C 77.728 123.271,76.962 122.081,75.809 122.078 C 73.785 122.072,70.188 120.751,68.901 119.540 C 67.636 118.350,66.182 114.525,66.182 112.388 C 66.182 111.307,64.929 110.521,62.381 110.004 C 57.021 108.918,55.244 106.909,54.454 101.042 C 54.226 99.352,53.396 98.757,50.455 98.175 C 44.634 97.023,41.841 92.747,42.849 86.529 C 43.749 80.976,45.533 79.165,51.090 78.166 C 54.195 77.608,147.995 77.781,150.135 78.349 M348.839 78.922 C 354.983 80.531,357.885 85.422,356.082 91.128 C 354.863 94.986,352.982 96.633,348.648 97.642 C 346.238 98.202,345.244 99.240,344.593 101.875 C 343.487 106.355,341.576 108.270,337.157 109.325 C 334.456 109.970,333.514 110.937,332.788 113.808 C 331.702 118.104,329.841 119.964,325.542 121.051 C 323.268 121.626,321.297 123.148,321.297 124.330 C 321.297 128.518,317.967 131.973,312.904 133.038 C 311.071 133.424,309.881 134.751,309.367 136.981 C 308.262 141.779,306.034 143.860,300.906 144.883 C 300.070 145.050,299.502 145.000,298.121 144.639 C 293.565 143.445,291.819 141.649,290.638 136.939 C 289.990 134.358,289.238 133.639,286.396 132.883 C 281.811 131.662,280.163 130.010,278.927 125.388 C 278.164 122.539,277.322 121.664,274.851 121.153 C 270.308 120.213,268.184 118.026,267.007 113.081 C 266.488 110.897,265.503 109.992,262.956 109.358 C 258.258 108.189,255.940 105.712,255.201 101.070 C 254.945 99.464,253.529 98.109,251.719 97.737 C 245.146 96.387,241.955 91.115,244.025 85.027 C 245.277 81.346,247.807 79.370,252.208 78.634 C 254.607 78.233,347.262 78.509,348.839 78.922 " stroke="none" fill="#f4f4f4" fill-rule="evenodd"></path></g></svg>