<svg id="svg" version="1.1" xmlns="http://www.w3.org/2000/svg" xmlns:xlink="http://www.w3.org/1999/xlink" width="400" height="100" viewBox="0, 0, 400,100"><g id="svgg"><path id="path0" d="M12.193 10.115 C 12.070 10.164,11.545 10.627,11.026 11.144 L 10.083 12.083 10.083 50.000 L 10.083 87.917 11.083 88.917 L 12.083 89.917 50.000 89.917 L 87.917 89.917 88.917 88.917 L 89.917 87.917 89.917 50.000 L 89.917 12.083 88.917 11.083 L 87.917 10.083 50.167 10.054 C 29.404 10.038,12.316 10.066,12.193 10.115 M212.193 10.115 C 212.070 10.164,211.545 10.627,211.026 11.144 L 210.083 12.083 210.083 50.000 L 210.083 87.917 211.083 88.917 L 212.083 89.917 250.000 89.917 L 287.917 89.917 288.917 88.917 L 289.917 87.917 289.917 50.000 L 289.917 12.083 288.917 11.083 L 287.917 10.083 250.167 10.054 C 229.404 10.038,212.316 10.066,212.193 10.115 M256.084 14.036 C 258.269 14.679,259.532 15.600,260.255 17.078 C 261.226 19.062,261.220 19.005,261.289 28.667 L 261.353 37.583 261.866 38.115 L 262.379 38.646 271.314 38.710 C 278.706 38.763,280.394 38.818,281.084 39.028 C 285.444 40.354,286.250 42.065,286.250 50.000 C 286.250 57.935,285.444 59.646,281.084 60.972 C 280.394 61.182,278.706 61.237,271.314 61.290 L 262.379 61.354 261.866 61.885 L 261.353 62.417 261.289 71.333 C 261.237 78.707,261.182 80.394,260.972 81.084 C 259.646 85.444,257.935 86.250,250.000 86.250 C 242.065 86.250,240.354 85.444,239.028 81.084 C 238.818 80.394,238.763 78.706,238.710 71.314 L 238.646 62.379 238.115 61.866 L 237.583 61.353 228.667 61.289 C 221.293 61.237,219.606 61.182,218.916 60.972 C 214.556 59.646,213.750 57.935,213.750 50.000 C 213.750 42.065,214.556 40.354,218.916 39.028 C 219.606 38.818,221.294 38.763,228.686 38.710 L 237.621 38.646 238.134 38.115 L 238.647 37.583 238.711 28.667 C 238.763 21.293,238.818 19.606,239.028 18.916 C 240.038 15.594,241.502 14.428,245.500 13.765 C 246.624 13.578,255.282 13.800,256.084 14.036 M345.209 20.208 L 344.686 20.750 344.623 29.667 C 344.555 39.140,344.558 39.108,343.711 41.021 C 343.015 42.595,341.680 43.626,339.478 44.289 C 338.715 44.520,337.275 44.568,329.667 44.623 L 320.750 44.686 320.208 45.209 L 319.667 45.732 319.667 50.000 L 319.667 54.268 320.208 54.791 L 320.750 55.314 329.667 55.377 C 339.140 55.445,339.108 55.442,341.021 56.289 C 342.595 56.985,343.626 58.320,344.289 60.522 C 344.520 61.285,344.568 62.725,344.623 70.333 L 344.686 79.250 345.209 79.792 L 345.732 80.333 350.000 80.333 L 354.268 80.333 354.791 79.792 L 355.314 79.250 355.377 70.333 C 355.432 62.725,355.480 61.285,355.711 60.522 C 356.374 58.320,357.405 56.985,358.979 56.289 C 360.892 55.442,360.860 55.445,370.333 55.377 L 379.250 55.314 379.792 54.791 L 380.333 54.268 380.333 50.000 L 380.333 45.732 379.792 45.209 L 379.250 44.686 370.333 44.623 C 362.725 44.568,361.285 44.520,360.522 44.289 C 358.320 43.626,356.985 42.595,356.289 41.021 C 355.442 39.108,355.445 39.140,355.377 29.667 L 355.314 20.750 354.791 20.208 L 354.268 19.667 350.000 19.667 L 345.732 19.667 345.209 20.208 M81.084 55.687 C 85.465 57.060,86.250 58.728,86.250 66.667 C 86.250 74.666,85.312 76.575,80.833 77.689 C 80.075 77.877,74.745 77.917,50.000 77.917 C 17.487 77.917,19.334 77.969,17.229 76.982 C 15.568 76.202,14.571 74.827,13.982 72.500 C 13.655 71.209,13.652 62.145,13.978 60.833 C 14.817 57.458,16.540 56.033,20.500 55.438 C 22.053 55.204,80.309 55.444,81.084 55.687 M120.199 61.883 L 119.667 62.433 119.667 66.684 L 119.667 70.935 120.216 71.467 L 120.766 72.000 150.017 72.000 L 179.268 72.000 179.801 71.450 L 180.333 70.901 180.333 66.650 L 180.333 62.399 179.784 61.866 L 179.234 61.333 149.983 61.333 L 120.732 61.333 120.199 61.883 " stroke="none" fill="#fcfcfc" fill-rule="evenodd"></path><path id="path1" d="M4.333 2.167 L 4.333 4.333 2.167 4.333 L 0.000 4.333 0.000 50.000 L 0.000 95.667 2.167 95.667 L 4.333 95.667 4.333 97.833 L 4.333 100.000 50.000 100.000 L 95.667 100.000 95.667 97.833 L 95.667 95.667 96.625 95.652 C 97.625 95.637,99.373 95.410,99.083 95.334 C 98.992 95.309,99.179 95.234,99.500 95.167 L 100.083 95.044 99.417 95.015 L 98.750 94.987 99.208 94.738 C 99.460 94.601,99.667 94.450,99.667 94.402 C 99.667 94.353,99.573 94.368,99.458 94.435 C 99.344 94.502,99.388 94.400,99.557 94.207 C 99.859 93.862,99.858 93.858,99.474 93.957 C 99.119 94.049,99.105 94.032,99.323 93.766 C 99.469 93.588,99.499 93.431,99.400 93.362 C 99.203 93.225,99.205 92.995,99.407 92.677 C 99.503 92.525,99.495 92.415,99.385 92.378 C 99.268 92.339,99.284 92.107,99.432 91.677 C 99.590 91.218,99.607 90.875,99.493 90.477 C 99.301 89.806,99.300 89.793,99.458 89.891 C 99.527 89.933,99.583 71.982,99.583 50.000 C 99.583 28.018,99.527 10.067,99.458 10.109 C 99.300 10.207,99.301 10.194,99.493 9.523 C 99.607 9.125,99.590 8.782,99.432 8.323 C 99.284 7.893,99.268 7.661,99.385 7.622 C 99.495 7.585,99.503 7.475,99.407 7.323 C 99.205 7.005,99.203 6.775,99.400 6.638 C 99.499 6.569,99.469 6.412,99.323 6.234 C 99.105 5.968,99.119 5.951,99.474 6.043 C 99.858 6.142,99.859 6.138,99.557 5.793 C 99.388 5.600,99.344 5.498,99.458 5.565 C 99.573 5.632,99.667 5.647,99.667 5.598 C 99.667 5.550,99.460 5.399,99.208 5.262 L 98.750 5.013 99.417 4.985 L 100.083 4.956 99.500 4.833 C 99.179 4.766,98.992 4.691,99.083 4.666 C 99.373 4.590,97.625 4.363,96.625 4.348 L 95.667 4.333 95.667 2.167 L 95.667 0.000 50.000 0.000 L 4.333 0.000 4.333 2.167 M204.333 2.167 L 204.333 4.333 203.375 4.348 C 202.375 4.363,200.627 4.590,200.917 4.666 C 201.008 4.691,200.821 4.766,200.500 4.833 L 199.917 4.956 200.583 4.985 L 201.250 5.013 200.792 5.262 C 200.540 5.399,200.333 5.550,200.333 5.598 C 200.333 5.647,200.427 5.632,200.542 5.565 C 200.656 5.498,200.612 5.600,200.443 5.793 C 200.141 6.138,200.142 6.142,200.526 6.043 C 200.881 5.951,200.895 5.968,200.677 6.234 C 200.531 6.412,200.501 6.569,200.600 6.638 C 200.797 6.775,200.795 7.005,200.593 7.323 C 200.497 7.475,200.505 7.585,200.615 7.622 C 200.732 7.661,200.716 7.893,200.568 8.323 C 200.410 8.782,200.393 9.125,200.507 9.523 C 200.699 10.194,200.700 10.207,200.542 10.109 C 200.473 10.067,200.417 28.018,200.417 50.000 C 200.417 71.982,200.473 89.933,200.542 89.891 C 200.700 89.793,200.699 89.806,200.507 90.477 C 200.393 90.875,200.410 91.218,200.568 91.677 C 200.716 92.107,200.732 92.339,200.615 92.378 C 200.505 92.415,200.497 92.525,200.593 92.677 C 200.795 92.995,200.797 93.225,200.600 93.362 C 200.501 93.431,200.531 93.588,200.677 93.766 C 200.895 94.032,200.881 94.049,200.526 93.957 C 200.142 93.858,200.141 93.862,200.443 94.207 C 200.612 94.400,200.656 94.502,200.542 94.435 C 200.427 94.368,200.333 94.353,200.333 94.402 C 200.333 94.450,200.540 94.601,200.792 94.738 L 201.250 94.987 200.583 95.015 L 199.917 95.044 200.500 95.167 C 200.821 95.234,201.008 95.309,200.917 95.334 C 200.627 95.410,202.375 95.637,203.375 95.652 L 204.333 95.667 204.333 97.833 L 204.333 100.000 250.000 100.000 L 295.667 100.000 295.667 97.833 L 295.667 95.667 296.625 95.652 C 297.625 95.637,299.373 95.410,299.083 95.334 C 298.992 95.309,299.179 95.234,299.500 95.167 L 300.083 95.044 299.417 95.015 L 298.750 94.987 299.208 94.738 C 299.460 94.601,299.667 94.450,299.667 94.402 C 299.667 94.353,299.573 94.368,299.458 94.435 C 299.344 94.502,299.388 94.400,299.557 94.207 C 299.859 93.862,299.858 93.858,299.474 93.957 C 299.119 94.049,299.105 94.032,299.323 93.766 C 299.469 93.588,299.499 93.431,299.400 93.362 C 299.203 93.225,299.205 92.995,299.407 92.677 C 299.503 92.525,299.495 92.415,299.385 92.378 C 299.268 92.339,299.284 92.107,299.432 91.677 C 299.590 91.218,299.607 90.875,299.493 90.477 C 299.301 89.806,299.300 89.793,299.458 89.891 C 299.527 89.933,299.583 71.982,299.583 50.000 C 299.583 28.018,299.527 10.067,299.458 10.109 C 299.300 10.207,299.301 10.194,299.493 9.523 C 299.607 9.125,299.590 8.782,299.432 8.323 C 299.284 7.893,299.268 7.661,299.385 7.622 C 299.495 7.585,299.503 7.475,299.407 7.323 C 299.205 7.005,299.203 6.775,299.400 6.638 C 299.499 6.569,299.469 6.412,299.323 6.234 C 299.105 5.968,299.119 5.951,299.474 6.043 C 299.858 6.142,299.859 6.138,299.557 5.793 C 299.388 5.600,299.344 5.498,299.458 5.565 C 299.573 5.632,299.667 5.647,299.667 5.598 C 299.667 5.550,299.460 5.399,299.208 5.262 L 298.750 5.013 299.417 4.985 L 300.083 4.956 299.500 4.833 C 299.179 4.766,298.992 4.691,299.083 4.666 C 299.373 4.590,297.625 4.363,296.625 4.348 L 295.667 4.333 295.667 2.167 L 295.667 0.000 250.000 0.000 L 204.333 0.000 204.333 2.167 M88.504 8.222 C 88.736 8.343,89.028 8.407,89.153 8.366 C 89.288 8.321,89.333 8.365,89.265 8.476 C 89.196 8.588,89.238 8.629,89.369 8.579 C 89.678 8.460,91.576 10.409,91.411 10.676 C 91.323 10.819,91.349 10.843,91.496 10.753 C 91.638 10.665,91.684 10.697,91.634 10.847 C 91.593 10.972,91.657 11.264,91.778 11.496 C 92.103 12.120,92.103 87.880,91.778 88.504 C 91.657 88.736,91.593 89.028,91.634 89.153 C 91.684 89.303,91.638 89.335,91.496 89.247 C 91.349 89.157,91.323 89.181,91.411 89.324 C 91.576 89.591,89.678 91.540,89.369 91.421 C 89.238 91.371,89.196 91.412,89.265 91.524 C 89.333 91.635,89.288 91.679,89.153 91.634 C 89.028 91.593,88.736 91.657,88.504 91.778 C 87.880 92.103,12.120 92.103,11.496 91.778 C 11.264 91.657,10.972 91.593,10.847 91.634 C 10.697 91.684,10.665 91.638,10.753 91.496 C 10.843 91.349,10.819 91.323,10.676 91.411 C 10.409 91.576,8.460 89.678,8.579 89.369 C 8.629 89.238,8.588 89.196,8.476 89.265 C 8.365 89.333,8.321 89.288,8.366 89.153 C 8.407 89.028,8.343 88.736,8.222 88.504 C 7.897 87.880,7.897 12.120,8.222 11.496 C 8.343 11.264,8.407 10.972,8.366 10.847 C 8.321 10.712,8.365 10.667,8.476 10.735 C 8.588 10.804,8.629 10.762,8.579 10.631 C 8.460 10.322,10.409 8.424,10.676 8.589 C 10.819 8.677,10.843 8.651,10.753 8.504 C 10.665 8.362,10.697 8.316,10.847 8.366 C 10.972 8.407,11.264 8.343,11.496 8.222 C 12.120 7.897,87.880 7.897,88.504 8.222 M288.504 8.222 C 288.736 8.343,289.028 8.407,289.153 8.366 C 289.288 8.321,289.333 8.365,289.265 8.476 C 289.196 8.588,289.238 8.629,289.369 8.579 C 289.678 8.460,291.576 10.409,291.411 10.676 C 291.323 10.819,291.349 10.843,291.496 10.753 C 291.638 10.665,291.684 10.697,291.634 10.847 C 291.593 10.972,291.657 11.264,291.778 11.496 C 292.103 12.120,292.103 87.880,291.778 88.504 C 291.657 88.736,291.593 89.028,291.634 89.153 C 291.684 89.303,291.638 89.335,291.496 89.247 C 291.349 89.157,291.323 89.181,291.411 89.324 C 291.576 89.591,289.678 91.540,289.369 91.421 C 289.238 91.371,289.196 91.412,289.265 91.524 C 289.333 91.635,289.288 91.679,289.153 91.634 C 289.028 91.593,288.736 91.657,288.504 91.778 C 287.880 92.103,212.120 92.103,211.496 91.778 C 211.264 91.657,210.972 91.593,210.847 91.634 C 210.697 91.684,210.665 91.638,210.753 91.496 C 210.843 91.349,210.819 91.323,210.676 91.411 C 210.409 91.576,208.460 89.678,208.579 89.369 C 208.629 89.238,208.588 89.196,208.476 89.265 C 208.365 89.333,208.321 89.288,208.366 89.153 C 208.407 89.028,208.343 88.736,208.222 88.504 C 207.897 87.880,207.897 12.120,208.222 11.496 C 208.343 11.264,208.407 10.972,208.366 10.847 C 208.321 10.712,208.365 10.667,208.476 10.735 C 208.588 10.804,208.629 10.762,208.579 10.631 C 208.460 10.322,210.409 8.424,210.676 8.589 C 210.819 8.677,210.843 8.651,210.753 8.504 C 210.665 8.362,210.697 8.316,210.847 8.366 C 210.972 8.407,211.264 8.343,211.496 8.222 C 212.120 7.897,287.880 7.897,288.504 8.222 M344.333 15.304 C 342.285 16.190,341.436 16.975,340.536 18.817 L 339.917 20.083 339.871 28.813 L 339.825 37.543 338.684 38.684 L 337.543 39.825 328.813 39.871 L 320.083 39.917 318.817 40.536 C 317.216 41.318,316.318 42.216,315.536 43.817 L 314.917 45.083 314.917 50.000 L 314.917 54.917 315.536 56.183 C 316.318 57.784,317.216 58.682,318.817 59.464 L 320.083 60.083 328.813 60.129 L 337.543 60.175 338.684 61.316 L 339.825 62.457 339.871 71.187 L 339.917 79.917 340.536 81.183 C 341.318 82.784,342.216 83.682,343.817 84.464 L 345.083 85.083 350.000 85.083 L 354.917 85.083 356.183 84.464 C 357.784 83.682,358.682 82.784,359.464 81.183 L 360.083 79.917 360.129 71.187 L 360.175 62.457 361.316 61.316 L 362.457 60.175 371.187 60.129 L 379.917 60.083 381.183 59.464 C 382.784 58.682,383.682 57.784,384.464 56.183 L 385.083 54.917 385.083 50.000 L 385.083 45.083 384.464 43.817 C 383.682 42.216,382.784 41.318,381.183 40.536 L 379.917 39.917 371.187 39.871 L 362.457 39.825 361.316 38.684 L 360.175 37.543 360.129 28.813 L 360.083 20.083 359.464 18.817 C 358.682 17.216,357.784 16.318,356.183 15.536 L 354.917 14.917 350.167 14.876 L 345.417 14.835 344.333 15.304 M244.984 15.478 C 243.056 16.242,241.656 17.553,240.710 19.480 L 240.250 20.417 240.204 29.065 L 240.158 37.713 238.935 38.935 L 237.713 40.158 229.056 40.204 L 220.399 40.250 219.246 40.833 C 217.780 41.576,216.575 42.780,215.833 44.246 L 215.250 45.399 215.250 50.000 L 215.250 54.601 215.833 55.754 C 216.575 57.220,217.780 58.424,219.246 59.167 L 220.399 59.750 229.056 59.796 L 237.713 59.842 238.935 61.065 L 240.158 62.287 240.204 70.944 L 240.250 79.601 240.833 80.754 C 241.576 82.220,242.780 83.425,244.246 84.167 L 245.399 84.750 250.000 84.750 L 254.601 84.750 255.754 84.167 C 257.220 83.425,258.424 82.220,259.167 80.754 L 259.750 79.601 259.796 70.944 L 259.842 62.287 261.065 61.065 L 262.287 59.842 270.944 59.796 L 279.601 59.750 280.754 59.167 C 282.220 58.424,283.425 57.220,284.167 55.754 L 284.750 54.601 284.750 50.000 L 284.750 45.399 284.167 44.246 C 283.425 42.780,282.220 41.576,280.754 40.833 L 279.601 40.250 270.944 40.204 L 262.287 40.158 261.065 38.935 L 259.842 37.713 259.796 29.056 L 259.750 20.399 259.167 19.246 C 258.425 17.780,257.220 16.576,255.754 15.833 L 254.602 15.250 250.176 15.212 C 246.229 15.178,245.667 15.207,244.984 15.478 M355.598 19.393 L 356.825 20.620 356.871 29.277 L 356.917 37.935 357.500 39.087 C 358.242 40.554,359.446 41.758,360.913 42.500 L 362.065 43.083 370.723 43.129 L 379.380 43.175 380.607 44.402 L 381.833 45.629 381.833 50.000 L 381.833 54.371 380.607 55.598 L 379.380 56.825 370.723 56.871 L 362.065 56.917 360.913 57.500 C 359.446 58.242,358.242 59.446,357.500 60.913 L 356.917 62.065 356.871 70.723 L 356.825 79.380 355.598 80.607 L 354.371 81.833 350.000 81.833 L 345.629 81.833 344.402 80.607 L 343.175 79.380 343.129 70.723 L 343.083 62.065 342.500 60.913 C 341.758 59.446,340.554 58.242,339.087 57.500 L 337.935 56.917 329.277 56.871 L 320.620 56.825 319.393 55.598 L 318.167 54.371 318.167 50.000 L 318.167 45.629 319.393 44.402 L 320.620 43.175 329.277 43.129 L 337.935 43.083 339.087 42.500 C 340.554 41.758,341.758 40.554,342.500 39.087 L 343.083 37.935 343.129 29.277 L 343.175 20.620 344.402 19.393 L 345.629 18.167 350.000 18.167 L 354.371 18.167 355.598 19.393 M255.346 19.645 L 256.491 20.790 256.537 29.520 L 256.583 38.250 257.202 39.516 C 257.985 41.117,258.883 42.015,260.484 42.798 L 261.750 43.417 270.480 43.463 L 279.210 43.509 280.355 44.654 L 281.500 45.799 281.500 50.000 L 281.500 54.201 280.355 55.346 L 279.210 56.491 270.480 56.537 L 261.750 56.583 260.484 57.202 C 258.883 57.985,257.985 58.883,257.202 60.484 L 256.583 61.750 256.537 70.480 L 256.491 79.210 255.346 80.355 L 254.201 81.500 250.000 81.500 L 245.799 81.500 244.654 80.355 L 243.509 79.210 243.463 70.480 L 243.417 61.750 242.798 60.484 C 242.015 58.883,241.117 57.985,239.516 57.202 L 238.250 56.583 229.520 56.537 L 220.790 56.491 219.645 55.346 L 218.500 54.201 218.500 50.000 L 218.500 45.799 219.645 44.654 L 220.790 43.509 229.520 43.463 L 238.250 43.417 239.516 42.798 C 241.117 42.015,242.015 41.117,242.798 39.516 L 243.417 38.250 243.463 29.520 L 243.509 20.790 244.654 19.645 L 245.799 18.500 250.000 18.500 L 254.201 18.500 255.346 19.645 M119.333 56.973 C 117.290 57.852,116.437 58.640,115.536 60.484 L 114.917 61.750 114.917 66.667 L 114.917 71.583 115.536 72.849 C 116.318 74.451,117.216 75.348,118.817 76.131 L 120.083 76.750 150.000 76.750 L 179.917 76.750 181.183 76.131 C 182.784 75.348,183.682 74.451,184.464 72.849 L 185.083 71.583 185.083 66.667 L 185.083 61.750 184.464 60.484 C 183.682 58.883,182.784 57.985,181.183 57.202 L 179.917 56.583 150.167 56.545 L 120.417 56.508 119.333 56.973 M19.984 57.148 C 18.065 57.900,16.657 59.218,15.710 61.147 L 15.250 62.083 15.250 66.675 L 15.250 71.267 15.833 72.420 C 16.575 73.887,17.780 75.091,19.246 75.833 L 20.399 76.417 50.000 76.417 L 79.601 76.417 80.754 75.833 C 82.220 75.091,83.425 73.887,84.167 72.420 L 84.750 71.267 84.750 66.667 L 84.750 62.066 84.167 60.913 C 83.425 59.446,82.220 58.242,80.754 57.500 L 79.601 56.917 50.175 56.882 C 22.168 56.849,20.713 56.862,19.984 57.148 M180.602 61.065 L 181.833 62.296 181.833 66.667 L 181.833 71.038 180.602 72.269 L 179.371 73.500 150.000 73.500 L 120.629 73.500 119.398 72.269 L 118.167 71.038 118.167 66.667 L 118.167 62.296 119.398 61.065 L 120.629 59.833 150.000 59.833 L 179.371 59.833 180.602 61.065 M80.351 61.316 L 81.500 62.466 81.500 66.667 L 81.500 70.868 80.351 72.017 L 79.201 73.167 50.000 73.167 L 20.799 73.167 19.649 72.017 L 18.500 70.868 18.500 66.667 L 18.500 62.466 19.649 61.316 L 20.799 60.167 50.000 60.167 L 79.201 60.167 80.351 61.316 " stroke="none" fill="#bcccfc" fill-rule="evenodd"></path><path id="path2" d="M4.203 2.037 L 4.167 4.157 2.042 4.209 L -0.083 4.261 2.047 4.297 C 4.561 4.340,4.362 4.551,4.291 1.907 L 4.238 -0.083 4.203 2.037 M95.742 2.125 L 95.750 4.250 99.417 4.338 C 101.433 4.387,102.558 4.450,101.917 4.480 C 100.413 4.548,98.708 4.777,99.458 4.810 C 100.067 4.836,100.206 5.154,99.625 5.190 C 99.419 5.203,99.550 5.268,99.917 5.333 C 100.419 5.423,100.473 5.459,100.135 5.476 C 99.685 5.500,99.283 5.833,99.705 5.833 C 100.075 5.833,100.005 6.446,99.613 6.635 L 99.250 6.811 99.615 6.822 C 100.128 6.838,100.242 7.115,99.827 7.337 C 99.548 7.486,99.518 7.571,99.676 7.762 C 99.785 7.893,99.818 8.000,99.750 8.000 C 99.682 8.000,99.700 8.094,99.790 8.208 C 100.046 8.533,100.077 10.674,99.838 11.583 C 99.814 11.675,99.803 11.806,99.814 11.875 C 99.841 12.038,99.841 87.962,99.814 88.125 C 99.803 88.194,99.814 88.325,99.838 88.417 C 100.077 89.326,100.046 91.467,99.790 91.792 C 99.700 91.906,99.682 92.000,99.750 92.000 C 99.818 92.000,99.785 92.107,99.676 92.238 C 99.518 92.429,99.548 92.514,99.827 92.663 C 100.242 92.885,100.128 93.162,99.615 93.178 L 99.250 93.189 99.613 93.365 C 100.005 93.554,100.075 94.167,99.705 94.167 C 99.283 94.167,99.685 94.500,100.135 94.524 C 100.473 94.541,100.419 94.577,99.917 94.667 C 99.550 94.732,99.419 94.797,99.625 94.810 C 100.206 94.846,100.067 95.164,99.458 95.190 C 98.708 95.223,100.413 95.452,101.917 95.520 C 102.558 95.550,101.433 95.613,99.417 95.662 L 95.750 95.750 95.742 97.875 L 95.734 100.001 95.789 97.917 L 95.843 95.833 100.005 95.833 L 104.167 95.833 104.167 97.917 L 104.167 100.000 150.000 100.000 L 195.833 100.000 195.833 97.917 L 195.833 95.833 199.995 95.833 L 204.157 95.833 204.211 97.875 L 204.265 99.917 204.257 97.833 L 204.250 95.750 200.583 95.662 C 198.567 95.613,197.442 95.550,198.083 95.520 C 199.587 95.452,201.292 95.223,200.542 95.190 C 199.933 95.164,199.794 94.846,200.375 94.810 C 200.581 94.797,200.450 94.732,200.083 94.667 C 199.581 94.577,199.527 94.541,199.865 94.524 C 200.315 94.500,200.717 94.167,200.295 94.167 C 199.925 94.167,199.995 93.554,200.387 93.365 L 200.750 93.189 200.385 93.178 C 199.872 93.162,199.758 92.885,200.173 92.663 C 200.452 92.514,200.482 92.429,200.324 92.238 C 200.215 92.107,200.182 92.000,200.250 92.000 C 200.318 92.000,200.300 91.906,200.210 91.792 C 199.954 91.467,199.923 89.326,200.162 88.417 C 200.186 88.325,200.197 88.194,200.186 88.125 C 200.159 87.962,200.159 12.038,200.186 11.875 C 200.197 11.806,200.186 11.675,200.162 11.583 C 199.923 10.674,199.954 8.533,200.210 8.208 C 200.300 8.094,200.318 8.000,200.250 8.000 C 200.182 8.000,200.215 7.893,200.324 7.762 C 200.482 7.571,200.452 7.486,200.173 7.337 C 199.758 7.115,199.872 6.838,200.385 6.822 L 200.750 6.811 200.387 6.635 C 199.995 6.446,199.925 5.833,200.295 5.833 C 200.717 5.833,200.315 5.500,199.865 5.476 C 199.527 5.459,199.581 5.423,200.083 5.333 C 200.450 5.268,200.581 5.203,200.375 5.190 C 199.794 5.154,199.933 4.836,200.542 4.810 C 201.292 4.777,199.587 4.548,198.083 4.480 C 197.442 4.450,198.567 4.387,200.583 4.338 L 204.250 4.250 204.258 2.083 L 204.266 -0.083 204.211 2.042 L 204.157 4.167 199.995 4.167 L 195.833 4.167 195.833 2.083 L 195.833 0.000 150.000 0.000 L 104.167 0.000 104.167 2.083 L 104.167 4.167 100.005 4.167 L 95.843 4.167 95.789 2.083 L 95.734 -0.001 95.742 2.125 M295.742 2.125 L 295.750 4.250 299.417 4.338 C 301.433 4.387,302.558 4.450,301.917 4.480 C 300.413 4.548,298.708 4.777,299.458 4.810 C 300.067 4.836,300.206 5.154,299.625 5.190 C 299.419 5.203,299.550 5.268,299.917 5.333 C 300.419 5.423,300.473 5.459,300.135 5.476 C 299.685 5.500,299.283 5.833,299.705 5.833 C 300.075 5.833,300.005 6.446,299.613 6.635 L 299.250 6.811 299.615 6.822 C 300.128 6.838,300.242 7.115,299.827 7.337 C 299.548 7.486,299.518 7.571,299.676 7.762 C 299.785 7.893,299.818 8.000,299.750 8.000 C 299.682 8.000,299.700 8.094,299.790 8.208 C 300.046 8.533,300.077 10.674,299.838 11.583 C 299.814 11.675,299.803 11.806,299.814 11.875 C 299.841 12.038,299.841 87.962,299.814 88.125 C 299.803 88.194,299.814 88.325,299.838 88.417 C 300.077 89.326,300.046 91.467,299.790 91.792 C 299.700 91.906,299.682 92.000,299.750 92.000 C 299.818 92.000,299.785 92.107,299.676 92.238 C 299.518 92.429,299.548 92.514,299.827 92.663 C 300.242 92.885,300.128 93.162,299.615 93.178 L 299.250 93.189 299.613 93.365 C 300.005 93.554,300.075 94.167,299.705 94.167 C 299.283 94.167,299.685 94.500,300.135 94.524 C 300.473 94.541,300.419 94.577,299.917 94.667 C 299.550 94.732,299.419 94.797,299.625 94.810 C 300.206 94.846,300.067 95.164,299.458 95.190 C 298.708 95.223,300.413 95.452,301.917 95.520 C 302.558 95.550,301.433 95.613,299.417 95.662 L 295.750 95.750 295.742 97.875 L 295.734 100.001 295.789 97.917 L 295.843 95.833 300.005 95.833 L 304.167 95.833 304.167 97.917 L 304.167 100.000 350.000 100.000 L 395.833 100.000 395.833 97.917 L 395.833 95.833 397.917 95.833 L 400.000 95.833 400.000 50.000 L 400.000 4.167 397.917 4.167 L 395.833 4.167 395.833 2.083 L 395.833 0.000 350.000 0.000 L 304.167 0.000 304.167 2.083 L 304.167 4.167 300.005 4.167 L 295.843 4.167 295.789 2.083 L 295.734 -0.001 295.742 2.125 M355.818 14.808 C 358.381 15.715,359.363 16.725,360.267 19.383 L 360.667 20.558 360.667 29.055 L 360.667 37.551 361.558 38.442 L 362.449 39.333 370.963 39.333 L 379.476 39.333 380.818 39.808 C 384.793 41.215,385.667 43.052,385.667 50.000 C 385.667 56.948,384.793 58.785,380.818 60.192 L 379.476 60.667 370.963 60.667 L 362.449 60.667 361.558 61.558 L 360.667 62.449 360.667 70.963 L 360.667 79.476 360.192 80.818 C 358.785 84.793,356.948 85.667,350.000 85.667 C 343.052 85.667,341.215 84.793,339.808 80.818 L 339.333 79.476 339.333 70.963 L 339.333 62.449 338.442 61.558 L 337.551 60.667 329.055 60.667 L 320.558 60.667 319.383 60.267 C 316.725 59.363,315.715 58.381,314.808 55.818 L 314.333 54.476 314.333 50.017 C 314.333 43.050,315.205 41.216,319.182 39.808 L 320.524 39.333 329.037 39.333 L 337.551 39.333 338.442 38.442 L 339.333 37.551 339.333 29.055 L 339.333 20.558 339.733 19.383 C 341.146 15.229,342.912 14.357,349.946 14.343 L 354.476 14.333 355.818 14.808 M244.891 19.891 L 244.000 20.783 244.000 29.279 L 244.000 37.775 243.600 38.950 C 242.696 41.608,241.714 42.618,239.151 43.525 L 237.809 44.000 229.296 44.000 L 220.783 44.000 219.891 44.891 L 219.000 45.783 219.000 50.000 L 219.000 54.217 219.891 55.109 L 220.783 56.000 229.279 56.000 L 237.775 56.000 238.950 56.400 C 241.608 57.304,242.618 58.286,243.525 60.849 L 244.000 62.191 244.000 70.704 L 244.000 79.217 244.891 80.109 L 245.783 81.000 250.000 81.000 L 254.217 81.000 255.109 80.109 L 256.000 79.217 256.000 70.704 L 256.000 62.191 256.475 60.849 C 257.382 58.286,258.392 57.304,261.050 56.400 L 262.225 56.000 270.721 56.000 L 279.217 56.000 280.109 55.109 L 281.000 54.217 281.000 50.000 L 281.000 45.783 280.109 44.891 L 279.217 44.000 270.704 44.000 L 262.191 44.000 260.849 43.525 C 258.286 42.618,257.304 41.608,256.400 38.950 L 256.000 37.775 256.000 29.279 L 256.000 20.783 255.109 19.891 L 254.217 19.000 250.000 19.000 L 245.783 19.000 244.891 19.891 M180.818 56.475 C 184.793 57.881,185.667 59.719,185.667 66.667 C 185.667 73.615,184.793 75.452,180.818 76.859 L 179.476 77.333 150.000 77.333 L 120.524 77.333 119.182 76.859 C 115.207 75.452,114.333 73.615,114.333 66.667 C 114.333 59.748,115.203 57.901,119.130 56.483 L 120.417 56.019 149.946 56.009 L 179.476 56.000 180.818 56.475 M19.891 61.558 L 19.000 62.449 19.000 66.667 L 19.000 70.884 19.891 71.775 L 20.783 72.667 50.000 72.667 L 79.217 72.667 80.109 71.775 L 81.000 70.884 81.000 66.667 L 81.000 62.449 80.109 61.558 L 79.217 60.667 50.000 60.667 L 20.783 60.667 19.891 61.558 M2.078 95.789 L 4.157 95.843 4.211 97.922 L 4.266 100.001 4.258 97.875 L 4.250 95.750 2.125 95.742 L -0.001 95.734 2.078 95.789 " stroke="none" fill="#8cacec" fill-rule="evenodd"></path><path id="path3" d="" stroke="none" fill="#f0100f4" fill-rule="evenodd"></path><path id="path4" d="M98.595 4.499 C 99.060 4.567,100.260 4.569,101.262 4.503 L 103.083 4.384 100.417 4.379 C 98.619 4.376,98.026 4.415,98.595 4.499 M198.738 4.503 C 199.740 4.569,200.940 4.567,201.405 4.499 C 201.974 4.415,201.381 4.376,199.583 4.379 L 196.917 4.384 198.738 4.503 M298.595 4.499 C 299.060 4.567,300.260 4.569,301.262 4.503 L 303.083 4.384 300.417 4.379 C 298.619 4.376,298.026 4.415,298.595 4.499 M98.969 5.144 C 99.172 5.273,100.000 5.208,100.000 5.064 C 100.000 5.029,99.719 5.001,99.375 5.003 C 98.977 5.004,98.829 5.055,98.969 5.144 M200.000 5.064 C 200.000 5.208,200.828 5.273,201.031 5.144 C 201.171 5.055,201.023 5.004,200.625 5.003 C 200.281 5.001,200.000 5.029,200.000 5.064 M298.969 5.144 C 299.172 5.273,300.000 5.208,300.000 5.064 C 300.000 5.029,299.719 5.001,299.375 5.003 C 298.977 5.004,298.829 5.055,298.969 5.144 M99.438 5.465 C 99.393 5.538,99.614 5.567,99.928 5.530 C 100.243 5.494,100.500 5.434,100.500 5.398 C 100.500 5.273,99.519 5.335,99.438 5.465 M199.500 5.398 C 199.500 5.434,199.757 5.494,200.072 5.530 C 200.386 5.567,200.607 5.538,200.562 5.465 C 200.481 5.335,199.500 5.273,199.500 5.398 M299.438 5.465 C 299.393 5.538,299.614 5.567,299.928 5.530 C 300.243 5.494,300.500 5.434,300.500 5.398 C 300.500 5.273,299.519 5.335,299.438 5.465 M99.471 5.970 C 99.241 6.063,99.228 6.133,99.397 6.363 C 99.539 6.557,99.676 6.595,99.843 6.488 C 100.044 6.359,100.046 6.309,99.856 6.187 C 99.664 6.063,99.664 6.026,99.856 5.950 C 99.981 5.900,100.008 5.859,99.917 5.858 C 99.825 5.857,99.624 5.908,99.471 5.970 M200.144 5.982 C 200.336 6.104,200.336 6.140,200.144 6.217 C 199.955 6.292,199.958 6.336,200.157 6.475 C 200.331 6.596,200.454 6.565,200.603 6.363 C 200.772 6.133,200.759 6.063,200.529 5.970 C 200.125 5.806,199.878 5.814,200.144 5.982 M299.471 5.970 C 299.241 6.063,299.228 6.133,299.397 6.363 C 299.539 6.557,299.676 6.595,299.843 6.488 C 300.044 6.359,300.046 6.309,299.856 6.187 C 299.664 6.063,299.664 6.026,299.856 5.950 C 299.981 5.900,300.008 5.859,299.917 5.858 C 299.825 5.857,299.624 5.908,299.471 5.970 M99.232 6.902 C 99.300 7.351,99.519 7.502,99.848 7.325 C 100.028 7.229,100.138 7.088,100.090 7.012 C 99.955 6.793,99.200 6.696,99.232 6.902 M200.417 6.786 C 199.880 6.914,199.772 7.122,200.139 7.318 C 200.395 7.456,200.512 7.449,200.610 7.292 C 200.722 7.113,200.855 6.630,200.777 6.686 C 200.762 6.697,200.600 6.741,200.417 6.786 M299.232 6.902 C 299.300 7.351,299.519 7.502,299.848 7.325 C 300.028 7.229,300.138 7.088,300.090 7.012 C 299.955 6.793,299.200 6.696,299.232 6.902 M99.426 8.307 C 99.589 8.780,99.608 9.123,99.493 9.523 C 99.301 10.194,99.300 10.207,99.458 10.109 C 99.527 10.067,99.583 28.018,99.583 50.000 C 99.583 71.982,99.527 89.933,99.458 89.891 C 99.300 89.793,99.301 89.806,99.493 90.477 C 99.608 90.877,99.589 91.220,99.426 91.693 C 99.221 92.288,99.226 92.346,99.475 92.298 C 99.626 92.269,99.759 92.153,99.771 92.039 C 99.782 91.926,99.811 91.815,99.834 91.792 C 100.037 91.591,100.039 89.185,99.838 88.417 C 99.814 88.325,99.803 88.194,99.814 88.125 C 99.841 87.962,99.841 12.038,99.814 11.875 C 99.803 11.806,99.814 11.675,99.838 11.583 C 100.039 10.815,100.037 8.409,99.834 8.208 C 99.811 8.185,99.782 8.074,99.771 7.961 C 99.759 7.847,99.626 7.731,99.475 7.702 C 99.226 7.654,99.221 7.712,99.426 8.307 M200.313 7.750 C 200.301 7.796,200.273 7.908,200.250 8.000 C 200.227 8.092,200.189 8.185,200.166 8.208 C 199.963 8.409,199.961 10.815,200.162 11.583 C 200.186 11.675,200.197 11.806,200.186 11.875 C 200.159 12.038,200.159 87.962,200.186 88.125 C 200.197 88.194,200.186 88.325,200.162 88.417 C 199.961 89.185,199.963 91.591,200.166 91.792 C 200.189 91.815,200.218 91.926,200.229 92.039 C 200.241 92.153,200.374 92.269,200.525 92.298 C 200.774 92.346,200.779 92.288,200.574 91.693 C 200.411 91.220,200.392 90.877,200.507 90.477 C 200.699 89.806,200.700 89.793,200.542 89.891 C 200.473 89.933,200.417 71.982,200.417 50.000 C 200.417 28.018,200.473 10.067,200.542 10.109 C 200.700 10.207,200.699 10.194,200.507 9.523 C 200.392 9.124,200.410 8.781,200.571 8.316 C 200.760 7.766,200.759 7.667,200.564 7.667 C 200.437 7.667,200.324 7.704,200.313 7.750 M299.426 8.307 C 299.589 8.780,299.608 9.123,299.493 9.523 C 299.301 10.194,299.300 10.207,299.458 10.109 C 299.527 10.067,299.583 28.018,299.583 50.000 C 299.583 71.982,299.527 89.933,299.458 89.891 C 299.300 89.793,299.301 89.806,299.493 90.477 C 299.608 90.877,299.589 91.220,299.426 91.693 C 299.221 92.288,299.226 92.346,299.475 92.298 C 299.626 92.269,299.759 92.153,299.771 92.039 C 299.782 91.926,299.811 91.815,299.834 91.792 C 300.037 91.591,300.039 89.185,299.838 88.417 C 299.814 88.325,299.803 88.194,299.814 88.125 C 299.841 87.962,299.841 12.038,299.814 11.875 C 299.803 11.806,299.814 11.675,299.838 11.583 C 300.039 10.815,300.037 8.409,299.834 8.208 C 299.811 8.185,299.782 8.074,299.771 7.961 C 299.759 7.847,299.626 7.731,299.475 7.702 C 299.226 7.654,299.221 7.712,299.426 8.307 M344.130 14.817 C 341.613 15.726,340.630 16.747,339.733 19.383 L 339.333 20.558 339.333 29.055 L 339.333 37.551 338.442 38.442 L 337.551 39.333 329.037 39.333 L 320.524 39.333 319.182 39.808 C 315.205 41.216,314.333 43.050,314.333 50.017 L 314.333 54.476 314.808 55.818 C 315.715 58.381,316.725 59.363,319.383 60.267 L 320.558 60.667 329.055 60.667 L 337.551 60.667 338.442 61.558 L 339.333 62.449 339.333 70.963 L 339.333 79.476 339.808 80.818 C 341.215 84.793,343.052 85.667,350.000 85.667 C 356.948 85.667,358.785 84.793,360.192 80.818 L 360.667 79.476 360.667 70.963 L 360.667 62.449 361.558 61.558 L 362.449 60.667 370.963 60.667 L 379.476 60.667 380.818 60.192 C 384.793 58.785,385.667 56.948,385.667 50.000 C 385.667 43.052,384.793 41.215,380.818 39.808 L 379.476 39.333 370.963 39.333 L 362.449 39.333 361.558 38.442 L 360.667 37.551 360.667 29.055 L 360.667 20.558 360.267 19.383 C 359.363 16.725,358.381 15.715,355.818 14.808 L 354.476 14.333 349.946 14.343 C 345.419 14.352,345.416 14.352,344.130 14.817 M356.183 15.536 C 357.784 16.318,358.682 17.216,359.464 18.817 L 360.083 20.083 360.129 28.813 L 360.175 37.543 361.316 38.684 L 362.457 39.825 371.187 39.871 L 379.917 39.917 381.183 40.536 C 382.784 41.318,383.682 42.216,384.464 43.817 L 385.083 45.083 385.083 50.000 L 385.083 54.917 384.464 56.183 C 383.682 57.784,382.784 58.682,381.183 59.464 L 379.917 60.083 371.187 60.129 L 362.457 60.175 361.316 61.316 L 360.175 62.457 360.129 71.187 L 360.083 79.917 359.464 81.183 C 358.682 82.784,357.784 83.682,356.183 84.464 L 354.917 85.083 350.000 85.083 L 345.083 85.083 343.817 84.464 C 342.216 83.682,341.318 82.784,340.536 81.183 L 339.917 79.917 339.871 71.187 L 339.825 62.457 338.684 61.316 L 337.543 60.175 328.813 60.129 L 320.083 60.083 318.817 59.464 C 317.216 58.682,316.318 57.784,315.536 56.183 L 314.917 54.917 314.917 50.000 L 314.917 45.083 315.536 43.817 C 316.318 42.216,317.216 41.318,318.817 40.536 L 320.083 39.917 328.813 39.871 L 337.543 39.825 338.684 38.684 L 339.825 37.543 339.871 28.813 L 339.917 20.083 340.536 18.817 C 341.436 16.975,342.285 16.190,344.333 15.304 L 345.417 14.835 350.167 14.876 L 354.917 14.917 356.183 15.536 M244.654 19.645 L 243.509 20.790 243.463 29.520 L 243.417 38.250 242.798 39.516 C 242.015 41.117,241.117 42.015,239.516 42.798 L 238.250 43.417 229.520 43.463 L 220.790 43.509 219.645 44.654 L 218.500 45.799 218.500 50.000 L 218.500 54.201 219.645 55.346 L 220.790 56.491 229.520 56.537 L 238.250 56.583 239.516 57.202 C 241.117 57.985,242.015 58.883,242.798 60.484 L 243.417 61.750 243.463 70.480 L 243.509 79.210 244.654 80.355 L 245.799 81.500 250.000 81.500 L 254.201 81.500 255.346 80.355 L 256.491 79.210 256.537 70.480 L 256.583 61.750 257.202 60.484 C 257.985 58.883,258.883 57.985,260.484 57.202 L 261.750 56.583 270.480 56.537 L 279.210 56.491 280.355 55.346 L 281.500 54.201 281.500 50.000 L 281.500 45.799 280.355 44.654 L 279.210 43.509 270.480 43.463 L 261.750 43.417 260.484 42.798 C 258.883 42.015,257.985 41.117,257.202 39.516 L 256.583 38.250 256.537 29.520 L 256.491 20.790 255.346 19.645 L 254.201 18.500 250.000 18.500 L 245.799 18.500 244.654 19.645 M255.109 19.891 L 256.000 20.783 256.000 29.279 L 256.000 37.775 256.400 38.950 C 257.304 41.608,258.286 42.618,260.849 43.525 L 262.191 44.000 270.704 44.000 L 279.217 44.000 280.109 44.891 L 281.000 45.783 281.000 50.000 L 281.000 54.217 280.109 55.109 L 279.217 56.000 270.721 56.000 L 262.225 56.000 261.050 56.400 C 258.392 57.304,257.382 58.286,256.475 60.849 L 256.000 62.191 256.000 70.704 L 256.000 79.217 255.109 80.109 L 254.217 81.000 250.000 81.000 L 245.783 81.000 244.891 80.109 L 244.000 79.217 244.000 70.704 L 244.000 62.191 243.525 60.849 C 242.618 58.286,241.608 57.304,238.950 56.400 L 237.775 56.000 229.279 56.000 L 220.783 56.000 219.891 55.109 L 219.000 54.217 219.000 50.000 L 219.000 45.783 219.891 44.891 L 220.783 44.000 229.296 44.000 L 237.809 44.000 239.151 43.525 C 241.714 42.618,242.696 41.608,243.600 38.950 L 244.000 37.775 244.000 29.279 L 244.000 20.783 244.891 19.891 L 245.783 19.000 250.000 19.000 L 254.217 19.000 255.109 19.891 M119.130 56.483 C 115.203 57.901,114.333 59.748,114.333 66.667 C 114.333 73.615,115.207 75.452,119.182 76.859 L 120.524 77.333 150.000 77.333 L 179.476 77.333 180.818 76.859 C 184.793 75.452,185.667 73.615,185.667 66.667 C 185.667 59.719,184.793 57.881,180.818 56.475 L 179.476 56.000 149.946 56.009 L 120.417 56.019 119.130 56.483 M181.183 57.202 C 182.784 57.985,183.682 58.883,184.464 60.484 L 185.083 61.750 185.083 66.667 L 185.083 71.583 184.464 72.849 C 183.682 74.451,182.784 75.348,181.183 76.131 L 179.917 76.750 150.000 76.750 L 120.083 76.750 118.817 76.131 C 117.216 75.348,116.318 74.451,115.536 72.849 L 114.917 71.583 114.917 66.667 L 114.917 61.750 115.536 60.484 C 116.437 58.640,117.290 57.852,119.333 56.973 L 120.417 56.508 150.167 56.545 L 179.917 56.583 181.183 57.202 M19.649 61.316 L 18.500 62.466 18.500 66.667 L 18.500 70.868 19.649 72.017 L 20.799 73.167 50.000 73.167 L 79.201 73.167 80.351 72.017 L 81.500 70.868 81.500 66.667 L 81.500 62.466 80.351 61.316 L 79.201 60.167 50.000 60.167 L 20.799 60.167 19.649 61.316 M80.109 61.558 L 81.000 62.449 81.000 66.667 L 81.000 70.884 80.109 71.775 L 79.217 72.667 50.000 72.667 L 20.783 72.667 19.891 71.775 L 19.000 70.884 19.000 66.667 L 19.000 62.449 19.891 61.558 L 20.783 60.667 50.000 60.667 L 79.217 60.667 80.109 61.558 M99.390 92.708 C 99.134 93.118,99.204 93.280,99.604 93.203 C 100.146 93.100,100.245 92.887,99.848 92.675 C 99.607 92.546,99.486 92.554,99.390 92.708 M200.074 92.737 C 199.725 92.995,199.704 92.973,200.567 93.238 C 200.827 93.319,200.826 92.926,200.564 92.664 C 200.455 92.555,200.289 92.579,200.074 92.737 M299.390 92.708 C 299.134 93.118,299.204 93.280,299.604 93.203 C 300.146 93.100,300.245 92.887,299.848 92.675 C 299.607 92.546,299.486 92.554,299.390 92.708 M99.362 93.683 C 99.253 93.857,99.233 94.000,99.318 94.000 C 99.403 94.000,99.610 94.045,99.778 94.099 C 100.032 94.181,100.041 94.168,99.833 94.018 C 99.663 93.896,99.650 93.838,99.792 93.836 C 100.068 93.833,100.059 93.558,99.780 93.451 C 99.659 93.405,99.470 93.509,99.362 93.683 M200.157 93.512 C 199.949 93.646,199.950 93.689,200.167 93.831 C 200.373 93.966,200.375 93.995,200.181 93.997 C 200.051 93.999,199.984 94.039,200.031 94.087 C 200.273 94.329,200.804 93.911,200.603 93.637 C 200.460 93.443,200.324 93.405,200.157 93.512 M299.362 93.683 C 299.253 93.857,299.233 94.000,299.318 94.000 C 299.403 94.000,299.610 94.045,299.778 94.099 C 300.032 94.181,300.041 94.168,299.833 94.018 C 299.663 93.896,299.650 93.838,299.792 93.836 C 300.068 93.833,300.059 93.558,299.780 93.451 C 299.659 93.405,299.470 93.509,299.362 93.683 M99.480 94.547 C 99.560 94.627,99.841 94.666,100.105 94.633 C 100.545 94.578,100.534 94.566,99.958 94.487 C 99.600 94.437,99.396 94.463,99.480 94.547 M200.000 94.500 L 199.417 94.623 199.948 94.645 C 200.241 94.657,200.527 94.592,200.583 94.500 C 200.640 94.408,200.663 94.343,200.635 94.355 C 200.607 94.367,200.321 94.432,200.000 94.500 M299.480 94.547 C 299.560 94.627,299.841 94.666,300.105 94.633 C 300.545 94.578,300.534 94.566,299.958 94.487 C 299.600 94.437,299.396 94.463,299.480 94.547 M98.969 94.856 C 98.829 94.945,98.977 94.996,99.375 94.997 C 99.719 94.999,100.000 94.971,100.000 94.936 C 100.000 94.792,99.172 94.727,98.969 94.856 M200.333 94.845 C 199.971 94.951,199.998 94.969,200.542 94.983 C 201.176 95.000,201.336 94.928,200.958 94.796 C 200.844 94.756,200.563 94.778,200.333 94.845 M298.969 94.856 C 298.829 94.945,298.977 94.996,299.375 94.997 C 299.719 94.999,300.000 94.971,300.000 94.936 C 300.000 94.792,299.172 94.727,298.969 94.856 M98.500 95.507 C 98.048 95.573,98.805 95.627,100.403 95.642 C 101.862 95.655,103.024 95.639,102.986 95.606 C 102.843 95.482,99.221 95.401,98.500 95.507 M198.417 95.496 C 197.063 95.593,197.175 95.607,199.569 95.635 C 201.028 95.652,202.191 95.638,202.153 95.604 C 201.993 95.459,199.808 95.396,198.417 95.496 M298.500 95.507 C 298.048 95.573,298.805 95.627,300.403 95.642 C 301.862 95.655,303.024 95.639,302.986 95.606 C 302.843 95.482,299.221 95.401,298.500 95.507 " stroke="none" fill="#a0d8f4" fill-rule="evenodd"></path></g></svg>