<svg xmlns="http://www.w3.org/2000/svg" xmlns:xlink="http://www.w3.org/1999/xlink" width="30" height="30" viewBox="0 0 256 256"><g fill="#fcc419" fill-rule="nonzero" stroke="none" stroke-dashoffset="0" stroke-linecap="butt" stroke-linejoin="miter" stroke-miterlimit="10" stroke-width="1" font-family="none" font-size="none" font-weight="none" text-anchor="none" style="mix-blend-mode:normal"><g><path d="M16,3c-7.16797,0 -13,5.83203 -13,13c0,7.16797 5.83203,13 13,13c7.16797,0 13,-5.83203 13,-13c0,-7.16797 -5.83203,-13 -13,-13zM16,5c6.08594,0 11,4.91406 11,11c0,6.08594 -4.91406,11 -11,11c-6.08594,0 -11,-4.91406 -11,-11c0,-6.08594 4.91406,-11 11,-11zM15,10v2h2v-2zM15,14v8h2v-8z" transform="scale(8,8)"/></g></g></svg>